<?xml version="1.0" encoding="UTF-8"?><svg id="Layer_2" xmlns="http://www.w3.org/2000/svg" viewBox="0 0 261.02 416.67"><defs><style>.cls-1{fill:none;stroke:#000;stroke-linecap:round;stroke-miterlimit:10;stroke-width:6px;}.cls-2{fill:#5a5a5a;}.cls-3{fill:#898989;}.cls-4{fill:#424242;}.cls-5{fill:#d9d9d9;}</style></defs><g id="Layer_1-2"><path class="cls-1" d="M3,208.45c0-70.42,57.09-127.51,127.51-127.51s127.51,57.09,127.51,127.51"/><path class="cls-4" d="M255.28,210.45c0,2.09-.05,4.17-.15,6.26-.1,2.09-.26,4.17-.45,6.24s-.45,4.15-.75,6.21c-.3,2.07-.65,4.12-1.05,6.17-.4,2.05-.84,4.08-1.34,6.11-.49,2.02-1.04,4.04-1.63,6.03s-1.23,3.98-1.92,5.94-1.42,3.91-2.21,5.84c-.78,1.93-1.6,3.83-2.48,5.72-.87,1.89-1.79,3.75-2.76,5.59-.96,1.84-1.97,3.66-3.02,5.45-1.05,1.79-2.15,3.55-3.28,5.29-1.14,1.73-2.31,3.44-3.53,5.11-1.22,1.68-2.47,3.32-3.77,4.93-1.29,1.61-2.63,3.2-4,4.74-1.37,1.55-2.78,3.06-4.22,4.54-1.45,1.47-2.93,2.91-4.44,4.31-1.52,1.4-3.06,2.77-4.64,4.09-1.58,1.32-3.19,2.61-4.83,3.85-1.64,1.24-3.31,2.45-5.01,3.6-1.7,1.16-3.42,2.28-5.17,3.35s-3.53,2.1-5.33,3.09c-1.8,.98-3.63,1.92-5.47,2.81-1.85,.89-3.71,1.74-5.6,2.54-1.89,.8-3.79,1.55-5.71,2.25s-3.86,1.36-5.81,1.96c-1.95,.61-3.92,1.16-5.9,1.67-1.98,.51-3.97,.96-5.98,1.37-2,.41-4.02,.77-6.03,1.07-2.02,.3-4.05,.56-6.08,.77-2.03,.2-4.07,.35-6.11,.46-2.04,.1-4.08,.15-6.12,.15s-4.08-.05-6.13-.15c-2.04-.1-4.07-.26-6.1-.46-2.04-.21-4.06-.46-6.08-.77-2.02-.31-4.03-.67-6.03-1.07-2.01-.41-3.99-.86-5.97-1.37-1.98-.51-3.95-1.06-5.91-1.67-1.95-.6-3.89-1.26-5.81-1.96s-3.83-1.45-5.71-2.25-3.76-1.65-5.6-2.54-3.67-1.83-5.47-2.81c-1.8-.98-3.58-2.02-5.33-3.09-1.76-1.07-3.48-2.19-5.18-3.35-1.7-1.16-3.36-2.36-5.01-3.6-1.64-1.24-3.25-2.53-4.83-3.85s-3.13-2.69-4.64-4.09c-1.52-1.4-2.99-2.84-4.44-4.31-1.44-1.48-2.85-2.99-4.22-4.54-1.37-1.54-2.7-3.13-4-4.74-1.3-1.61-2.55-3.26-3.77-4.93-1.22-1.68-2.4-3.38-3.53-5.11s-2.22-3.5-3.28-5.29c-1.05-1.79-2.05-3.61-3.02-5.45s-1.88-3.7-2.76-5.59-1.7-3.8-2.48-5.72c-.78-1.93-1.51-3.88-2.2-5.84-.69-1.96-1.33-3.95-1.92-5.94-.59-2-1.14-4.01-1.64-6.03-.49-2.03-.94-4.06-1.34-6.11-.4-2.05-.74-4.1-1.05-6.17-.3-2.06-.55-4.13-.75-6.21-.2-2.08-.35-4.16-.45-6.24-.1-2.08-.15-4.17-.15-6.26s.05-4.17,.15-6.26,.25-4.17,.45-6.24c.2-2.07,.45-4.15,.75-6.21,.3-2.07,.65-4.12,1.05-6.17,.4-2.05,.85-4.08,1.34-6.11,.49-2.02,1.04-4.03,1.64-6.03,.59-1.99,1.23-3.98,1.92-5.94,.69-1.96,1.43-3.91,2.21-5.84s1.6-3.83,2.48-5.72c.88-1.89,1.79-3.75,2.76-5.59,.96-1.84,1.97-3.66,3.02-5.44,1.05-1.79,2.15-3.55,3.28-5.29,1.13-1.73,2.31-3.44,3.53-5.11,1.21-1.68,2.47-3.32,3.77-4.93,1.3-1.61,2.63-3.19,4-4.74s2.78-3.06,4.22-4.54c1.44-1.47,2.92-2.91,4.44-4.31,1.51-1.4,3.06-2.77,4.64-4.09s3.19-2.61,4.83-3.85c1.64-1.24,3.31-2.45,5.01-3.6,1.7-1.16,3.42-2.28,5.18-3.35,1.75-1.07,3.53-2.1,5.33-3.08,1.8-.98,3.63-1.92,5.47-2.82,1.84-.89,3.71-1.73,5.6-2.54,1.89-.8,3.79-1.55,5.71-2.25s3.86-1.36,5.82-1.96c1.95-.6,3.92-1.16,5.9-1.67,1.98-.51,3.97-.96,5.97-1.37,2-.41,4.02-.77,6.03-1.07,2.02-.31,4.05-.56,6.08-.77,2.03-.21,4.07-.36,6.1-.46,2.04-.1,4.08-.15,6.13-.15s4.08,.05,6.12,.15c2.04,.1,4.08,.26,6.11,.46,2.03,.2,4.06,.46,6.08,.77,2.02,.3,4.03,.66,6.03,1.07,2.01,.41,3.99,.86,5.98,1.37,1.98,.51,3.95,1.07,5.9,1.67s3.89,1.26,5.81,1.96,3.83,1.45,5.72,2.25c1.89,.8,3.75,1.65,5.6,2.54,1.84,.9,3.67,1.83,5.47,2.82,1.8,.98,3.58,2.01,5.33,3.08s3.47,2.19,5.17,3.35c1.7,1.16,3.37,2.36,5.01,3.6,1.64,1.24,3.25,2.53,4.83,3.85s3.13,2.69,4.64,4.09c1.52,1.4,2.99,2.84,4.44,4.31,1.44,1.48,2.85,2.99,4.22,4.54,1.38,1.55,2.71,3.13,4.01,4.74,1.29,1.61,2.55,3.26,3.77,4.93,1.21,1.68,2.39,3.38,3.53,5.11,1.14,1.74,2.22,3.5,3.28,5.29,1.05,1.79,2.06,3.6,3.02,5.44,.96,1.84,1.89,3.7,2.76,5.59,.88,1.89,1.7,3.79,2.48,5.72,.79,1.93,1.52,3.88,2.21,5.84s1.33,3.95,1.92,5.94c.59,2,1.14,4.01,1.63,6.03,.5,2.03,.95,4.06,1.34,6.11,.4,2.05,.75,4.1,1.05,6.17,.3,2.06,.55,4.14,.75,6.21,.2,2.08,.35,4.16,.45,6.24,.1,2.08,.15,4.17,.15,6.26Z"/><path class="cls-2" d="M216.71,210.45c0,1.44-.04,2.88-.1,4.32-.07,1.44-.17,2.88-.31,4.31-.14,1.43-.31,2.86-.52,4.29-.2,1.43-.45,2.84-.72,4.26-.27,1.41-.58,2.82-.93,4.22-.34,1.4-.72,2.79-1.13,4.17-.41,1.38-.85,2.74-1.33,4.1s-.98,2.7-1.52,4.03c-.54,1.33-1.11,2.65-1.72,3.95-.6,1.31-1.23,2.59-1.9,3.86-.66,1.27-1.36,2.53-2.08,3.76-.72,1.24-1.48,2.45-2.27,3.65-.78,1.2-1.59,2.38-2.44,3.54-.84,1.16-1.7,2.3-2.6,3.41s-1.82,2.2-2.77,3.27-1.92,2.11-2.92,3.13c-.99,1.02-2.02,2.02-3.06,2.98s-2.11,1.91-3.2,2.82c-1.09,.92-2.2,1.8-3.34,2.66-1.13,.86-2.29,1.69-3.46,2.49s-2.36,1.57-3.57,2.31-2.44,1.45-3.68,2.13c-1.24,.68-2.5,1.33-3.78,1.94-1.28,.62-2.57,1.2-3.87,1.76s-2.62,1.07-3.95,1.55c-1.33,.49-2.67,.94-4.02,1.36-1.35,.42-2.71,.8-4.08,1.15-1.37,.35-2.74,.67-4.13,.95-1.38,.28-2.77,.53-4.17,.74s-2.8,.39-4.2,.53c-1.41,.14-2.81,.24-4.22,.32-1.41,.07-2.82,.1-4.23,.1s-2.82-.04-4.23-.1c-1.41-.07-2.82-.18-4.22-.32-1.41-.14-2.81-.32-4.2-.53s-2.78-.46-4.17-.74-2.76-.59-4.13-.95c-1.36-.35-2.72-.73-4.07-1.15-1.35-.42-2.69-.87-4.02-1.35-1.33-.49-2.64-1.01-3.95-1.56-1.3-.55-2.59-1.14-3.87-1.76-1.27-.61-2.53-1.26-3.78-1.94-1.24-.68-2.47-1.39-3.68-2.13-1.21-.74-2.4-1.51-3.57-2.31s-2.33-1.63-3.46-2.49c-1.14-.86-2.24-1.74-3.33-2.66-1.09-.92-2.16-1.85-3.2-2.82-1.05-.97-2.07-1.96-3.07-2.98-.99-1.02-1.97-2.06-2.92-3.13s-1.87-2.16-2.76-3.27c-.9-1.11-1.77-2.25-2.6-3.41-.84-1.16-1.65-2.33-2.44-3.54-.78-1.2-1.54-2.41-2.27-3.65-.72-1.23-1.42-2.49-2.08-3.76-.66-1.27-1.3-2.56-1.9-3.86-.6-1.3-1.18-2.62-1.71-3.95-.54-1.33-1.05-2.67-1.53-4.03-.47-1.36-.92-2.72-1.33-4.1-.41-1.38-.78-2.77-1.13-4.17-.34-1.4-.65-2.81-.93-4.22-.28-1.42-.52-2.83-.72-4.26s-.38-2.86-.52-4.29c-.14-1.44-.24-2.88-.31-4.31-.07-1.44-.1-2.88-.1-4.32s.04-2.88,.1-4.32c.07-1.44,.17-2.88,.31-4.31,.14-1.43,.31-2.86,.52-4.29,.21-1.42,.45-2.84,.72-4.26,.28-1.42,.58-2.82,.93-4.22,.34-1.4,.72-2.79,1.13-4.17,.41-1.38,.85-2.74,1.33-4.1,.48-1.35,.98-2.7,1.53-4.03,.54-1.33,1.11-2.65,1.71-3.95s1.23-2.59,1.9-3.86,1.36-2.53,2.08-3.76c.73-1.23,1.48-2.45,2.27-3.65s1.59-2.38,2.44-3.54c.84-1.16,1.71-2.29,2.6-3.41,.9-1.11,1.82-2.21,2.77-3.28s1.92-2.11,2.92-3.13c1-1.02,2.02-2.02,3.06-2.98,1.05-.97,2.11-1.91,3.2-2.82,1.09-.92,2.2-1.8,3.34-2.66,1.13-.86,2.29-1.69,3.46-2.49,1.17-.8,2.36-1.57,3.57-2.31,1.21-.74,2.44-1.45,3.68-2.13,1.24-.68,2.51-1.33,3.78-1.94s2.56-1.2,3.86-1.76c1.31-.55,2.62-1.07,3.95-1.55,1.33-.49,2.67-.94,4.02-1.36,1.35-.42,2.71-.8,4.07-1.15,1.37-.35,2.74-.67,4.13-.95s2.77-.53,4.17-.74,2.8-.39,4.2-.53c1.4-.14,2.81-.24,4.22-.32,1.41-.07,2.82-.1,4.23-.1s2.82,.04,4.23,.1c1.41,.07,2.81,.18,4.22,.32,1.4,.15,2.8,.32,4.2,.53s2.79,.46,4.17,.74c1.39,.28,2.76,.6,4.13,.95s2.73,.73,4.08,1.15c1.35,.42,2.69,.87,4.02,1.36,1.33,.48,2.65,1.01,3.95,1.55,1.3,.55,2.59,1.14,3.87,1.76s2.54,1.27,3.78,1.94c1.24,.68,2.47,1.39,3.68,2.13,1.21,.74,2.4,1.52,3.57,2.31,1.17,.8,2.33,1.64,3.46,2.49,1.14,.86,2.24,1.75,3.34,2.66,1.09,.92,2.16,1.85,3.2,2.82s2.07,1.96,3.06,2.98c1,1.02,1.97,2.06,2.92,3.13s1.87,2.16,2.77,3.27c.9,1.12,1.76,2.26,2.6,3.41,.84,1.16,1.66,2.34,2.44,3.54,.79,1.2,1.54,2.42,2.27,3.65s1.42,2.49,2.08,3.76c.67,1.27,1.3,2.56,1.9,3.86,.6,1.3,1.18,2.62,1.72,3.95,.54,1.33,1.05,2.68,1.52,4.03,.47,1.36,.92,2.73,1.33,4.1,.41,1.38,.79,2.77,1.13,4.17,.34,1.4,.66,2.8,.93,4.22,.28,1.41,.52,2.83,.72,4.26,.21,1.43,.38,2.86,.52,4.29,.14,1.44,.24,2.88,.31,4.31,.07,1.44,.1,2.88,.1,4.32Z"/><path class="cls-3" d="M166.45,210.45c0,1.2-.06,2.4-.17,3.6s-.29,2.39-.52,3.57c-.23,1.18-.52,2.34-.85,3.49-.34,1.15-.74,2.28-1.19,3.4-.45,1.11-.95,2.2-1.51,3.26-.55,1.06-1.16,2.09-1.81,3.09s-1.35,1.96-2.1,2.9c-.75,.93-1.54,1.82-2.37,2.67-.83,.85-1.7,1.66-2.61,2.42-.91,.77-1.85,1.48-2.83,2.15-.98,.67-1.98,1.29-3.03,1.85-1.04,.57-2.1,1.08-3.19,1.54s-2.19,.86-3.32,1.21c-1.13,.35-2.27,.64-3.42,.88-1.16,.23-2.32,.41-3.49,.53-1.17,.11-2.34,.18-3.52,.18s-2.35-.06-3.52-.18c-1.17-.12-2.34-.3-3.49-.53-1.16-.23-2.3-.53-3.42-.88-1.13-.35-2.23-.76-3.32-1.21s-2.15-.97-3.19-1.54-2.05-1.18-3.03-1.85c-.98-.67-1.92-1.38-2.83-2.15-.91-.76-1.78-1.57-2.61-2.42-.83-.85-1.62-1.74-2.36-2.67-.75-.93-1.45-1.9-2.1-2.9-.65-1-1.26-2.03-1.81-3.09-.55-1.06-1.06-2.15-1.51-3.26-.45-1.11-.85-2.24-1.19-3.4-.34-1.15-.63-2.32-.86-3.49-.23-1.18-.4-2.37-.52-3.57s-.18-2.4-.18-3.6,.06-2.4,.18-3.6,.29-2.39,.52-3.57c.23-1.18,.52-2.34,.86-3.49,.34-1.15,.73-2.28,1.19-3.39,.45-1.11,.95-2.2,1.51-3.26,.56-1.06,1.16-2.09,1.81-3.09,.66-1,1.35-1.96,2.1-2.89,.74-.93,1.54-1.82,2.36-2.67,.83-.85,1.71-1.66,2.61-2.42,.91-.76,1.85-1.48,2.83-2.15,.98-.67,1.99-1.29,3.03-1.85s2.1-1.08,3.19-1.54c1.09-.46,2.19-.86,3.32-1.21,1.13-.35,2.27-.64,3.42-.88,1.15-.23,2.32-.41,3.49-.53,1.17-.11,2.34-.18,3.52-.18s2.35,.06,3.52,.18c1.17,.12,2.33,.3,3.49,.53,1.15,.23,2.29,.53,3.42,.88,1.13,.35,2.23,.76,3.32,1.21,1.09,.46,2.15,.97,3.19,1.54,1.04,.57,2.05,1.19,3.03,1.85s1.93,1.39,2.83,2.15c.91,.77,1.78,1.57,2.61,2.42,.83,.85,1.62,1.74,2.37,2.67,.74,.93,1.44,1.89,2.1,2.89s1.26,2.03,1.81,3.09c.56,1.06,1.06,2.15,1.51,3.26,.45,1.11,.84,2.24,1.19,3.39,.34,1.15,.63,2.32,.85,3.49,.23,1.18,.41,2.37,.52,3.57s.17,2.4,.17,3.6Z"/><path class="cls-5" d="M113.8,0V209.95c0,9.26,7.45,16.72,16.71,16.72s16.71-7.46,16.71-16.72V0h-33.42Z"/><path class="cls-5" d="M113.8,416.67V206.72c0-9.26,7.45-16.72,16.71-16.72s16.71,7.46,16.71,16.72v209.95h-33.42Z"/><path class="cls-4" d="M141.91,210.45c0,.77-.07,1.52-.22,2.27s-.36,1.48-.65,2.19c-.28,.7-.64,1.38-1.05,2.01-.41,.64-.89,1.23-1.42,1.77-.53,.54-1.1,1.03-1.72,1.45-.63,.43-1.28,.79-1.97,1.08-.69,.29-1.4,.52-2.14,.66-.73,.15-1.47,.22-2.22,.22s-1.49-.07-2.22-.22c-.73-.15-1.45-.37-2.14-.66-.69-.29-1.34-.65-1.97-1.08-.62-.42-1.2-.91-1.72-1.45-.53-.54-1.01-1.13-1.42-1.77-.41-.64-.77-1.31-1.05-2.01-.29-.71-.5-1.44-.65-2.19s-.22-1.51-.22-2.27,.07-1.52,.22-2.27,.36-1.48,.65-2.19c.29-.7,.64-1.38,1.06-2.01s.89-1.22,1.42-1.77c.53-.54,1.1-1.03,1.72-1.45,.63-.43,1.28-.79,1.97-1.08,.69-.29,1.41-.52,2.14-.66,.73-.15,1.47-.22,2.22-.22s1.49,.07,2.22,.22c.73,.15,1.44,.37,2.14,.66s1.35,.65,1.97,1.08c.62,.42,1.2,.91,1.72,1.45,.53,.54,1.01,1.13,1.42,1.77,.42,.64,.77,1.31,1.05,2.01,.29,.71,.51,1.44,.65,2.19s.22,1.51,.22,2.27Z"/></g></svg>