<?xml version="1.0" encoding="utf-8"?>
<!-- Generator: Adobe Illustrator 27.0.0, SVG Export Plug-In . SVG Version: 6.00 Build 0)  -->
<svg version="1.1" id="Layer_1" xmlns="http://www.w3.org/2000/svg" xmlns:xlink="http://www.w3.org/1999/xlink" x="0px" y="0px"
	 viewBox="0 0 1000 1000" style="enable-background:new 0 0 1000 1000;" xml:space="preserve">
<style type="text/css">
	.st0{fill:#3952A4;}
	.st1{fill:#ED2183;}
</style>
<g>
	<path class="st0" d="M444,501.4c-1.4-10.6,4.7-26.6-15.3-27.2c-1.5,0-3-0.7-4.4-0.5c-27.2,3.8-39.2-12-45-35
		c-0.8-3.1-0.3-7.7,1.6-10.2c7.4-9.7,15.1-19.1,23.5-27.9c5.4-5.7,6.5-9.6,0.7-15.8c-21-22.7-23.5-22.9-47.3-2.7
		c-5.1,4.4-12.2,11.6-16.7,10.5c-12.1-2.8-24.4-7.9-34.4-15c-4.2-3-3-13.6-4.2-20.7c-0.5-2.9-0.7-5.8-1.1-8.7
		c-3.6-22.3-15.9-29.1-37.5-20.1c-2.6,1.1-5.1,4.6-5.9,7.4c-1.7,6.1-3.1,12.5-3,18.7c0.2,15.8-3.7,24.7-21.4,31.7
		c-21.8,8.7-32.6-3.3-44.7-13.8c-16.3-14.2-15.5-15.1-30.5,1.3c-4.3,4.7-8.5,9.4-13.5,14.8c8.4,10.4,16.4,20.7,24.8,30.5
		c4.9,5.8,7.8,11.1,1.1,17.4c-0.3,0.3-0.7,0.8-0.7,1.3c-3.3,27.2-24.1,31-45.2,31.6c-12.8,0.4-18.5,5.3-20.8,16.5
		c2.7,8.4,5.4,16.7,8.2,25.1c4.3,0.7,8.8,2.3,13,1.9c27-3.2,39.7,10.7,43.6,35.2c0.6,3.8,1,9.1-1,11.6
		c-9.2,11.2-19.4,21.5-29.2,32.2c0.9,2.8,1.8,5.6,2.7,8.4c4.1,3.1,9.2,5.6,12.2,9.6c9.8,13,19.6,11.7,30.3,1.3
		c0.7-0.7,1.7-1.1,2.4-1.7c22.5-18.4,25.3-19,50.6-4.7c4.2,2.4,7,8.4,8.9,13.3c1.8,4.9,1.7,10.5,2.4,15.8
		c4.7,36.9,5.4,24.7,35.3,24.7c3.2,0,8.3-7.3,9.4-11.9c3-12.6,0.3-28.8,7.5-37.5c6.7-8.2,23-8.8,37.4-13.4
		c7.8,6.6,18.3,14.6,27.6,23.7c6.6,6.4,12.3,7.3,18.9,1c7-6.8,13.8-13.8,21.5-21.6c-11-13.7-21.6-26.8-31.2-38.8
		c4.4-10.4,7.8-19.9,12.3-28.7c1.9-3.7,5.9-8,9.7-9c10.4-2.7,21.3-5.3,32-5.2C440.4,517,445.4,511.6,444,501.4z M274.2,541.9
		c-27.5,0-49.8-22.3-49.8-49.8s22.3-49.8,49.8-49.8s49.8,22.3,49.8,49.8S301.7,541.9,274.2,541.9z"/>
	<path class="st1" d="M851,485.1c0.5-3.5,5.1-7.5,8.9-9.4c11.8-5.8,24-10.7,36.1-15.9c-3.9-12.1-7.9-24.2-11.8-36.3
		c-15.5,1.7-31.1,3.4-45.5,5c-7-12.1-13.7-22.8-19.3-34.1c-1.5-3-1.2-8.6,0.7-11.4c7.5-10.9,15.9-21.1,24.3-31.9
		c-0.4-0.8-1-2.1-1.8-3.1c-24.4-29.1-24.6-29.3-54.1-4.1c-6.9,5.9-11.7,6.7-19,1.3c-10.2-7.4-21.4-13.6-32.1-20.3
		c2.1-12.4,3.8-24.9,6.4-37.2c1.9-9-2.4-12.5-10.1-14.2c-8.6-1.9-17.2-3.9-27.7-6.3c-4.1,10.4-8.9,21.4-12.9,32.7
		c-3,8.6-7.5,13.5-17.4,10.9c-2.8-0.7-6-1.2-8.8-0.6c-23.3,4.5-34.2-6.1-39.8-28c-5-19.8-6.7-19.4-26.6-13.3
		c-6.1,1.9-12.1,3.9-18.5,6c1.6,16.2,3.1,31.5,4.6,46.3c-14,8.1-27.1,15.8-41.2,23.9c-7.4-5.9-16.1-11.5-23.2-18.6
		c-9.4-9.3-18-9.5-27.3-0.6c-5.6,5.4-11,11-17,17.1c8.5,11.1,17,21.1,24,31.9c2.3,3.6,3.1,10.6,1.1,14.1
		c-6.5,11.8-14.6,22.7-22.4,34.4c-10.5-2.2-22.2-3.8-33.3-7.3c-11.9-3.7-16.5,1.8-18.8,11.8c-1.9,8-3.4,16.1-5.4,26.2
		c9.1,3.6,18.4,7.5,27.8,10.9c9.9,3.6,17.1,7.8,15.5,20.7c-1.5,11.4-0.3,23.2-0.3,36.1c-14.8,4.8-29.7,9.6-46.8,15.2
		c2.9,12.1,5,23.5,8.8,34.2c1,2.8,8.4,6.3,11,5.2c29.1-12.4,46.4-1.9,55.8,26.2c1,3,3.8,5.5,6.7,9.6c-7.8,8.8-14.7,18.3-23.3,25.9
		c-9.5,8.5-8.3,15,0,22.9c21.4,20.4,21.5,20.8,43.9,0.4c9.3-8.4,14.2-10.2,28.7-3.2c27.1,13.1,30.3,28.7,20.4,52.9
		c-1.4,3.4-0.9,7.5-1.3,11.8c13.6,4,26.5,7.8,39.4,11.5c6.7-15.6,13-30.3,19.2-44.9c14.7,0.4,28.9,0.4,42.9,1.7
		c3.5,0.3,8.3,4.4,9.7,7.9c4.5,11.2,7.8,22.9,11.7,35c4.9-0.9,8.2-1.6,11.4-2.2c39.7-7.7,30.3-3.4,24.4-38.9
		c-1.7-10.2-2-16.1,9.5-20.1c10.5-3.7,20.1-10.1,33.2-16.9c10.4,8.2,22.8,18.1,36.1,28.7c8.9-7.7,18.6-15,26.7-23.8
		c1.9-2.1-0.3-10.2-3-13.8c-6.9-9.4-15-17.8-23.2-27.2c8.5-13.5,17.1-27.1,26.2-41.5c15.2,2.1,31,4.3,47.9,6.6
		c3.8-12.5,7.4-24.6,11.6-38.3c-14.8-6.1-30-12.4-45.5-18.7C848.8,513.8,849.1,499.3,851,485.1z M657.4,576.4
		c-42.2,0-76.4-34.2-76.4-76.4c0-42.2,34.2-76.4,76.4-76.4c42.2,0,76.4,34.2,76.4,76.4C733.9,542.2,699.7,576.4,657.4,576.4z"/>
</g>
</svg>
