<?xml version="1.0" encoding="utf-8"?>
<!-- Generator: Adobe Illustrator 27.0.0, SVG Export Plug-In . SVG Version: 6.00 Build 0)  -->
<svg version="1.1" id="SvgjsSvg1134" xmlns:svgjs="http://svgjs.com/svgjs"
	 xmlns="http://www.w3.org/2000/svg" xmlns:xlink="http://www.w3.org/1999/xlink" x="0px" y="0px" viewBox="0 0 243.2 166.7"
	 style="enable-background:new 0 0 243.2 166.7;" xml:space="preserve">
<style type="text/css">
	.st0{fill:#666666;stroke:#000000;stroke-width:0.2835;stroke-miterlimit:11.3386;}
	.st1{fill:#3D3D3D;stroke:#000000;stroke-width:0.2835;stroke-miterlimit:11.3386;}
</style>
<g id="SvgjsG1138">
</g>
<g id="SvgjsG1143">
</g>
<path class="st0" d="M104.5,80.9l-0.9-0.6l-1-0.6l-0.9-0.6l-0.9-0.5l-0.9-0.4l-0.8-0.4l-0.8-0.3l-0.7-0.3L96.9,77l-1.2-0.3l-1-0.1
	l-0.8,0l-0.4,0L92.1,77l-0.8,0.2l-0.7,0.1l-0.7,0.1l-0.6,0l-0.6-0.1l-0.5-0.1l-0.5-0.2l-0.4-0.2l-0.3-0.3l-0.2-0.3l-0.2-0.4L85.9,74
	l-0.3-0.8l-0.3-0.8l-0.8-1.8l-0.1-0.4l0-0.4l0.1-0.4l0.2-0.4l0.2-0.4l0.3-0.4l0.4-0.4l0.5-0.4l0.6-0.4l0.7-0.4l0.7-0.3l1.4-0.5
	l0.3-0.3l0.5-0.5l0.7-0.7l0.8-1l0.4-0.6l0.4-0.7l0.4-0.7l0.4-0.8l0.4-0.9l0.4-1l0.4-1l0.3-1.1l0.3-1.1c-1-1.3-2-2.5-3.1-3.7L91,51.6
	l-1.2,0.1l-1.1,0.2l-1,0.2l-0.9,0.2l-0.9,0.3l-0.8,0.3l-0.7,0.3l-0.7,0.3l-1.1,0.6l-0.9,0.5l-0.6,0.4l-0.3,0.3L80,56.5l-0.5,0.7
	l-0.5,0.6l-0.5,0.5l-0.5,0.4L77.6,59l-0.5,0.2l-0.5,0.2l-0.4,0.1l-0.4,0l-0.4-0.1L75,59.2l-1.7-1.1l-0.7-0.4l-0.7-0.4l-1.8-0.9
	l-0.3-0.2l-0.3-0.3l-0.2-0.4l-0.2-0.4l-0.1-0.5l0-0.5l0-0.6l0.1-0.6l0.2-0.7l0.3-0.7l0.3-0.7l0.7-1.3l0.1-0.4l0.1-0.7l0-1L70.8,46
	l-0.1-0.7l-0.1-0.8l-0.2-0.8l-0.2-0.9L70,41.8l-0.3-1l-0.4-1l-0.5-1.1l-0.5-1c-1.6-0.4-3.1-0.6-4.7-0.8l-0.8,0.8L62,38.5l-0.7,0.8
	l-0.6,0.8L60,41l-0.5,0.8l-0.4,0.7l-0.4,0.7l-0.3,0.6l-0.5,1.2l-0.3,1l-0.2,0.7L57.3,47l0.3,1.5l0.1,0.8l0,0.8l-0.1,0.7l-0.1,0.6
	L57.3,52l-0.2,0.5l-0.3,0.4l-0.3,0.3l-0.3,0.3l-0.3,0.2l-0.4,0.1l-2,0.2l-0.8,0.1l-0.8,0.2l-1.9,0.5l-0.4,0l-0.4-0.1l-0.4-0.1
	l-0.4-0.2L48,54.1l-0.4-0.4l-0.4-0.5l-0.3-0.6L46.6,52l-0.3-0.7l-0.2-0.8L45.9,49l-0.2-0.3L45.3,48l-0.6-0.8l-0.9-0.9l-0.5-0.5
	l-0.6-0.5L42,44.8l-0.7-0.5l-0.8-0.5l-0.9-0.5l-1-0.5l-1-0.5l-1-0.4c-1.4,0.7-2.8,1.5-4.2,2.4l-0.1,1.1l-0.1,1.2l0,1.1l0,1l0.1,1
	l0.1,0.9l0.1,0.8l0.1,0.8l0.2,0.7l0.4,1.2l0.4,0.9l0.3,0.7l0.2,0.3l1.2,1l0.6,0.6l0.5,0.6l0.4,0.6l0.3,0.6l0.2,0.5l0.2,0.5l0.1,0.5
	l0,0.4l-0.1,0.4l-0.1,0.4l-0.2,0.3l-1.4,1.5l-0.6,0.6L34.6,65l-1.2,1.6l-0.3,0.3L32.8,67l-0.4,0.1l-0.4,0.1l-0.5,0l-0.5-0.1
	l-0.6-0.1l-0.6-0.2l-0.6-0.3l-0.7-0.4l-0.7-0.5l-1.2-1l-0.4-0.1l-0.7-0.2l-1-0.2L23.3,64l-0.7,0l-0.8,0l-0.8,0L20,64.1l-1,0.1
	l-1,0.2l-1.1,0.2l-1.1,0.3l-1.1,0.3c-0.6,1.5-1.2,3-1.6,4.5l0.6,0.9l0.7,0.9l0.7,0.9l0.7,0.8l0.7,0.7l0.7,0.6l0.6,0.6l0.6,0.5
	l0.6,0.4l1.1,0.7l0.9,0.5l0.7,0.3l0.4,0.1l1.5,0l0.8,0.1l0.7,0.1l0.7,0.2l0.6,0.2l0.5,0.3l0.5,0.3l0.4,0.3l0.3,0.3l0.2,0.4l0.1,0.4
	l0,0.4l-0.1,2l0,0.9l0,0.9l0.1,2l0,0.4L28.2,87L28,87.3l-0.3,0.3L27.3,88l-0.5,0.3l-0.5,0.3l-0.6,0.2L25,88.9l-0.7,0.1l-0.8,0.1
	l-1.5,0l-0.4,0.1l-0.7,0.3L20,90.1L19,90.7l-0.6,0.4l-0.6,0.5l-0.6,0.6l-0.7,0.6l-0.7,0.7l-0.7,0.8l-0.7,0.9l-0.7,0.9l-0.6,0.9
	c0.5,1.5,1,3,1.6,4.5l1.1,0.3l1.1,0.3l1.1,0.2l1,0.2l1,0.1l0.9,0.1l0.8,0l0.8,0l0.7,0l1.2-0.2l1-0.2l0.7-0.2l0.4-0.1l1.2-1l0.7-0.5
	l0.7-0.4l0.6-0.3l0.6-0.2l0.6-0.1l0.5-0.1l0.5,0l0.4,0.1l0.4,0.1l0.3,0.2l0.3,0.3l1.2,1.6l0.5,0.7l0.6,0.6l1.4,1.5l0.2,0.3l0.1,0.4
	l0.1,0.4l0,0.4l-0.1,0.5l-0.2,0.5l-0.2,0.5l-0.3,0.6l-0.4,0.6l-0.5,0.6l-0.6,0.6l-1.2,1l-0.2,0.3l-0.3,0.7l-0.4,0.9l-0.4,1.2
	l-0.2,0.7l-0.1,0.8l-0.1,0.8l-0.1,0.9l-0.1,1l0,1l0,1.1l0.1,1.2l0.1,1.1c1.3,0.9,2.7,1.7,4.2,2.4l1-0.4l1-0.5l1-0.5l0.9-0.5l0.8-0.5
	l0.7-0.5l0.7-0.5l0.6-0.5l0.5-0.5l0.9-0.9l0.6-0.8l0.4-0.6l0.2-0.3l0.3-1.5l0.2-0.8l0.3-0.7l0.3-0.6l0.3-0.6l0.4-0.5l0.4-0.4
	l0.4-0.3l0.4-0.2l0.4-0.1l0.4-0.1l0.4,0l1.9,0.5l0.8,0.2l0.8,0.1l2,0.2l0.4,0.1l0.3,0.2l0.3,0.3l0.3,0.3l0.3,0.4l0.2,0.5l0.2,0.6
	l0.1,0.6l0.1,0.7l0,0.8l-0.1,0.8l-0.3,1.5l0.1,0.4l0.2,0.7l0.3,1l0.5,1.2l0.3,0.6l0.4,0.7l0.4,0.7l0.5,0.8l0.6,0.8l0.6,0.8l0.7,0.8
	l0.8,0.8l0.8,0.8c1.6-0.2,3.2-0.5,4.7-0.8l0.5-1l0.5-1.1l0.4-1l0.3-1l0.3-0.9l0.2-0.9l0.2-0.8l0.1-0.8l0.1-0.7l0.1-1.3l0-1l-0.1-0.7
	l-0.1-0.4L70,116l-0.3-0.7l-0.3-0.7l-0.2-0.7l-0.1-0.6l0-0.6l0-0.5l0.1-0.5l0.2-0.4l0.2-0.4l0.3-0.3l0.3-0.2l1.8-0.9l0.7-0.4
	l0.7-0.4l1.7-1.1l0.4-0.2l0.4-0.1l0.4,0l0.4,0.1l0.5,0.2l0.5,0.2l0.5,0.3l0.5,0.4l0.5,0.5l0.5,0.6l0.5,0.7l0.8,1.3l0.3,0.3l0.6,0.4
	l0.9,0.5l1.1,0.6l0.7,0.3l0.7,0.3l0.8,0.3l0.9,0.3l0.9,0.2l1,0.2l1.1,0.2l1.2,0.1l1.1,0.1c1.1-1.2,2.1-2.4,3.1-3.7l-0.3-1.1
	l-0.3-1.1l-0.4-1l-0.4-1l-0.4-0.9l-0.4-0.8l-0.4-0.7l-0.4-0.7l-0.4-0.6l-0.8-1l-0.7-0.7l-0.5-0.5l-0.3-0.3l-1.4-0.5l-0.7-0.3
	l-0.7-0.4l-0.6-0.4L85.7,99l-0.4-0.4l-0.3-0.4l-0.2-0.4l-0.2-0.4l-0.1-0.4l0-0.4l0.1-0.4l0.8-1.8l0.3-0.8l0.3-0.8l0.6-1.9l0.2-0.4
	l0.2-0.3l0.3-0.3l0.4-0.2l0.5-0.2l0.5-0.1l0.6-0.1l0.6,0l0.7,0.1l0.7,0.1l0.8,0.2l1.4,0.5l0.4,0l0.8,0l1-0.1l1.2-0.3l0.7-0.2
	l0.7-0.3l0.8-0.3l0.8-0.4l0.9-0.4l0.9-0.5l0.9-0.6l1-0.6l0.9-0.6C104.6,84.1,104.6,82.5,104.5,80.9z M57.8,89
	c-3.1,0-5.7-2.5-5.7-5.7c0-3.1,2.5-5.7,5.7-5.7c3.1,0,5.7,2.5,5.7,5.7C63.5,86.5,61,89,57.8,89z"/>
<path class="st1" d="M232.1,80.5l-1.4-0.8l-1.4-0.7l-1.3-0.6l-1.2-0.5l-1.1-0.4l-1.1-0.4l-1-0.3l-0.9-0.2l-0.8-0.2l-1.3-0.2l-0.9,0
	l-0.4,0l-0.6,0.1l-0.9,0.1l-0.8,0l-0.7-0.1l-0.6-0.2l-0.5-0.2l-0.4-0.3l-0.2-0.1l-0.1-0.2l-0.1-0.2l-0.1-0.3l-0.3-1.8l-0.3-1.3
	l-0.3-1.3l-0.4-1.7l0-0.3l0-0.2l0.1-0.2l0.1-0.2l0.3-0.4l0.4-0.4l0.5-0.4l0.6-0.4l0.8-0.3l0.9-0.3l0.5-0.2l0.4-0.2l0.8-0.4l1.1-0.7
	l0.7-0.5l0.7-0.6l0.8-0.7l0.8-0.8l0.9-0.9l0.9-1l0.9-1.1l0.9-1.2l0.9-1.3c-0.7-1.7-1.4-3.4-2.3-5.1l-1.6-0.2l-1.5-0.1l-1.4,0l-1.3,0
	l-1.2,0.1l-1.1,0.1l-1,0.1l-0.9,0.2l-0.8,0.2l-1.2,0.4l-0.8,0.3l-0.4,0.2l-0.5,0.3l-0.8,0.5l-0.8,0.3l-0.7,0.2L208,54l-0.6,0
	l-0.5-0.1l-0.2-0.1l-0.2-0.1l-0.2-0.1l-0.2-0.2l-1-1.5l-0.8-1.1l-0.8-1l-1.1-1.4l-0.1-0.2l-0.1-0.2l0-0.2l0-0.2l0.1-0.5l0.2-0.5
	l0.3-0.6l0.4-0.6l0.6-0.6l0.7-0.6l0.4-0.4l0.3-0.3l0.5-0.7l0.7-1.1l0.4-0.7l0.4-0.8l0.4-0.9l0.4-1l0.4-1.1l0.4-1.3l0.4-1.4l0.4-1.5
	l0.3-1.6c-1.3-1.3-2.7-2.5-4.1-3.7l-1.5,0.5l-1.4,0.5l-1.3,0.5l-1.2,0.6l-1.1,0.6l-1,0.5l-0.9,0.5L197,32l-0.6,0.5l-1,0.8l-0.6,0.6
	l-0.3,0.3l-0.3,0.5l-0.6,0.8l-0.6,0.6l-0.6,0.5l-0.5,0.4l-0.5,0.2l-0.5,0.1l-0.2,0l-0.2,0l-0.2,0l-0.2-0.1l-1.5-1l-1.1-0.7l-1.1-0.6
	l-1.6-0.8l-0.2-0.2l-0.1-0.1l-0.1-0.2l-0.1-0.2l-0.1-0.5l0-0.6l0.1-0.6l0.2-0.7l0.3-0.8l0.4-0.9l0.2-0.5l0.1-0.4l0.2-0.8l0.2-1.3
	l0.1-0.8l0.1-0.9l0-1l0-1.1l-0.1-1.2l-0.1-1.3l-0.2-1.4l-0.3-1.5l-0.3-1.6c-1.7-0.6-3.5-1.2-5.3-1.7l-1.2,1.1l-1.1,1.1l-1,1l-0.9,1
	l-0.8,1l-0.7,0.9l-0.6,0.8l-0.5,0.8l-0.4,0.7l-0.6,1.2l-0.3,0.8l-0.1,0.4l-0.1,0.5l-0.2,0.9l-0.3,0.8l-0.3,0.7l-0.3,0.6l-0.4,0.4
	l-0.4,0.3l-0.2,0.1l-0.2,0.1l-0.2,0l-0.3,0l-1.8-0.3l-1.3-0.2l-1.3-0.1l-1.8-0.1l-0.3-0.1l-0.2-0.1L162,28l-0.2-0.1l-0.3-0.4
	l-0.3-0.5l-0.2-0.6l-0.2-0.7l-0.1-0.8l0-0.9l0-0.6l0-0.4l-0.1-0.9l-0.3-1.3L160,20l-0.3-0.8l-0.4-0.9l-0.5-1l-0.6-1.1l-0.7-1.2
	l-0.8-1.2l-0.9-1.3l-1-1.3c-1.9,0.1-3.7,0.3-5.5,0.6l-0.7,1.4l-0.6,1.4l-0.5,1.3l-0.4,1.3l-0.3,1.2l-0.2,1.1l-0.2,1l-0.1,0.9
	l-0.1,0.8l0,1.3l0,0.9l0.1,0.4l0.1,0.5l0.2,0.9l0.1,0.8l0,0.7l-0.1,0.6l-0.2,0.5l-0.2,0.4l-0.1,0.2l-0.1,0.1l-0.2,0.1l-0.3,0.1
	l-1.7,0.5l-1.2,0.4l-1.2,0.4l-1.7,0.6l-0.3,0.1l-0.2,0l-0.2,0l-0.2-0.1l-0.4-0.2l-0.4-0.3l-0.4-0.5l-0.4-0.6l-0.4-0.7l-0.4-0.9
	l-0.2-0.5l-0.2-0.4l-0.5-0.7l-0.8-1l-0.5-0.6l-0.6-0.6l-0.7-0.7l-0.8-0.7l-1-0.8l-1.1-0.8l-1.2-0.8l-1.3-0.8l-1.4-0.8
	c-1.6,0.9-3.3,1.8-4.8,2.8l0,1.6l0,1.5l0.1,1.4l0.2,1.3l0.2,1.2l0.2,1.1l0.2,1l0.3,0.9l0.3,0.8l0.5,1.2l0.4,0.8l0.2,0.4l0.3,0.4
	l0.5,0.8l0.4,0.7l0.3,0.7l0.2,0.6l0.1,0.6l0,0.5l-0.1,0.2l-0.1,0.2l-0.1,0.2l-0.2,0.2l-1.4,1.1l-1,0.9l-1,0.9l-1.3,1.2l-0.2,0.2
	l-0.2,0.1l-0.2,0.1l-0.2,0l-0.5,0l-0.5-0.1l-0.6-0.2l-0.6-0.4l-0.7-0.5l-0.7-0.6l-0.4-0.4l-0.4-0.3l-0.7-0.5l-1.1-0.6l-0.7-0.3
	l-0.8-0.3l-1-0.3l-1.1-0.3l-1.2-0.3l-1.3-0.3l-1.4-0.3l-1.5-0.2l-1.6-0.1c-1.2,1.5-2.2,3-3.3,4.5l0.6,1.5l0.7,1.4l0.7,1.3l0.7,1.1
	l0.7,1l0.6,0.9l0.6,0.8l0.6,0.7l0.5,0.6l0.9,0.9l0.7,0.5l0.4,0.3l0.5,0.3l0.8,0.5l0.7,0.5l0.6,0.5l0.4,0.5l0.3,0.5l0.2,0.4l0,0.2
	l0,0.2l0,0.2l-0.1,0.3l-0.8,1.6l-0.5,1.2l-0.5,1.2l-0.7,1.7l-0.1,0.2l-0.1,0.1l-0.2,0.1l-0.2,0.1l-0.4,0.2l-0.6,0.1l-0.6,0l-0.7-0.1
	l-0.8-0.2l-0.9-0.3l-0.5-0.2l-0.4-0.1l-0.9-0.1l-1.3-0.1l-0.8,0l-0.9,0l-1,0.1l-1.1,0.1L95.5,64l-1.3,0.3l-1.4,0.3l-1.5,0.4
	l-1.5,0.5c-0.5,1.8-0.8,3.6-1.2,5.5l1.2,1.1l1.2,1l1.1,0.9l1.1,0.8l1,0.7l1,0.6l0.9,0.5l0.8,0.4l0.7,0.3l1.2,0.4l0.8,0.2l0.4,0.1
	l0.6,0l0.9,0.1l0.8,0.2l0.7,0.2l0.6,0.3l0.5,0.3l0.3,0.3l0.1,0.2l0.1,0.2l0.1,0.2l0,0.3l-0.1,1.8l0,1.3l0,1.3l0.1,1.8l0,0.3
	l-0.1,0.2l-0.1,0.2l-0.1,0.2l-0.3,0.3l-0.5,0.3l-0.6,0.3l-0.7,0.2l-0.8,0.2l-0.9,0.1l-0.6,0l-0.4,0.1L98.8,89l-1.2,0.4l-0.7,0.3
	l-0.8,0.4l-0.9,0.5l-1,0.6l-1,0.7l-1.1,0.8L91,93.6l-1.2,1l-1.2,1.1c0.3,1.8,0.7,3.7,1.2,5.5l1.5,0.5l1.5,0.4l1.4,0.3l1.3,0.3
	l1.2,0.2l1.1,0.1l1,0.1l0.9,0l0.8,0l1.3-0.1l0.9-0.1l0.4-0.1l0.5-0.2l0.9-0.3l0.8-0.2l0.7-0.1l0.6,0l0.6,0.1l0.4,0.2l0.2,0.1
	l0.2,0.1l0.1,0.1l0.1,0.2l0.7,1.7l0.5,1.2l0.5,1.2l0.8,1.6l0.1,0.3l0,0.2l0,0.2l0,0.2l-0.2,0.4l-0.3,0.5l-0.4,0.5l-0.6,0.5l-0.7,0.5
	l-0.8,0.5l-0.5,0.3l-0.4,0.3l-0.7,0.5l-0.9,0.9l-0.5,0.6l-0.6,0.7l-0.6,0.8l-0.6,0.9l-0.7,1l-0.7,1.1l-0.7,1.3l-0.7,1.4l-0.6,1.5
	c1,1.5,2.1,3.1,3.3,4.5l1.6-0.1l1.5-0.2l1.4-0.3l1.3-0.3l1.2-0.3l1.1-0.3l1-0.3l0.8-0.3l0.7-0.3l1.1-0.6l0.7-0.5l0.4-0.3l0.4-0.4
	l0.7-0.6l0.7-0.5l0.6-0.4l0.6-0.2l0.5-0.1l0.5,0l0.2,0l0.2,0.1l0.2,0.1l0.2,0.2l1.3,1.2l1,0.9l1,0.9l1.4,1.1l0.2,0.2l0.1,0.2
	l0.1,0.2l0.1,0.2l0,0.5l-0.1,0.6l-0.2,0.6l-0.3,0.7l-0.4,0.7l-0.5,0.8l-0.3,0.4l-0.2,0.4l-0.4,0.8l-0.5,1.2l-0.3,0.8l-0.3,0.9
	l-0.2,1l-0.2,1.1l-0.2,1.2l-0.2,1.3l-0.1,1.4l0,1.5l0,1.6c1.6,1,3.2,1.9,4.8,2.8l1.4-0.8l1.3-0.8l1.2-0.8l1.1-0.8l1-0.8l0.8-0.7
	l0.7-0.7l0.6-0.6l0.5-0.6l0.8-1l0.5-0.7l0.2-0.4l0.2-0.5l0.4-0.9l0.4-0.7l0.4-0.6l0.4-0.5l0.4-0.3l0.4-0.2l0.2-0.1l0.2,0l0.2,0
	l0.3,0.1l1.7,0.6l1.2,0.4l1.2,0.4l1.7,0.5l0.3,0.1l0.2,0.1l0.1,0.1l0.1,0.2l0.2,0.4l0.2,0.5l0.1,0.6l0,0.7l-0.1,0.8l-0.2,0.9
	l-0.1,0.5l-0.1,0.4l0,0.9l0,1.3l0.1,0.8l0.1,0.9l0.2,1l0.2,1.1l0.3,1.2l0.4,1.3l0.5,1.3l0.6,1.4l0.7,1.4c1.8,0.3,3.7,0.5,5.5,0.6
	l1-1.3l0.9-1.3l0.8-1.2l0.7-1.2l0.6-1.1l0.5-1l0.4-0.9l0.3-0.8l0.2-0.8l0.3-1.3l0.1-0.9l0-0.4l0-0.6l0-0.9l0.1-0.8l0.2-0.7l0.2-0.6
	l0.3-0.5l0.3-0.4l0.2-0.1l0.2-0.1l0.2-0.1l0.3-0.1l1.8-0.1l1.3-0.1l1.3-0.2l1.8-0.3l0.3,0l0.2,0l0.2,0.1l0.2,0.1l0.4,0.3l0.4,0.4
	l0.3,0.6l0.3,0.7l0.3,0.8l0.2,0.9l0.1,0.5l0.1,0.4l0.3,0.8l0.6,1.2l0.4,0.7l0.5,0.8l0.6,0.8l0.7,0.9l0.8,1l0.9,1l1,1l1.1,1.1
	l1.2,1.1c1.8-0.5,3.6-1.1,5.3-1.7l0.3-1.6l0.3-1.5l0.2-1.4l0.1-1.3l0.1-1.2l0-1.1l0-1l-0.1-0.9l-0.1-0.8l-0.2-1.3l-0.2-0.8l-0.1-0.4
	l-0.2-0.5l-0.4-0.9l-0.3-0.8l-0.2-0.7l-0.1-0.6l0-0.6l0.1-0.5l0.1-0.2l0.1-0.2l0.1-0.1l0.2-0.2l1.6-0.8l1.1-0.6l1.1-0.7l1.5-1
	l0.2-0.1l0.2,0l0.2,0l0.2,0l0.5,0.1l0.5,0.2l0.5,0.4l0.6,0.5l0.6,0.6l0.6,0.8l0.3,0.5l0.3,0.3l0.6,0.6l1,0.8l0.6,0.5l0.7,0.5
	l0.9,0.5l1,0.5l1.1,0.6l1.2,0.6l1.3,0.5l1.4,0.5l1.5,0.5c1.4-1.2,2.8-2.4,4.1-3.7l-0.3-1.6l-0.4-1.5l-0.4-1.4l-0.4-1.3l-0.4-1.1
	l-0.4-1l-0.4-0.9l-0.4-0.8l-0.4-0.7l-0.7-1.1l-0.5-0.7l-0.3-0.3l-0.4-0.4l-0.7-0.6l-0.6-0.6l-0.4-0.6l-0.3-0.6l-0.2-0.5l-0.1-0.5
	l0-0.2l0-0.2l0.1-0.2l0.1-0.2l1.1-1.4l0.8-1l0.8-1.1l1-1.5l0.2-0.2l0.2-0.1l0.2-0.1l0.2-0.1l0.5-0.1l0.6,0l0.6,0.1l0.7,0.2l0.8,0.3
	l0.8,0.5l0.5,0.3l0.4,0.2l0.8,0.3l1.2,0.4l0.8,0.2l0.9,0.2l1,0.1l1.1,0.1l1.2,0.1l1.3,0l1.4,0l1.5-0.1l1.6-0.2
	c0.8-1.7,1.6-3.4,2.3-5.1l-0.9-1.3l-0.9-1.2l-0.9-1.1l-0.9-1l-0.9-0.9l-0.8-0.8l-0.8-0.7l-0.7-0.6l-0.7-0.5l-1.1-0.7l-0.8-0.4
	l-0.4-0.2l-0.5-0.2l-0.9-0.3l-0.8-0.3l-0.6-0.4l-0.5-0.4l-0.4-0.4l-0.3-0.4l-0.1-0.2l-0.1-0.2l0-0.2l0-0.3l0.4-1.7l0.3-1.3l0.3-1.3
	l0.3-1.8l0.1-0.3l0.1-0.2l0.1-0.2l0.2-0.1l0.4-0.3l0.5-0.2l0.6-0.2l0.7-0.1l0.8,0l0.9,0.1l0.6,0.1l0.4,0l0.9,0l1.3-0.2l0.8-0.2
	l0.9-0.2l1-0.3l1.1-0.4l1.1-0.4l1.2-0.5l1.3-0.6l1.4-0.7l1.4-0.8C232.2,84.3,232.2,82.4,232.1,80.5z M159.9,89
	c-3.1,0-5.7-2.5-5.7-5.7c0-3.1,2.5-5.7,5.7-5.7c3.1,0,5.7,2.5,5.7,5.7C165.5,86.5,163,89,159.9,89z"/>
</svg>
