<?xml version="1.0" encoding="utf-8"?>
<!-- Generator: Adobe Illustrator 27.0.0, SVG Export Plug-In . SVG Version: 6.00 Build 0)  -->
<svg version="1.1" id="SvgjsSvg1078" xmlns:svgjs="http://svgjs.com/svgjs"
	 xmlns="http://www.w3.org/2000/svg" xmlns:xlink="http://www.w3.org/1999/xlink" x="0px" y="0px" viewBox="0 0 187.1 119.1"
	 style="enable-background:new 0 0 187.1 119.1;" xml:space="preserve">
<style type="text/css">
	.st0{fill:#3D3D3D;stroke:#000000;stroke-width:0.2835;stroke-miterlimit:11.3386;}
	.st1{fill:#666666;stroke:#000000;stroke-width:0.2835;stroke-miterlimit:11.3386;}
</style>
<g id="SvgjsG1082">
</g>
<g id="SvgjsG1087">
</g>
<path class="st0" d="M110.5,57l-0.9-0.6l-1-0.7l-1-0.6l-1-0.5l-0.9-0.4l-0.9-0.4l-0.8-0.3l-0.8-0.3l-0.7-0.2l-1.2-0.3l-1-0.1l-0.7,0
	l-0.4,0l-0.8,0.3l-0.8,0.2l-0.8,0.1l-0.7,0.1l-0.7,0l-0.6-0.1l-0.5-0.1L93.6,53l-0.4-0.2l-0.3-0.3l-0.2-0.3l-0.1-0.3l-0.3-1
	l-0.5-1.8l-0.6-1.8l-0.4-1L90.7,46l0-0.4l0.1-0.4l0.2-0.4l0.3-0.4l0.4-0.4l0.5-0.4l0.5-0.4l0.6-0.4l0.7-0.4l0.8-0.3l0.8-0.3l0.3-0.2
	l0.6-0.4l0.7-0.7l0.9-1l0.5-0.6l0.5-0.7l0.5-0.7l0.5-0.8l0.5-0.9l0.5-1l0.5-1.1l0.5-1.1l0.4-1c-0.9-1.4-1.9-2.7-2.9-4l-1.1,0
	L97,27.7l-1.2,0.1l-1.1,0.2l-1,0.2l-0.9,0.2l-0.9,0.2l-0.8,0.3l-0.7,0.3l-1.2,0.5l-0.9,0.5l-0.6,0.4l-0.3,0.2L87,31.4l-0.6,0.7
	l-0.6,0.6l-0.6,0.5l-0.6,0.4l-0.5,0.3l-0.5,0.2l-0.5,0.1l-0.5,0l-0.4,0L82,34.1l-0.3-0.2l-0.8-0.7l-1.5-1.1l-1.5-1.1L77,30.5
	l-0.3-0.2L76.5,30l-0.2-0.4l-0.1-0.4l0-0.5l0-0.6l0.1-0.6l0.2-0.6l0.3-0.7l0.4-0.7l0.5-0.7l0.5-0.7l0.1-0.3l0.2-0.7l0.2-1l0.1-1.3
	l0-0.7l0-0.8l0-0.9l-0.1-1l-0.1-1l-0.2-1.1l-0.2-1.1L78,12.9l-0.3-1c-1.6-0.6-3.1-1.1-4.7-1.5L72,10.9l-1,0.8l-0.9,0.8l-0.8,0.8
	L68.7,14l-0.6,0.7l-0.5,0.7l-0.5,0.7l-0.4,0.6L66,17.8l-0.4,0.9l-0.3,0.7l-0.1,0.3l0,0.9l-0.1,0.9l-0.1,0.8L64.9,23l-0.2,0.6
	l-0.3,0.6l-0.3,0.5l-0.3,0.4l-0.3,0.3l-0.4,0.2l-0.4,0.1l-0.4,0l-1-0.1l-1.9-0.1l-1.9,0.1l-1,0.1l-0.4,0l-0.4-0.1l-0.4-0.2l-0.3-0.3
	l-0.3-0.4l-0.3-0.5l-0.3-0.6L54.1,23L54,22.3l-0.1-0.8l-0.1-0.9l0-0.9l-0.1-0.3l-0.3-0.7L53,17.8l-0.6-1.1L52,16.1l-0.5-0.7
	l-0.5-0.7L50.3,14l-0.7-0.7l-0.8-0.8L48,11.7l-1-0.8l-0.9-0.7c-1.6,0.4-3.2,1-4.7,1.5l-0.3,1l-0.3,1.2l-0.2,1.1l-0.2,1.1l-0.1,1
	l-0.1,1l0,0.9l0,0.8l0,0.7l0.1,1.3l0.2,1l0.2,0.7l0.1,0.3l0.5,0.7l0.5,0.7l0.4,0.7l0.3,0.7l0.2,0.6l0.1,0.6l0,0.6l0,0.5l-0.1,0.4
	L42.5,30l-0.2,0.3L42,30.5l-0.9,0.5l-1.5,1.1l-1.5,1.1l-0.8,0.7L37,34.1l-0.4,0.1l-0.4,0l-0.5,0l-0.5-0.1l-0.5-0.2l-0.5-0.3
	l-0.6-0.4l-0.6-0.5l-0.6-0.6L32,31.4l-0.5-0.7l-0.3-0.2l-0.6-0.4l-0.9-0.5l-1.2-0.5l-0.7-0.3l-0.8-0.3l-0.9-0.2l-0.9-0.2l-1-0.2
	l-1.1-0.2l-1.2-0.1l-1.2-0.1l-1.1,0c-1,1.3-2,2.6-2.9,4l0.4,1l0.5,1.1l0.5,1.1l0.5,1l0.5,0.9l0.5,0.8l0.5,0.7l0.5,0.7l0.5,0.6l0.9,1
	l0.7,0.7l0.6,0.4l0.3,0.2l0.8,0.3l0.8,0.3l0.7,0.4l0.6,0.4l0.5,0.4l0.5,0.4l0.4,0.4l0.3,0.4l0.2,0.4l0.1,0.4l0,0.4l-0.1,0.4l-0.4,1
	l-0.6,1.8l-0.5,1.8l-0.3,1l-0.1,0.3l-0.2,0.3l-0.3,0.3L25.4,53L25,53.2l-0.5,0.1l-0.6,0.1l-0.7,0l-0.7-0.1l-0.8-0.1l-0.8-0.2
	l-0.8-0.3l-0.4,0l-0.7,0l-1,0.1l-1.2,0.3l-0.7,0.2l-0.8,0.3l-0.8,0.3l-0.9,0.4l-0.9,0.4l-1,0.5l-1,0.6l-1,0.7L8.6,57
	c-0.1,1.7-0.1,3.3,0,5l0.9,0.6l1,0.7l1,0.6l1,0.5l0.9,0.4l0.9,0.4l0.8,0.3l0.8,0.3l0.7,0.2l1.2,0.3l1,0.1l0.7,0l0.4,0l0.8-0.3
	l0.8-0.2l0.8-0.1l0.7-0.1l0.7,0l0.6,0.1l0.5,0.1l0.5,0.2l0.4,0.2l0.3,0.3l0.2,0.3l0.1,0.3l0.3,1l0.5,1.8l0.6,1.8l0.4,1l0.1,0.4
	l0,0.4l-0.1,0.4l-0.2,0.4l-0.3,0.4l-0.4,0.4L27,75.5l-0.5,0.4l-0.6,0.4l-0.7,0.4L24.3,77l-0.8,0.3l-0.3,0.2l-0.6,0.4l-0.7,0.7
	l-0.9,1l-0.5,0.6l-0.5,0.7l-0.5,0.7l-0.5,0.8l-0.5,0.9l-0.5,1l-0.5,1.1l-0.5,1.1l-0.4,1c0.9,1.4,1.9,2.7,2.9,4l1.1,0l1.2-0.1
	l1.2-0.1l1.1-0.2l1-0.2l0.9-0.2l0.9-0.2l0.8-0.3l0.7-0.3l1.2-0.5l0.9-0.5l0.6-0.4l0.3-0.2l0.5-0.7l0.6-0.7l0.6-0.6l0.6-0.5l0.6-0.4
	l0.5-0.3l0.5-0.2l0.5-0.1l0.5,0l0.4,0l0.4,0.1l0.3,0.2l0.8,0.7l1.5,1.1l1.5,1.1l0.9,0.5l0.3,0.2l0.2,0.3l0.2,0.4l0.1,0.4l0,0.5
	l0,0.6l-0.1,0.6l-0.2,0.6l-0.3,0.7l-0.4,0.7l-0.5,0.7l-0.5,0.7l-0.1,0.3l-0.2,0.7l-0.2,1l-0.1,1.3l0,0.7l0,0.8l0,0.9l0.1,1l0.1,1
	l0.2,1.1l0.2,1.1l0.3,1.2l0.3,1c1.6,0.6,3.1,1.1,4.7,1.5l0.9-0.7l1-0.8l0.9-0.8l0.8-0.8l0.7-0.7l0.6-0.7l0.5-0.7L52,103l0.4-0.6
	l0.6-1.1l0.4-0.9l0.3-0.7l0.1-0.3l0-0.9l0.1-0.9l0.1-0.8l0.2-0.7l0.2-0.6l0.3-0.6l0.3-0.5l0.3-0.4l0.3-0.3l0.4-0.2l0.4-0.1l0.4,0
	l1,0.1l1.9,0.1l1.9-0.1l1-0.1l0.4,0l0.4,0.1l0.4,0.2l0.3,0.3l0.3,0.4l0.3,0.5l0.3,0.6l0.2,0.6l0.2,0.7l0.1,0.8l0.1,0.9l0,0.9
	l0.1,0.3l0.3,0.7l0.4,0.9l0.6,1.1l0.4,0.6l0.5,0.7l0.5,0.7l0.6,0.7l0.7,0.7l0.8,0.8l0.9,0.8l1,0.8l0.9,0.7c1.6-0.4,3.2-1,4.7-1.5
	l0.3-1l0.3-1.2l0.2-1.1l0.2-1.1l0.1-1l0.1-1l0-0.9l0-0.8l0-0.7l-0.1-1.3l-0.2-1l-0.2-0.7l-0.1-0.3l-0.5-0.7l-0.5-0.7l-0.4-0.7
	l-0.3-0.7l-0.2-0.6L76.3,91l0-0.6l0-0.5l0.1-0.4l0.2-0.4l0.2-0.3l0.3-0.2l0.9-0.5l1.5-1.1l1.5-1.1l0.8-0.7l0.3-0.2l0.4-0.1l0.4,0
	l0.5,0l0.5,0.1l0.5,0.2l0.5,0.3l0.6,0.4l0.6,0.5l0.6,0.6l0.6,0.7l0.5,0.7l0.3,0.2l0.6,0.4l0.9,0.5l1.2,0.5l0.7,0.3l0.8,0.3l0.9,0.2
	l0.9,0.2l1,0.2l1.1,0.2l1.2,0.1l1.2,0.1l1.1,0c1-1.3,2-2.6,2.9-4l-0.4-1l-0.5-1.1l-0.5-1.1l-0.5-1l-0.5-0.9l-0.5-0.8L99,80.8
	l-0.5-0.7L98,79.5l-0.9-1l-0.7-0.7l-0.6-0.4l-0.3-0.2L94.8,77L94,76.7l-0.7-0.4l-0.6-0.4L92,75.5l-0.5-0.4l-0.4-0.4l-0.3-0.4
	l-0.2-0.4l-0.1-0.4l0-0.4l0.1-0.4l0.4-1l0.6-1.8l0.5-1.8l0.3-1l0.1-0.3l0.2-0.3l0.3-0.3l0.4-0.2l0.5-0.2l0.5-0.1l0.6-0.1l0.7,0
	l0.7,0.1l0.8,0.1l0.8,0.2l0.8,0.3l0.4,0l0.7,0l1-0.1l1.2-0.3l0.7-0.2l0.8-0.3l0.8-0.3l0.9-0.4l0.9-0.4l1-0.5l1-0.6l1-0.7l0.9-0.6
	C110.6,60.4,110.6,58.7,110.5,57z M59.5,65.2c-3.1,0-5.7-2.5-5.7-5.7c0-3.1,2.5-5.7,5.7-5.7c3.1,0,5.7,2.5,5.7,5.7
	C65.2,62.7,62.7,65.2,59.5,65.2z"/>
<path class="st1" d="M175.1,71.9l-0.6-0.9l-0.6-0.8l-0.6-0.7l-0.6-0.6l-0.6-0.6l-0.6-0.5l-0.5-0.5l-1-0.7l-0.9-0.5l-0.7-0.4
	l-0.6-0.2l-0.8,0l-0.8,0l-0.8-0.1l-0.7-0.1l-0.7-0.2l-0.6-0.2l-0.5-0.3l-0.5-0.3l-0.4-0.3l-0.3-0.3l-0.2-0.3l-0.2-0.4l-0.1-0.4
	l0-0.3l0.1-1.8l0-1l0-1l-0.1-1.8l0-0.3l0.1-0.4l0.2-0.4l0.2-0.3l0.3-0.3l0.4-0.3l0.5-0.3l0.5-0.3l0.6-0.2l0.7-0.2l0.7-0.1l0.8-0.1
	l0.8,0l0.8,0l0.6-0.2l0.7-0.4l0.9-0.5l1-0.7l0.5-0.5l0.6-0.5l0.6-0.6l0.6-0.6l0.6-0.7l0.6-0.8l0.6-0.9l0.6-0.9l0.5-0.9
	c-0.5-1.4-1.1-2.9-1.8-4.2l-1-0.3l-1.1-0.2l-1-0.2l-1-0.1l-0.9-0.1l-0.9,0l-0.8,0l-0.8,0l-0.7,0.1l-1.2,0.2l-1,0.2l-0.8,0.2
	l-0.6,0.2l-0.5,0.6l-0.6,0.6l-0.6,0.5l-0.6,0.4l-0.6,0.3l-0.6,0.3l-0.6,0.2l-0.5,0.1l-0.5,0.1l-0.5,0l-0.4-0.1l-0.4-0.1l-0.3-0.2
	l-0.2-0.2l-1.2-1.3l-0.7-0.7l-0.7-0.7l-1.3-1.2l-0.2-0.2l-0.2-0.3l-0.1-0.4l-0.1-0.4l0-0.5l0.1-0.5l0.1-0.5l0.2-0.6l0.3-0.6l0.3-0.6
	l0.4-0.6l0.5-0.6l0.6-0.6l0.6-0.5l0.2-0.6l0.2-0.8l0.2-1l0.2-1.2l0.1-0.7l0-0.8l0-0.8l0-0.9l-0.1-0.9l-0.1-1l-0.2-1l-0.2-1.1l-0.3-1
	c-1.4-0.7-2.8-1.2-4.2-1.8l-0.9,0.5l-0.9,0.6l-0.9,0.6l-0.8,0.6l-0.7,0.6l-0.6,0.6l-0.6,0.6l-0.5,0.6l-0.5,0.5l-0.7,1l-0.5,0.9
	l-0.4,0.7l-0.2,0.6l0,0.8l0,0.8l-0.1,0.8l-0.1,0.7l-0.2,0.7l-0.2,0.6l-0.3,0.5l-0.3,0.5l-0.3,0.4l-0.3,0.3l-0.3,0.2l-0.4,0.2
	l-0.4,0.1l-0.3,0l-1.8-0.1l-1,0l-1,0l-1.8,0.1l-0.3,0l-0.4-0.1l-0.4-0.2l-0.3-0.2l-0.3-0.3l-0.3-0.4l-0.3-0.5l-0.3-0.5l-0.2-0.6
	l-0.2-0.7l-0.1-0.7l-0.1-0.8l0-0.8l0-0.8l-0.2-0.6l-0.4-0.7l-0.5-0.9l-0.7-1l-0.5-0.5l-0.5-0.6l-0.6-0.6l-0.6-0.6l-0.7-0.6l-0.8-0.6
	l-0.9-0.6l-0.9-0.6l-0.9-0.5c-1.4,0.5-2.9,1.1-4.2,1.8l-0.3,1l-0.2,1.1l-0.2,1l-0.1,1l-0.1,0.9l0,0.9l0,0.8l0,0.8l0.1,0.7l0.2,1.2
	l0.2,1l0.2,0.8l0.2,0.6l0.6,0.5l0.6,0.6l0.5,0.6l0.4,0.6l0.3,0.6l0.3,0.6l0.2,0.6l0.1,0.5l0.1,0.5l0,0.5l-0.1,0.4l-0.1,0.4l-0.2,0.3
	l-0.2,0.2l-1.3,1.2l-0.7,0.7l-0.7,0.7l-1.2,1.3l-0.2,0.2l-0.3,0.2l-0.4,0.1l-0.4,0.1l-0.5,0l-0.5-0.1l-0.5-0.1l-0.6-0.2l-0.6-0.3
	l-0.6-0.3l-0.6-0.4l-0.6-0.5l-0.6-0.6l-0.5-0.6l-0.6-0.2l-0.8-0.2l-1-0.2l-1.2-0.2l-0.7-0.1l-0.8,0l-0.8,0l-0.9,0l-0.9,0.1l-1,0.1
	l-1,0.2l-1.1,0.2l-1,0.3c-0.7,1.4-1.2,2.8-1.8,4.2l0.5,0.9l0.6,0.9l0.6,0.9l0.6,0.8l0.6,0.7l0.6,0.6l0.6,0.6l0.6,0.5l0.5,0.5l1,0.7
	L103,53l0.7,0.4l0.6,0.2l0.8,0l0.8,0l0.8,0.1l0.7,0.1L108,54l0.6,0.2l0.5,0.3l0.5,0.3L110,55l0.3,0.3l0.2,0.3l0.2,0.4l0.1,0.4l0,0.3
	l-0.1,1.8l0,1l0,1l0.1,1.8l0,0.3l-0.1,0.4l-0.2,0.4l-0.2,0.3L110,64l-0.4,0.3l-0.5,0.3l-0.5,0.3l-0.6,0.2l-0.7,0.2l-0.7,0.1
	l-0.8,0.1l-0.8,0l-0.8,0l-0.6,0.2L103,66l-0.9,0.5l-1,0.7l-0.5,0.5l-0.6,0.5l-0.6,0.6l-0.6,0.6l-0.6,0.7L97.7,71l-0.6,0.9l-0.6,0.9
	L96,73.7c0.5,1.4,1.1,2.9,1.8,4.2l1,0.3l1.1,0.2l1,0.2l1,0.1l0.9,0.1l0.9,0l0.8,0l0.8,0l0.7-0.1l1.2-0.2l1-0.2l0.8-0.2l0.6-0.2
	l0.5-0.6l0.6-0.6l0.6-0.5l0.6-0.4l0.6-0.3l0.6-0.3l0.6-0.2l0.5-0.1l0.5-0.1l0.5,0l0.4,0.1l0.4,0.1l0.3,0.2l0.2,0.2l1.2,1.3l0.7,0.7
	l0.7,0.7l1.3,1.2l0.2,0.2l0.2,0.3l0.1,0.4l0.1,0.4l0,0.5l-0.1,0.5l-0.1,0.5l-0.2,0.6l-0.3,0.6l-0.3,0.6l-0.4,0.6l-0.5,0.6l-0.6,0.6
	l-0.6,0.5l-0.2,0.6l-0.2,0.8l-0.2,1l-0.2,1.2l-0.1,0.7l0,0.8l0,0.8l0,0.9l0.1,0.9l0.1,1l0.2,1l0.2,1.1l0.3,1
	c1.4,0.7,2.8,1.2,4.2,1.8l0.9-0.5l0.9-0.6l0.9-0.6l0.8-0.6l0.7-0.6l0.6-0.6l0.6-0.6l0.5-0.6l0.5-0.5l0.7-1l0.5-0.9l0.4-0.7l0.2-0.6
	l0-0.8l0-0.8l0.1-0.8l0.1-0.7l0.2-0.7l0.2-0.6l0.3-0.5l0.3-0.5l0.3-0.4l0.3-0.3l0.3-0.2l0.4-0.2l0.4-0.1l0.3,0l1.8,0.1l1,0l1,0
	l1.8-0.1l0.3,0l0.4,0.1l0.4,0.2l0.3,0.2l0.3,0.3l0.3,0.4l0.3,0.5l0.3,0.5l0.2,0.6l0.2,0.7l0.1,0.7l0.1,0.8l0,0.8l0,0.8l0.2,0.6
	l0.4,0.7l0.5,0.9l0.7,1l0.5,0.5l0.5,0.6l0.6,0.6l0.6,0.6l0.7,0.6l0.8,0.6l0.9,0.6l0.9,0.6l0.9,0.5c1.4-0.5,2.9-1.1,4.2-1.8l0.3-1
	l0.2-1.1l0.2-1l0.1-1l0.1-0.9l0-0.9l0-0.8l0-0.8l-0.1-0.7l-0.2-1.2l-0.2-1l-0.2-0.8l-0.2-0.6l-0.6-0.5l-0.6-0.6l-0.5-0.6l-0.4-0.6
	l-0.3-0.6l-0.3-0.6l-0.2-0.6l-0.1-0.5l-0.1-0.5l0-0.5l0.1-0.4l0.1-0.4l0.2-0.3l0.2-0.2l1.3-1.2l0.7-0.7l0.7-0.7l1.2-1.3l0.2-0.2
	l0.3-0.2l0.4-0.1l0.4-0.1l0.5,0l0.5,0.1l0.5,0.1l0.6,0.2l0.6,0.3l0.6,0.3l0.6,0.4l0.6,0.5l0.6,0.6l0.5,0.6l0.6,0.2l0.8,0.2l1,0.2
	l1.2,0.2l0.7,0.1l0.8,0l0.8,0l0.9,0l0.9-0.1l1-0.1l1-0.2l1.1-0.2l1-0.3c0.7-1.4,1.2-2.8,1.8-4.2l-0.5-0.9L175.1,71.9z M136.1,65.2
	c-3.1,0-5.7-2.5-5.7-5.7c0-3.1,2.5-5.7,5.7-5.7s5.7,2.5,5.7,5.7C141.7,62.7,139.2,65.2,136.1,65.2z"/>
</svg>
