<?xml version="1.0" encoding="utf-8"?>
<!-- Generator: Adobe Illustrator 27.0.0, SVG Export Plug-In . SVG Version: 6.00 Build 0)  -->
<svg version="1.1" id="SvgjsSvg1078" xmlns:svgjs="http://svgjs.com/svgjs"
	 xmlns="http://www.w3.org/2000/svg" xmlns:xlink="http://www.w3.org/1999/xlink" x="0px" y="0px" viewBox="0 0 205.8 137.8"
	 style="enable-background:new 0 0 205.8 137.8;" xml:space="preserve">
<style type="text/css">
	.st0{fill:#666666;stroke:#000000;stroke-width:0.2835;stroke-miterlimit:11.3386;}
	.st1{fill:#3D3D3D;stroke:#000000;stroke-width:0.2835;stroke-miterlimit:11.3386;}
</style>
<g id="SvgjsG1082">
</g>
<g id="SvgjsG1087">
</g>
<path class="st0" d="M94.3,66.6L93.5,66l-0.9-0.6l-0.9-0.6l-0.9-0.5l-0.8-0.4l-0.8-0.4l-0.8-0.3l-0.7-0.3l-0.7-0.2l-1.2-0.3l-1-0.2
	l-0.8-0.1l-0.6,0l-0.7,0.3L82,62.8L81.3,63l-0.7,0.2l-0.7,0.1l-0.6,0l-0.6,0l-0.5-0.1l-0.5-0.1l-0.4-0.2l-0.4-0.2l-0.3-0.3l-0.2-0.3
	l-0.1-0.3l-0.6-1.7l-0.4-0.9l-0.4-0.9l-0.8-1.6L74,56.4L74,56l0-0.4l0.1-0.4l0.2-0.4l0.2-0.4l0.3-0.4l0.4-0.4l0.5-0.4l0.5-0.4
	l0.6-0.4l0.7-0.4l0.8-0.3l0.8-0.3l0.4-0.4l0.5-0.6l0.6-0.8l0.6-1.1l0.3-0.6l0.3-0.7l0.3-0.8l0.3-0.8l0.3-0.9l0.3-1l0.2-1l0.2-1.1
	l0.1-1c-1-1.1-2.1-2.2-3.3-3.3l-1,0.1l-1.1,0.2l-1,0.2l-1,0.3l-0.9,0.3l-0.8,0.3l-0.8,0.3l-0.7,0.3l-0.6,0.3l-1.1,0.6l-0.8,0.6
	l-0.6,0.5l-0.4,0.4l-0.3,0.8l-0.3,0.8l-0.4,0.7l-0.4,0.6l-0.4,0.5l-0.4,0.5L66.9,46l-0.4,0.3L66,46.5l-0.4,0.2l-0.4,0.1l-0.4,0
	l-0.4-0.1l-0.3-0.1l-1.6-0.8l-0.9-0.4l-0.9-0.4L59,44.5l-0.3-0.1l-0.3-0.2l-0.3-0.3l-0.2-0.4l-0.2-0.4l-0.1-0.5l-0.1-0.5l0-0.6
	l0-0.6l0.1-0.7l0.2-0.7l0.2-0.8l0.3-0.8l0.3-0.7l0-0.6l-0.1-0.8l-0.2-1l-0.3-1.2l-0.2-0.7l-0.3-0.7l-0.3-0.8l-0.4-0.8l-0.4-0.8
	L56,29l-0.6-0.9l-0.6-0.9l-0.6-0.8c-1.5-0.1-3.1-0.1-4.6,0L49,27.2l-0.6,0.9L47.8,29l-0.5,0.9l-0.4,0.8l-0.4,0.8l-0.3,0.8l-0.3,0.7
	l-0.2,0.7l-0.3,1.2l-0.2,1l-0.1,0.8l0,0.6l0.3,0.7l0.3,0.8l0.2,0.8l0.2,0.7l0.1,0.7l0,0.6l0,0.6l-0.1,0.5L46,43.1l-0.2,0.4l-0.2,0.4
	l-0.3,0.3l-0.3,0.2l-0.3,0.1l-1.7,0.6l-0.9,0.4l-0.9,0.4l-1.6,0.8l-0.3,0.1L39,46.8l-0.4,0l-0.4-0.1l-0.4-0.2l-0.4-0.2L36.9,46
	l-0.4-0.4L36,45.1l-0.4-0.5l-0.4-0.6l-0.4-0.7l-0.3-0.8l-0.3-0.8l-0.4-0.4l-0.6-0.5l-0.8-0.6l-1.1-0.6l-0.6-0.3L30,38.9l-0.8-0.3
	l-0.8-0.3L27.5,38l-1-0.3l-1-0.2l-1.1-0.2l-1-0.1c-1.1,1-2.2,2.1-3.3,3.3l0.1,1l0.2,1.1l0.2,1l0.3,1l0.3,0.9l0.3,0.8l0.3,0.8
	l0.3,0.7l0.3,0.6l0.6,1.1l0.6,0.8l0.5,0.6l0.4,0.4l0.8,0.3l0.8,0.3l0.7,0.4l0.6,0.4l0.5,0.4l0.5,0.4l0.4,0.4l0.3,0.4l0.2,0.4
	l0.2,0.4l0.1,0.4l0,0.4l-0.1,0.4l-0.1,0.3l-0.8,1.6l-0.4,0.9l-0.4,0.9l-0.6,1.7l-0.1,0.3l-0.2,0.3l-0.3,0.3l-0.4,0.2l-0.4,0.2
	l-0.5,0.1l-0.5,0.1l-0.6,0l-0.6,0l-0.7-0.1L22.5,63l-0.8-0.2l-0.8-0.3l-0.7-0.3l-0.6,0l-0.8,0.1l-1,0.2l-1.2,0.3l-0.7,0.2l-0.7,0.3
	l-0.8,0.3l-0.8,0.4l-0.8,0.4L12,64.8l-0.9,0.6L10.2,66l-0.8,0.6c-0.1,1.5-0.1,3.1,0,4.6l0.8,0.6l0.9,0.6L12,73l0.9,0.5l0.8,0.4
	l0.8,0.4l0.8,0.3l0.7,0.3l0.7,0.2l1.2,0.3l1,0.2l0.8,0.1l0.6,0l0.7-0.3l0.8-0.3l0.8-0.2l0.7-0.2l0.7-0.1l0.6,0l0.6,0l0.5,0.1
	l0.5,0.1l0.4,0.2l0.4,0.2l0.3,0.3l0.2,0.3l0.1,0.3l0.6,1.7l0.4,0.9l0.4,0.9l0.8,1.6l0.1,0.3l0.1,0.4l0,0.4l-0.1,0.4L29.5,83
	l-0.2,0.4L29,83.9l-0.4,0.4l-0.5,0.4l-0.5,0.4l-0.6,0.4l-0.7,0.4l-0.8,0.3l-0.8,0.3l-0.4,0.4l-0.5,0.6l-0.6,0.8l-0.6,1.1l-0.3,0.6
	l-0.3,0.7l-0.3,0.8l-0.3,0.8L21,93.2l-0.3,1l-0.2,1l-0.2,1.1l-0.1,1c1,1.1,2.1,2.2,3.3,3.3l1-0.1l1.1-0.2l1-0.2l1-0.3l0.9-0.3
	l0.8-0.3l0.8-0.3l0.7-0.3l0.6-0.3l1.1-0.6l0.8-0.6l0.6-0.5l0.4-0.4l0.3-0.8l0.3-0.8l0.4-0.7l0.4-0.6l0.4-0.5l0.4-0.5l0.4-0.4
	l0.4-0.3l0.4-0.2l0.4-0.2l0.4-0.1l0.4,0l0.4,0.1l0.3,0.1l1.6,0.8l0.9,0.4l0.9,0.4l1.7,0.6l0.3,0.1l0.3,0.2l0.3,0.3l0.2,0.4l0.2,0.4
	l0.1,0.5l0.1,0.5l0,0.6l0,0.6l-0.1,0.7L46,98.3l-0.2,0.8l-0.3,0.8l-0.3,0.7l0,0.6l0.1,0.8l0.2,1l0.3,1.2l0.2,0.7l0.3,0.7l0.3,0.8
	l0.4,0.8l0.4,0.8l0.5,0.9l0.6,0.9l0.6,0.9l0.6,0.8c1.5,0.1,3.1,0.1,4.6,0l0.6-0.8l0.6-0.9l0.6-0.9l0.5-0.9l0.4-0.8l0.4-0.8l0.3-0.8
	l0.3-0.7l0.2-0.7l0.3-1.2l0.2-1l0.1-0.8l0-0.6l-0.3-0.7L58,99.1l-0.2-0.8l-0.2-0.7l-0.1-0.7l0-0.6l0-0.6l0.1-0.5l0.1-0.5l0.2-0.4
	l0.2-0.4l0.3-0.3l0.3-0.2l0.3-0.1l1.7-0.6l0.9-0.4l0.9-0.4l1.6-0.8l0.3-0.1l0.4-0.1l0.4,0l0.4,0.1l0.4,0.2l0.4,0.2l0.4,0.3l0.4,0.4
	l0.4,0.5l0.4,0.5l0.4,0.6l0.4,0.7l0.3,0.8l0.3,0.8l0.4,0.4l0.6,0.5l0.8,0.6l1.1,0.6l0.6,0.3l0.7,0.3l0.8,0.3l0.8,0.3l0.9,0.3l1,0.3
	l1,0.2l1.1,0.2l1,0.1c1.1-1,2.2-2.1,3.3-3.3l-0.1-1l-0.2-1.1l-0.2-1l-0.3-1l-0.3-0.9l-0.3-0.8l-0.3-0.8l-0.3-0.7l-0.3-0.6l-0.6-1.1
	L80,87.5l-0.5-0.6L79,86.5l-0.8-0.3l-0.8-0.3l-0.7-0.4l-0.6-0.4l-0.5-0.4l-0.5-0.4l-0.4-0.4l-0.3-0.4L74.2,83l-0.2-0.4L74,82.2
	l0-0.4l0.1-0.4l0.1-0.3l0.8-1.6l0.4-0.9l0.4-0.9l0.6-1.7l0.1-0.3l0.2-0.3l0.3-0.3l0.4-0.2l0.4-0.2l0.5-0.1l0.5-0.1l0.6,0l0.6,0
	l0.7,0.1l0.7,0.2L82,75l0.8,0.3l0.7,0.3l0.6,0l0.8-0.1l1-0.2l1.2-0.3l0.7-0.2l0.7-0.3l0.8-0.3l0.8-0.4l0.8-0.4l0.9-0.5l0.9-0.6
	l0.9-0.6l0.8-0.6C94.4,69.6,94.4,68.1,94.3,66.6z M51.9,74.6c-3.1,0-5.7-2.5-5.7-5.7c0-3.1,2.5-5.7,5.7-5.7c3.1,0,5.7,2.5,5.7,5.7
	C57.5,72,55,74.6,51.9,74.6z"/>
<path class="st1" d="M193.2,79.8l-0.9-0.9l-0.9-0.8l-0.9-0.7l-0.8-0.6l-0.8-0.5l-0.7-0.4l-0.7-0.4l-0.6-0.3l-1-0.4l-0.7-0.2
	l-0.4-0.1l-0.9,0l-0.9-0.1l-0.8-0.2l-0.7-0.2l-0.6-0.3l-0.5-0.3l-0.4-0.3l-0.3-0.3l-0.2-0.4l-0.1-0.4l0-0.2l0.1-1.5l0-1.4l0-1.4
	l-0.1-1.5l0-0.2l0.1-0.4l0.2-0.4l0.3-0.3l0.4-0.3l0.5-0.3l0.6-0.3l0.7-0.2l0.8-0.2l0.9-0.1l0.9,0l0.4-0.1l0.7-0.2l1-0.4l0.6-0.3
	l0.7-0.4l0.7-0.4l0.8-0.5l0.8-0.6l0.9-0.7l0.9-0.8l0.9-0.9l1-1l0.9-1c-0.4-1.7-0.8-3.4-1.4-5.1l-1.3-0.4l-1.3-0.4l-1.2-0.3l-1.2-0.2
	l-1.1-0.2l-1-0.1l-0.9-0.1l-0.9,0l-0.8,0l-0.7,0l-1.1,0.1l-0.8,0.2l-0.4,0.1l-0.8,0.4l-0.8,0.4l-0.8,0.3l-0.7,0.2l-0.7,0.1l-0.6,0
	l-0.5-0.1l-0.4-0.1l-0.4-0.2l-0.3-0.3l-0.1-0.2l-0.7-1.4l-0.7-1.3l-0.7-1.2l-0.8-1.3l-0.1-0.2l-0.1-0.4l0-0.4l0.1-0.4l0.2-0.5
	l0.3-0.5l0.4-0.5l0.5-0.5l0.6-0.5l0.7-0.5l0.8-0.5l0.3-0.3l0.5-0.6l0.7-0.9l0.4-0.6l0.4-0.7l0.4-0.7l0.4-0.8l0.4-0.9l0.4-1l0.4-1.1
	l0.4-1.2l0.3-1.3l0.3-1.3c-1.2-1.3-2.4-2.5-3.7-3.7l-1.3,0.3l-1.3,0.3l-1.2,0.4l-1.1,0.4l-1,0.4l-0.9,0.4l-0.8,0.4l-0.7,0.4
	l-0.7,0.4l-0.6,0.4l-0.9,0.7l-0.6,0.5l-0.3,0.3l-0.5,0.8l-0.5,0.7l-0.5,0.6l-0.5,0.5l-0.5,0.4l-0.5,0.3l-0.5,0.2l-0.4,0.1l-0.4,0
	l-0.4-0.1l-0.2-0.1l-1.3-0.8l-1.2-0.7l-1.3-0.7l-1.4-0.7l-0.2-0.1l-0.3-0.3l-0.2-0.4l-0.1-0.4l-0.1-0.5l0-0.6l0.1-0.7l0.2-0.7
	l0.3-0.8l0.4-0.8l0.4-0.8l0.1-0.4l0.2-0.8l0.1-1.1l0-0.7l0-0.8l0-0.9l-0.1-0.9l-0.1-1l-0.2-1.1l-0.2-1.2l-0.3-1.2l-0.4-1.3l-0.4-1.3
	c-1.7-0.5-3.4-1-5.1-1.4l-1,0.9l-1,1l-0.9,0.9l-0.8,0.9l-0.7,0.9l-0.6,0.8l-0.5,0.8l-0.4,0.7l-0.4,0.7l-0.3,0.6l-0.4,1l-0.2,0.7
	l-0.1,0.4l0,0.9l-0.1,0.9l-0.2,0.8l-0.2,0.7l-0.3,0.6l-0.3,0.5l-0.3,0.4l-0.3,0.3l-0.4,0.2l-0.4,0.1l-0.2,0l-1.5-0.1l-1.4,0l-1.4,0
	l-1.5,0.1l-0.2,0l-0.4-0.1l-0.4-0.2l-0.3-0.3l-0.3-0.4l-0.3-0.5l-0.3-0.6l-0.2-0.7l-0.2-0.8l-0.1-0.9l0-0.9l-0.1-0.4L131,20l-0.4-1
	l-0.3-0.6l-0.4-0.7l-0.4-0.7l-0.5-0.8l-0.6-0.8l-0.7-0.9l-0.8-0.9l-0.9-0.9l-1-1l-1-0.9c-1.7,0.4-3.4,0.8-5.1,1.4l-0.4,1.3l-0.4,1.3
	l-0.3,1.2l-0.2,1.2l-0.2,1.1l-0.1,1l-0.1,0.9l0,0.9l0,0.8l0,0.7l0.1,1.1l0.2,0.8l0.1,0.4l0.4,0.8l0.4,0.8l0.3,0.8l0.2,0.7l0.1,0.7
	l0,0.6l-0.1,0.5l-0.1,0.4l-0.2,0.4l-0.3,0.3l-0.2,0.1l-1.4,0.7l-1.3,0.7l-1.2,0.7l-1.3,0.8l-0.2,0.1l-0.4,0.1l-0.4,0l-0.4-0.1
	l-0.5-0.2l-0.5-0.3l-0.5-0.4l-0.5-0.5l-0.5-0.6l-0.5-0.7l-0.5-0.8l-0.3-0.3l-0.6-0.5l-0.9-0.7l-0.6-0.4l-0.7-0.4l-0.7-0.4l-0.8-0.4
	l-0.9-0.4l-1-0.4l-1.1-0.4l-1.2-0.4L98,25.3L96.7,25c-1.3,1.2-2.5,2.4-3.7,3.7l0.3,1.3l0.3,1.3l0.4,1.2l0.4,1.1l0.4,1l0.4,0.9
	l0.4,0.8l0.4,0.7l0.4,0.7l0.4,0.6l0.7,0.9l0.5,0.6l0.3,0.3l0.8,0.5l0.7,0.5l0.6,0.5l0.5,0.5l0.4,0.5l0.3,0.5l0.2,0.5l0.1,0.4l0,0.4
	l-0.1,0.4l-0.1,0.2l-0.8,1.3l-0.7,1.2L99.5,49l-0.7,1.4l-0.1,0.2l-0.3,0.3L98.1,51l-0.4,0.1l-0.5,0.1l-0.6,0l-0.7-0.1l-0.7-0.2
	l-0.8-0.3l-0.8-0.4l-0.8-0.4l-0.4-0.1l-0.8-0.2l-1.1-0.1l-0.7,0l-0.8,0l-0.9,0l-0.9,0.1l-1,0.1l-1.1,0.2L84,49.9l-1.2,0.3l-1.3,0.4
	l-1.3,0.4c-0.5,1.7-1,3.4-1.4,5.1l0.9,1l1,1l0.9,0.9l0.9,0.8l0.9,0.7l0.8,0.6l0.8,0.5l0.7,0.4l0.7,0.4l0.6,0.3l1,0.4l0.7,0.2
	l0.4,0.1l0.9,0l0.9,0.1l0.8,0.2l0.7,0.2l0.6,0.3l0.5,0.3l0.4,0.3l0.3,0.3l0.2,0.4l0.1,0.4l0,0.2l-0.1,1.5l0,1.4l0,1.4l0.1,1.5l0,0.2
	l-0.1,0.4l-0.2,0.4L94,73.1l-0.4,0.3l-0.5,0.3L92.5,74l-0.7,0.2L91,74.3l-0.9,0.1l-0.9,0l-0.4,0.1L88,74.8l-1,0.4l-0.6,0.3l-0.7,0.4
	L85,76.3l-0.8,0.5l-0.8,0.6l-0.9,0.7l-0.9,0.8l-0.9,0.9l-1,1l-0.9,1c0.4,1.7,0.8,3.4,1.4,5.1l1.3,0.4l1.3,0.4l1.2,0.3l1.2,0.2
	l1.1,0.2l1,0.1l0.9,0.1l0.9,0l0.8,0l0.7,0l1.1-0.1l0.8-0.2l0.4-0.1l0.8-0.4l0.8-0.4l0.8-0.3l0.7-0.2l0.7-0.1l0.6,0l0.5,0.1l0.4,0.1
	l0.4,0.2l0.3,0.3l0.1,0.2l0.7,1.4l0.7,1.3l0.7,1.2l0.8,1.3l0.1,0.2l0.1,0.4l0,0.4l-0.1,0.4l-0.2,0.5l-0.3,0.5l-0.4,0.5l-0.5,0.5
	l-0.6,0.5l-0.7,0.5l-0.8,0.5L98,97.9l-0.5,0.6l-0.7,0.9l-0.4,0.6l-0.4,0.7l-0.4,0.7l-0.4,0.8l-0.4,0.9l-0.4,1l-0.4,1.1l-0.4,1.2
	l-0.3,1.3l-0.3,1.3c1.2,1.3,2.4,2.5,3.7,3.7l1.3-0.3l1.3-0.3l1.2-0.4l1.1-0.4l1-0.4l0.9-0.4l0.8-0.4l0.7-0.4l0.7-0.4l0.6-0.4
	l0.9-0.7l0.6-0.5l0.3-0.3l0.5-0.8l0.5-0.7l0.5-0.6l0.5-0.5l0.5-0.4l0.5-0.3l0.5-0.2l0.4-0.1l0.4,0l0.4,0.1l0.2,0.1l1.3,0.8l1.2,0.7
	l1.3,0.7l1.4,0.7l0.2,0.1l0.3,0.3l0.2,0.4l0.1,0.4l0.1,0.5l0,0.6l-0.1,0.7l-0.2,0.7l-0.3,0.8l-0.4,0.8l-0.4,0.8l-0.1,0.4l-0.2,0.8
	l-0.1,1.1l0,0.7l0,0.8l0,0.9l0.1,0.9l0.1,1l0.2,1.1l0.2,1.2l0.3,1.2l0.4,1.3l0.4,1.3c1.7,0.5,3.4,1,5.1,1.4l1-0.9l1-1l0.9-0.9
	l0.8-0.9l0.7-0.9l0.6-0.8l0.5-0.8l0.4-0.7l0.4-0.7l0.3-0.6l0.4-1l0.2-0.7l0.1-0.4l0-0.9l0.1-0.9l0.2-0.8l0.2-0.7l0.3-0.6l0.3-0.5
	l0.3-0.4l0.3-0.3l0.4-0.2l0.4-0.1l0.2,0l1.5,0.1l1.4,0l1.4,0l1.5-0.1l0.2,0l0.4,0.1l0.4,0.2l0.3,0.3l0.3,0.4l0.3,0.5l0.3,0.6
	l0.2,0.7l0.2,0.8l0.1,0.9l0,0.9l0.1,0.4l0.2,0.7l0.4,1l0.3,0.6l0.4,0.7l0.4,0.7l0.5,0.8l0.6,0.8l0.7,0.9l0.8,0.9l0.9,0.9l1,1l1,0.9
	c1.7-0.4,3.4-0.8,5.1-1.4l0.4-1.3l0.4-1.3l0.3-1.2l0.2-1.2l0.2-1.1l0.1-1l0.1-0.9l0-0.9l0-0.8l0-0.7l-0.1-1.1l-0.2-0.8L156,113
	l-0.4-0.8l-0.4-0.8l-0.3-0.8l-0.2-0.7l-0.1-0.7l0-0.6l0.1-0.5l0.1-0.4l0.2-0.4l0.3-0.3l0.2-0.1l1.4-0.7l1.3-0.7l1.2-0.7l1.3-0.8
	l0.2-0.1l0.4-0.1l0.4,0l0.4,0.1l0.5,0.2l0.5,0.3l0.5,0.4l0.5,0.5l0.5,0.6l0.5,0.7l0.5,0.8l0.3,0.3l0.6,0.5l0.9,0.7l0.6,0.4l0.7,0.4
	l0.7,0.4l0.8,0.4l0.9,0.4l1,0.4l1.1,0.4l1.2,0.4l1.3,0.3l1.3,0.3c1.3-1.2,2.5-2.4,3.7-3.7l-0.3-1.3l-0.3-1.3l-0.4-1.2l-0.4-1.1
	l-0.4-1l-0.4-0.9l-0.4-0.8l-0.4-0.7l-0.4-0.7l-0.4-0.6l-0.7-0.9l-0.5-0.6l-0.3-0.3l-0.8-0.5l-0.7-0.5l-0.6-0.5l-0.5-0.5l-0.4-0.5
	l-0.3-0.5l-0.2-0.5l-0.1-0.4l0-0.4l0.1-0.4l0.1-0.2l0.8-1.3l0.7-1.2l0.7-1.3l0.7-1.4l0.1-0.2l0.3-0.3l0.4-0.2l0.4-0.1l0.5-0.1l0.6,0
	l0.7,0.1l0.7,0.2l0.8,0.3l0.8,0.4l0.8,0.4l0.4,0.1l0.8,0.2l1.1,0.1l0.7,0l0.8,0l0.9,0l0.9-0.1l1-0.1l1.1-0.2l1.2-0.2l1.2-0.3
	l1.3-0.4l1.3-0.4c0.5-1.7,1-3.4,1.4-5.1l-0.9-1L193.2,79.8z M136.9,74.6c-3.1,0-5.7-2.5-5.7-5.7c0-3.1,2.5-5.7,5.7-5.7
	c3.1,0,5.7,2.5,5.7,5.7C142.6,72,140,74.6,136.9,74.6z"/>
</svg>
