<?xml version="1.0" encoding="utf-8"?>
<!-- Generator: Adobe Illustrator 27.0.0, SVG Export Plug-In . SVG Version: 6.00 Build 0)  -->
<svg version="1.1" id="SvgjsSvg1162" xmlns:svgjs="http://svgjs.com/svgjs"
	 xmlns="http://www.w3.org/2000/svg" xmlns:xlink="http://www.w3.org/1999/xlink" x="0px" y="0px" viewBox="0 0 299.3 214.3"
	 style="enable-background:new 0 0 299.3 214.3;" xml:space="preserve">
<style type="text/css">
	.st0{fill:#666666;stroke:#000000;stroke-width:0.2835;stroke-miterlimit:11.3386;}
	.st1{fill:#3D3D3D;stroke:#000000;stroke-width:0.2835;stroke-miterlimit:11.3386;}
</style>
<g id="SvgjsG1166">
</g>
<g id="SvgjsG1171">
</g>
<path class="st0" d="M115.6,104.7l-0.9-0.6l-1-0.7l-1-0.6l-1-0.5l-0.9-0.4l-0.9-0.4l-0.8-0.3l-0.8-0.3l-0.7-0.2l-1.2-0.3l-1-0.1
	l-0.7,0l-0.4,0l-0.8,0.3l-0.8,0.2l-0.8,0.1L101,101l-0.7,0l-0.6-0.1l-0.5-0.1l-0.5-0.2l-0.4-0.2l-0.3-0.3l-0.2-0.3l-0.1-0.3l-0.3-1
	l-0.5-1.8l-0.6-1.8l-0.4-1l-0.1-0.4l0-0.4l0.1-0.4l0.2-0.4l0.3-0.4l0.4-0.4l0.5-0.4l0.5-0.4l0.6-0.4l0.7-0.4l0.8-0.3l0.8-0.3
	l0.3-0.2l0.6-0.4l0.7-0.7l0.9-1l0.5-0.6l0.5-0.7l0.5-0.7l0.5-0.8l0.5-0.9l0.5-1l0.5-1.1l0.5-1.1l0.4-1c-0.9-1.4-1.9-2.7-2.9-4
	l-1.1,0l-1.2,0.1l-1.2,0.1l-1.1,0.2l-1,0.2L97.9,76L97,76.2l-0.8,0.3l-0.7,0.3l-1.2,0.5l-0.9,0.5l-0.6,0.4l-0.3,0.2L92.1,79
	l-0.6,0.7L91,80.3l-0.6,0.5l-0.6,0.4l-0.5,0.3l-0.5,0.2l-0.5,0.1l-0.5,0l-0.4,0l-0.4-0.1l-0.3-0.2L86,80.9l-1.5-1.1L83,78.7
	l-0.9-0.5l-0.3-0.2l-0.2-0.3l-0.2-0.4l-0.1-0.4l0-0.5l0-0.6l0.1-0.6l0.2-0.6l0.3-0.7l0.4-0.7l0.5-0.7l0.5-0.7l0.1-0.3l0.2-0.7l0.2-1
	l0.1-1.3l0-0.7l0-0.8l0-0.9l-0.1-1l-0.1-1l-0.2-1.1l-0.2-1.1l-0.3-1.2l-0.3-1c-1.6-0.6-3.1-1.1-4.7-1.5l-0.9,0.7l-1,0.8l-0.9,0.8
	l-0.8,0.8l-0.7,0.7l-0.6,0.7l-0.5,0.7l-0.5,0.7l-0.4,0.6l-0.6,1.1l-0.4,0.9L70.4,67l-0.1,0.3l0,0.9l-0.1,0.9l-0.1,0.8L70,70.6
	l-0.2,0.6l-0.3,0.6l-0.3,0.5l-0.3,0.4L68.6,73l-0.4,0.2l-0.4,0.1l-0.4,0l-1-0.1l-1.9-0.1l-1.9,0.1l-1,0.1l-0.4,0L61,73.2L60.7,73
	l-0.3-0.3L60,72.3l-0.3-0.5l-0.3-0.6l-0.2-0.6l-0.2-0.7L59,69.1l-0.1-0.9l0-0.9L58.8,67l-0.3-0.7l-0.4-0.9l-0.6-1.1l-0.4-0.6
	l-0.5-0.7l-0.5-0.7l-0.6-0.7l-0.7-0.7l-0.8-0.8l-0.9-0.8l-1-0.8l-0.9-0.7c-1.6,0.4-3.2,1-4.7,1.5l-0.3,1l-0.3,1.2l-0.2,1.1l-0.2,1.1
	l-0.1,1l-0.1,1l0,0.9l0,0.8l0,0.7l0.1,1.3l0.2,1l0.2,0.7l0.1,0.3l0.5,0.7l0.5,0.7l0.4,0.7l0.3,0.7l0.2,0.6l0.1,0.6l0,0.6l0,0.5
	l-0.1,0.4l-0.2,0.4l-0.2,0.3l-0.3,0.2l-0.9,0.5l-1.5,1.1l-1.5,1.1l-0.8,0.7l-0.3,0.2l-0.4,0.1l-0.4,0l-0.5,0l-0.5-0.1l-0.5-0.2
	l-0.5-0.3l-0.6-0.4l-0.6-0.5l-0.6-0.6L37.1,79l-0.5-0.7l-0.3-0.2l-0.6-0.4l-0.9-0.5l-1.2-0.5L33,76.5l-0.8-0.3L31.4,76l-0.9-0.2
	l-1-0.2l-1.1-0.2l-1.2-0.1L26,75.2l-1.1,0c-1,1.3-2,2.6-2.9,4l0.4,1l0.5,1.1l0.5,1.1l0.5,1l0.5,0.9l0.5,0.8l0.5,0.7l0.5,0.7l0.5,0.6
	l0.9,1l0.7,0.7l0.6,0.4l0.3,0.2l0.8,0.3l0.8,0.3l0.7,0.4l0.6,0.4l0.5,0.4l0.5,0.4l0.4,0.4l0.3,0.4l0.2,0.4l0.1,0.4l0,0.4L33.4,94
	l-0.4,1l-0.6,1.8l-0.5,1.8l-0.3,1l-0.1,0.3l-0.2,0.3l-0.3,0.3l-0.4,0.2l-0.5,0.2l-0.5,0.1l-0.6,0.1l-0.7,0l-0.7-0.1l-0.8-0.1
	l-0.8-0.2l-0.8-0.3l-0.4,0l-0.7,0l-1,0.1l-1.2,0.3l-0.7,0.2l-0.8,0.3l-0.8,0.3l-0.9,0.4l-0.9,0.4l-1,0.5l-1,0.6l-1,0.7l-0.9,0.6
	c-0.1,1.7-0.1,3.3,0,5l0.9,0.6l1,0.7l1,0.6l1,0.5l0.9,0.4l0.9,0.4l0.8,0.3l0.8,0.3l0.7,0.2l1.2,0.3l1,0.1l0.7,0l0.4,0l0.8-0.3
	l0.8-0.2l0.8-0.1l0.7-0.1l0.7,0l0.6,0.1l0.5,0.1l0.5,0.2l0.4,0.2l0.3,0.3l0.2,0.3l0.1,0.3l0.3,1l0.5,1.8l0.6,1.8l0.4,1l0.1,0.4
	l0,0.4l-0.1,0.4l-0.2,0.4l-0.3,0.4l-0.4,0.4l-0.5,0.4l-0.5,0.4l-0.6,0.4l-0.7,0.4l-0.8,0.3l-0.8,0.3l-0.3,0.2l-0.6,0.4l-0.7,0.7
	l-0.9,1l-0.5,0.6l-0.5,0.7l-0.5,0.7l-0.5,0.8l-0.5,0.9l-0.5,1l-0.5,1.1l-0.5,1.1l-0.4,1c0.9,1.4,1.9,2.7,2.9,4l1.1,0l1.2-0.1
	l1.2-0.1l1.1-0.2l1-0.2l0.9-0.2l0.9-0.2l0.8-0.3l0.7-0.3l1.2-0.5l0.9-0.5l0.6-0.4l0.3-0.2l0.5-0.7l0.6-0.7l0.6-0.6l0.6-0.5l0.6-0.4
	l0.5-0.3l0.5-0.2l0.5-0.1l0.5,0l0.4,0l0.4,0.1l0.3,0.2l0.8,0.7l1.5,1.1l1.5,1.1l0.9,0.5l0.3,0.2l0.2,0.3l0.2,0.4l0.1,0.4l0,0.5
	l0,0.6l-0.1,0.6l-0.2,0.6l-0.3,0.7l-0.4,0.7l-0.5,0.7l-0.5,0.7l-0.1,0.3l-0.2,0.7l-0.2,1l-0.1,1.3l0,0.7l0,0.8l0,0.9l0.1,1l0.1,1
	l0.2,1.1l0.2,1.1l0.3,1.2l0.3,1c1.6,0.6,3.1,1.1,4.7,1.5l0.9-0.7l1-0.8l0.9-0.8l0.8-0.8l0.7-0.7l0.6-0.7l0.5-0.7l0.5-0.7l0.4-0.6
	l0.6-1.1l0.4-0.9l0.3-0.7l0.1-0.3l0-0.9l0.1-0.9l0.1-0.8l0.2-0.7l0.2-0.6l0.3-0.6L60,142l0.3-0.4l0.3-0.3l0.4-0.2l0.4-0.1l0.4,0
	l1,0.1l1.9,0.1l1.9-0.1l1-0.1l0.4,0l0.4,0.1l0.4,0.2l0.3,0.3l0.3,0.4l0.3,0.5l0.3,0.6l0.2,0.6l0.2,0.7l0.1,0.8l0.1,0.9l0,0.9
	l0.1,0.3l0.3,0.7l0.4,0.9l0.6,1.1l0.4,0.6l0.5,0.7l0.5,0.7l0.6,0.7l0.7,0.7l0.8,0.8l0.9,0.8l1,0.8l0.9,0.7c1.6-0.4,3.2-1,4.7-1.5
	l0.3-1l0.3-1.2l0.2-1.1l0.2-1.1l0.1-1l0.1-1l0-0.9l0-0.8l0-0.7l-0.1-1.3l-0.2-1l-0.2-0.7l-0.1-0.3l-0.5-0.7l-0.5-0.7l-0.4-0.7
	l-0.3-0.7l-0.2-0.6l-0.1-0.6l0-0.6l0-0.5l0.1-0.4l0.2-0.4l0.2-0.3l0.3-0.2l0.9-0.5l1.5-1.1l1.5-1.1l0.8-0.7l0.3-0.2l0.4-0.1l0.4,0
	l0.5,0l0.5,0.1l0.5,0.2l0.5,0.3l0.6,0.4L91,134l0.6,0.6l0.6,0.7l0.5,0.7l0.3,0.2l0.6,0.4l0.9,0.5l1.2,0.5l0.7,0.3l0.8,0.3l0.9,0.2
	l0.9,0.2l1,0.2l1.1,0.2l1.2,0.1l1.2,0.1l1.1,0c1-1.3,2-2.6,2.9-4l-0.4-1l-0.5-1.1l-0.5-1.1l-0.5-1l-0.5-0.9l-0.5-0.8l-0.5-0.7
	l-0.5-0.7l-0.5-0.6l-0.9-1l-0.7-0.7l-0.6-0.4l-0.3-0.2l-0.8-0.3l-0.8-0.3l-0.7-0.4l-0.6-0.4l-0.5-0.4l-0.5-0.4l-0.4-0.4l-0.3-0.4
	l-0.2-0.4l-0.1-0.4l0-0.4l0.1-0.4l0.4-1l0.6-1.8l0.5-1.8l0.3-1l0.1-0.3l0.2-0.3l0.3-0.3l0.4-0.2l0.5-0.2l0.5-0.1l0.6-0.1l0.7,0
	l0.7,0.1l0.8,0.1l0.8,0.2l0.8,0.3l0.4,0l0.7,0l1-0.1l1.2-0.3l0.7-0.2l0.8-0.3l0.8-0.3l0.9-0.4l0.9-0.4l1-0.5l1-0.6l1-0.7l0.9-0.6
	C115.7,108,115.7,106.3,115.6,104.7z M64.6,112.8c-3.1,0-5.7-2.5-5.7-5.7c0-3.1,2.5-5.7,5.7-5.7c3.1,0,5.7,2.5,5.7,5.7
	C70.3,110.3,67.8,112.8,64.6,112.8z"/>
<path class="st1" d="M282.1,116.7l-1.4-0.9l-1.3-0.8l-1.3-0.7l-1.2-0.6l-1-0.4l-0.9-0.4l-0.8-0.3l-0.7-0.2l-1-0.2l-0.9-0.1l-0.9-0.2
	l-0.7-0.3l-0.3-0.1l-0.3-0.2l-0.2-0.2l-0.2-0.2l-0.1-0.2l-0.1-0.2l-0.1-0.2l0-0.2l0-1.4l0-1.8l0-1.8l0-1.4l0-0.2l0.1-0.2l0.1-0.2
	l0.1-0.2l0.2-0.2l0.2-0.2l0.3-0.2l0.3-0.1l0.7-0.3l0.9-0.2l0.9-0.1l1-0.2l0.7-0.2l0.8-0.3l0.9-0.4l1-0.4l1.2-0.6l1.3-0.7l1.3-0.8
	l1.4-0.9l1.5-1.1l1.4-1.1c-0.2-2-0.6-3.9-0.9-5.8l-1.7-0.6l-1.8-0.5L279,88l-1.5-0.3l-1.4-0.2l-1.3-0.2l-1.1-0.1l-1,0l-0.9,0l-0.7,0
	l-1,0.1l-0.9,0.2l-0.9,0.1l-0.8,0l-0.3,0l-0.3-0.1l-0.3-0.1l-0.2-0.1l-0.2-0.1l-0.2-0.1l-0.1-0.2l-0.1-0.2l-0.4-1.3l-0.5-1.7
	l-0.6-1.7l-0.5-1.3l0-0.2l0-0.2l0-0.2l0.1-0.2l0.1-0.2l0.2-0.2l0.2-0.2l0.2-0.2l0.6-0.5l0.8-0.5l0.9-0.4l0.9-0.5l0.6-0.4l0.7-0.5
	l0.8-0.6l0.9-0.8l0.9-0.9l1-1l1-1.2l1.1-1.3l1.1-1.5l1-1.5c-0.8-1.8-1.7-3.5-2.7-5.3l-1.8,0l-1.8,0l-1.7,0.1l-1.6,0.2l-1.4,0.2
	l-1.3,0.2l-1.1,0.3l-1,0.3l-0.8,0.3l-0.7,0.2l-0.9,0.4l-0.8,0.4l-0.8,0.4l-0.7,0.2l-0.3,0.1l-0.3,0l-0.3,0l-0.3,0l-0.2-0.1l-0.2-0.1
	L256,65l-0.2-0.2l-0.8-1.1l-1-1.5l-1.1-1.4l-0.8-1.1l-0.1-0.2l-0.1-0.2l0-0.2l0-0.2l0.1-0.2l0.1-0.3l0.1-0.3l0.2-0.3l0.4-0.6
	l0.6-0.7l0.7-0.7l0.7-0.8l0.4-0.6l0.5-0.7l0.5-0.8l0.6-1l0.6-1.1l0.6-1.3l0.6-1.4l0.6-1.6l0.6-1.7l0.5-1.7c-1.3-1.4-2.7-2.8-4.2-4.2
	l-1.7,0.5l-1.7,0.6l-1.6,0.6l-1.4,0.6l-1.3,0.6l-1.1,0.6l-1,0.6l-0.8,0.5l-0.7,0.5l-0.6,0.4l-0.8,0.7l-0.7,0.7l-0.7,0.6l-0.6,0.4
	l-0.3,0.2l-0.3,0.1l-0.3,0.1l-0.2,0.1l-0.2,0l-0.2,0l-0.2-0.1l-0.2-0.1l-1.1-0.8l-1.4-1.1l-1.5-1l-1.1-0.8l-0.2-0.2l-0.1-0.2
	l-0.1-0.2l-0.1-0.2l0-0.3l0-0.3l0-0.3l0.1-0.3l0.2-0.7l0.4-0.8l0.4-0.8l0.4-0.9l0.2-0.7l0.3-0.8l0.3-1l0.3-1.1l0.2-1.3l0.2-1.4
	l0.2-1.6l0.1-1.7l0-1.8l0-1.8c-1.7-0.9-3.5-1.8-5.3-2.7l-1.5,1l-1.5,1.1l-1.3,1.1l-1.2,1l-1,1l-0.9,0.9l-0.8,0.9l-0.6,0.8l-0.5,0.7
	l-0.4,0.6l-0.5,0.9l-0.4,0.9l-0.5,0.8l-0.5,0.6l-0.2,0.2l-0.2,0.2l-0.2,0.2l-0.2,0.1l-0.2,0.1l-0.2,0l-0.2,0l-0.2,0l-1.3-0.5
	l-1.7-0.6l-1.7-0.5l-1.3-0.4l-0.2-0.1l-0.2-0.1l-0.1-0.2l-0.1-0.2l-0.1-0.2l-0.1-0.3l-0.1-0.3l0-0.3l0-0.8l0.1-0.9l0.2-0.9l0.1-1
	l0-0.7l0-0.9l0-1l-0.1-1.1l-0.2-1.3l-0.2-1.4l-0.3-1.5l-0.4-1.6l-0.5-1.8l-0.6-1.7c-1.9-0.4-3.9-0.7-5.8-0.9l-1.1,1.4l-1.1,1.5
	l-0.9,1.4L200,20l-0.7,1.3l-0.6,1.2l-0.4,1l-0.4,0.9l-0.3,0.8l-0.2,0.7l-0.2,1l-0.1,0.9l-0.2,0.9l-0.3,0.7l-0.1,0.3l-0.2,0.3
	l-0.2,0.2l-0.2,0.2l-0.2,0.1l-0.2,0.1l-0.2,0.1l-0.2,0l-1.4,0l-1.8,0l-1.8,0l-1.4,0l-0.2,0l-0.2-0.1l-0.2-0.1l-0.2-0.1l-0.2-0.2
	l-0.2-0.2l-0.2-0.3l-0.1-0.3l-0.3-0.7l-0.2-0.9l-0.1-0.9l-0.2-1l-0.2-0.7l-0.3-0.8l-0.4-0.9l-0.4-1l-0.6-1.2l-0.7-1.3l-0.8-1.3
	l-0.9-1.4l-1.1-1.5l-1.1-1.4c-2,0.2-3.9,0.6-5.8,0.9l-0.6,1.7l-0.5,1.8l-0.4,1.6l-0.3,1.5l-0.2,1.4l-0.2,1.3l-0.1,1.1l0,1l0,0.9
	l0,0.7l0.1,1l0.2,0.9l0.1,0.9l0,0.8l0,0.3l-0.1,0.3l-0.1,0.3l-0.1,0.2l-0.1,0.2l-0.1,0.2l-0.2,0.1l-0.2,0.1l-1.3,0.4l-1.7,0.5
	l-1.7,0.6l-1.3,0.5l-0.2,0l-0.2,0l-0.2,0l-0.2-0.1l-0.2-0.1l-0.2-0.2l-0.2-0.2l-0.2-0.2l-0.5-0.6l-0.5-0.8l-0.4-0.9l-0.5-0.9
	l-0.4-0.6l-0.5-0.7l-0.6-0.8l-0.8-0.9l-0.9-0.9l-1-1l-1.2-1l-1.3-1.1l-1.5-1.1l-1.5-1c-1.8,0.8-3.5,1.7-5.3,2.7l0,1.8l0,1.8l0.1,1.7
	l0.2,1.6l0.2,1.4l0.2,1.3l0.3,1.1l0.3,1l0.3,0.8l0.2,0.7l0.4,0.9l0.4,0.8l0.4,0.8l0.2,0.7l0.1,0.3l0,0.3l0,0.3l0,0.3l-0.1,0.2
	l-0.1,0.2l-0.1,0.2l-0.2,0.2l-1.1,0.8l-1.5,1l-1.4,1.1l-1.1,0.8l-0.2,0.1l-0.2,0.1l-0.2,0l-0.2,0l-0.2-0.1l-0.3-0.1l-0.3-0.1
	l-0.3-0.2l-0.6-0.4l-0.7-0.6l-0.7-0.7l-0.8-0.7l-0.6-0.4l-0.7-0.5l-0.8-0.5l-1-0.6l-1.1-0.6l-1.3-0.6l-1.4-0.6l-1.6-0.6l-1.7-0.6
	l-1.7-0.5c-1.4,1.3-2.8,2.7-4.2,4.2l0.5,1.7l0.6,1.7l0.6,1.6l0.6,1.4l0.6,1.3l0.6,1.1l0.6,1l0.5,0.8l0.5,0.7l0.4,0.6l0.7,0.8
	l0.7,0.7l0.6,0.7l0.4,0.6l0.2,0.3l0.1,0.3l0.1,0.3l0.1,0.2l0,0.2l0,0.2l-0.1,0.2l-0.1,0.2l-0.8,1.1l-1.1,1.4l-1,1.5l-0.8,1.1
	l-0.2,0.2l-0.2,0.1l-0.2,0.1l-0.2,0.1l-0.3,0l-0.3,0l-0.3,0l-0.3-0.1l-0.7-0.2l-0.8-0.4l-0.8-0.4l-0.9-0.4l-0.7-0.2l-0.8-0.3l-1-0.3
	l-1.1-0.3l-1.3-0.2l-1.4-0.2l-1.6-0.2l-1.7-0.1l-1.8,0l-1.8,0c-0.9,1.7-1.8,3.5-2.7,5.3l1,1.5l1.1,1.5l1.1,1.3l1,1.2l1,1l0.9,0.9
	l0.9,0.8l0.8,0.6l0.7,0.5l0.6,0.4l0.9,0.5l0.9,0.4l0.8,0.5l0.6,0.5L120,79l0.2,0.2l0.2,0.2l0.1,0.2l0.1,0.2l0,0.2l0,0.2l0,0.2
	l-0.5,1.3l-0.6,1.7l-0.5,1.7l-0.4,1.3l-0.1,0.2l-0.1,0.2l-0.2,0.1l-0.2,0.1l-0.2,0.1l-0.3,0.1l-0.3,0.1l-0.3,0l-0.8,0l-0.9-0.1
	l-0.9-0.2l-1-0.1l-0.7,0l-0.9,0l-1,0l-1.1,0.1l-1.3,0.2l-1.4,0.2l-1.5,0.3l-1.6,0.4L102,89l-1.7,0.6c-0.4,1.9-0.7,3.9-0.9,5.8
	l1.4,1.1l1.5,1.1l1.4,0.9l1.3,0.8l1.3,0.7l1.2,0.6l1,0.4l0.9,0.4l0.8,0.3l0.7,0.2l1,0.2l0.9,0.1l0.9,0.2l0.7,0.3l0.3,0.1l0.3,0.2
	l0.2,0.2l0.2,0.2l0.1,0.2l0.1,0.2l0.1,0.2l0,0.2l0,1.4l0,1.8l0,1.8l0,1.4l0,0.2l-0.1,0.2l-0.1,0.2l-0.1,0.2l-0.2,0.2l-0.2,0.2
	l-0.3,0.2l-0.3,0.1l-0.7,0.3l-0.9,0.2l-0.9,0.1l-1,0.2l-0.7,0.2l-0.8,0.3l-0.9,0.4l-1,0.4l-1.2,0.6l-1.3,0.7l-1.3,0.8l-1.4,0.9
	l-1.5,1.1l-1.4,1.1c0.2,2,0.6,3.9,0.9,5.8l1.7,0.6l1.8,0.5l1.6,0.4l1.5,0.3l1.4,0.2l1.3,0.2l1.1,0.1l1,0l0.9,0l0.7,0l1-0.1l0.9-0.2
	l0.9-0.1l0.8,0l0.3,0l0.3,0.1l0.3,0.1l0.2,0.1l0.2,0.1l0.2,0.1l0.1,0.2l0.1,0.2l0.4,1.3l0.5,1.7l0.6,1.7l0.5,1.3l0,0.2l0,0.2l0,0.2
	l-0.1,0.2l-0.1,0.2l-0.2,0.2l-0.2,0.2l-0.2,0.2l-0.6,0.5l-0.8,0.5l-0.9,0.4l-0.9,0.5l-0.6,0.4l-0.7,0.5l-0.8,0.6l-0.9,0.8l-0.9,0.9
	l-1,1l-1,1.2l-1.1,1.3l-1.1,1.5l-1,1.5c0.8,1.8,1.7,3.5,2.7,5.3l1.8,0l1.8,0l1.7-0.1l1.6-0.2l1.4-0.2l1.3-0.2l1.1-0.3l1-0.3l0.8-0.3
	l0.7-0.2l0.9-0.4l0.8-0.4l0.8-0.4l0.7-0.2l0.3-0.1l0.3,0l0.3,0l0.3,0l0.2,0.1l0.2,0.1l0.2,0.1l0.2,0.2l0.8,1.1l1,1.5l1.1,1.4
	l0.8,1.1l0.1,0.2l0.1,0.2l0,0.2l0,0.2l-0.1,0.2l-0.1,0.3l-0.1,0.3l-0.2,0.3l-0.4,0.6l-0.6,0.7l-0.7,0.7l-0.7,0.8l-0.4,0.6l-0.5,0.7
	l-0.5,0.8l-0.6,1l-0.6,1.1l-0.6,1.3l-0.6,1.4l-0.6,1.6l-0.6,1.7l-0.5,1.7c1.3,1.4,2.7,2.8,4.2,4.2l1.7-0.5l1.7-0.6l1.6-0.6l1.4-0.6
	l1.3-0.6l1.1-0.6l1-0.6l0.8-0.5l0.7-0.5l0.6-0.4l0.8-0.7l0.7-0.7l0.7-0.6l0.6-0.4l0.3-0.2l0.3-0.1l0.3-0.1l0.2-0.1l0.2,0l0.2,0
	l0.2,0.1l0.2,0.1l1.1,0.8l1.4,1.1l1.5,1l1.1,0.8l0.2,0.2l0.1,0.2l0.1,0.2l0.1,0.2l0,0.3l0,0.3l0,0.3l-0.1,0.3l-0.2,0.7l-0.4,0.8
	l-0.4,0.8l-0.4,0.9l-0.2,0.7l-0.3,0.8l-0.3,1l-0.3,1.1l-0.2,1.3l-0.2,1.4l-0.2,1.6l-0.1,1.7l0,1.8l0,1.8c1.7,0.9,3.5,1.8,5.3,2.7
	l1.5-1l1.5-1.1l1.3-1.1l1.2-1l1-1l0.9-0.9l0.8-0.9l0.6-0.8l0.5-0.7l0.4-0.6l0.5-0.9l0.4-0.9l0.5-0.8l0.5-0.6l0.2-0.2l0.2-0.2
	l0.2-0.2l0.2-0.1l0.2-0.1l0.2,0l0.2,0l0.2,0l1.3,0.5l1.7,0.6l1.7,0.5l1.3,0.4l0.2,0.1l0.2,0.1l0.1,0.2l0.1,0.2l0.1,0.2l0.1,0.3
	l0.1,0.3l0,0.3l0,0.8l-0.1,0.9l-0.2,0.9l-0.1,1l0,0.7l0,0.9l0,1l0.1,1.1l0.2,1.3l0.2,1.4l0.3,1.5l0.4,1.6l0.5,1.8l0.6,1.7
	c1.9,0.4,3.9,0.7,5.8,0.9l1.1-1.4l1.1-1.5l0.9-1.4l0.8-1.3l0.7-1.3l0.6-1.2l0.4-1l0.4-0.9l0.3-0.8l0.2-0.7l0.2-1l0.1-0.9l0.2-0.9
	l0.3-0.7l0.1-0.3l0.2-0.3l0.2-0.2l0.2-0.2l0.2-0.1l0.2-0.1l0.2-0.1l0.2,0l1.4,0l1.8,0l1.8,0l1.4,0l0.2,0l0.2,0.1l0.2,0.1l0.2,0.1
	l0.2,0.2l0.2,0.2l0.2,0.3l0.1,0.3l0.3,0.7l0.2,0.9l0.1,0.9l0.2,1l0.2,0.7l0.3,0.8l0.4,0.9l0.4,1l0.6,1.2l0.7,1.3l0.8,1.3l0.9,1.4
	l1.1,1.5l1.1,1.4c2-0.2,3.9-0.6,5.8-0.9l0.6-1.7l0.5-1.8l0.4-1.6l0.3-1.5l0.2-1.4l0.2-1.3l0.1-1.1l0-1l0-0.9l0-0.7l-0.1-1l-0.2-0.9
	l-0.1-0.9l0-0.8l0-0.3l0.1-0.3l0.1-0.3l0.1-0.2l0.1-0.2l0.1-0.2l0.2-0.1l0.2-0.1l1.3-0.4l1.7-0.5l1.7-0.6l1.3-0.5l0.2,0l0.2,0l0.2,0
	l0.2,0.1l0.2,0.1l0.2,0.2l0.2,0.2l0.2,0.2l0.5,0.6l0.5,0.8l0.4,0.9l0.5,0.9l0.4,0.6l0.5,0.7l0.6,0.8l0.8,0.9l0.9,0.9l1,1l1.2,1
	l1.3,1.1l1.5,1.1l1.5,1c1.8-0.8,3.5-1.7,5.3-2.7l0-1.8l0-1.8l-0.1-1.7l-0.2-1.6l-0.2-1.4l-0.2-1.3l-0.3-1.1l-0.3-1l-0.3-0.8
	l-0.2-0.7l-0.4-0.9l-0.4-0.8l-0.4-0.8l-0.2-0.7l-0.1-0.3l0-0.3l0-0.3l0-0.3l0.1-0.2l0.1-0.2l0.1-0.2l0.2-0.2l1.1-0.8l1.5-1l1.4-1.1
	l1.1-0.8l0.2-0.1l0.2-0.1l0.2,0l0.2,0l0.2,0.1l0.3,0.1l0.3,0.1l0.3,0.2l0.6,0.4l0.7,0.6l0.7,0.7l0.8,0.7l0.6,0.4l0.7,0.5l0.8,0.5
	l1,0.6l1.1,0.6l1.3,0.6l1.4,0.6l1.6,0.6l1.7,0.6l1.7,0.5c1.4-1.3,2.8-2.7,4.2-4.2l-0.5-1.7l-0.6-1.7l-0.6-1.6l-0.6-1.4l-0.6-1.3
	l-0.6-1.1l-0.6-1l-0.5-0.8l-0.5-0.7l-0.4-0.6l-0.7-0.8l-0.7-0.7l-0.6-0.7l-0.4-0.6l-0.2-0.3l-0.1-0.3l-0.1-0.3l-0.1-0.2l0-0.2l0-0.2
	l0.1-0.2l0.1-0.2l0.8-1.1l1.1-1.4l1-1.5l0.8-1.1l0.2-0.2l0.2-0.1l0.2-0.1l0.2-0.1l0.3,0l0.3,0l0.3,0l0.3,0.1l0.7,0.2l0.8,0.4
	l0.8,0.4l0.9,0.4l0.7,0.2l0.8,0.3l1,0.3l1.1,0.3l1.3,0.2l1.4,0.2l1.6,0.2l1.7,0.1l1.8,0l1.8,0c0.9-1.7,1.8-3.5,2.7-5.3l-1-1.5
	l-1.1-1.5l-1.1-1.3l-1-1.2l-1-1l-0.9-0.9l-0.9-0.8l-0.8-0.6l-0.7-0.5l-0.6-0.4l-0.9-0.5l-0.9-0.4l-0.8-0.5l-0.6-0.5l-0.2-0.2
	l-0.2-0.2l-0.2-0.2l-0.1-0.2l-0.1-0.2l0-0.2l0-0.2l0-0.2l0.5-1.3l0.6-1.7l0.5-1.7l0.4-1.3l0.1-0.2l0.1-0.2l0.2-0.1l0.2-0.1l0.2-0.1
	l0.3-0.1l0.3-0.1l0.3,0l0.8,0l0.9,0.1l0.9,0.2l1,0.1l0.7,0l0.9,0l1,0l1.1-0.1l1.3-0.2l1.4-0.2l1.5-0.3l1.6-0.4l1.8-0.5l1.7-0.6
	c0.4-1.9,0.7-3.9,0.9-5.8l-1.4-1.1L282.1,116.7z M192.2,112.8c-3.1,0-5.7-2.5-5.7-5.7c0-3.1,2.5-5.7,5.7-5.7s5.7,2.5,5.7,5.7
	C197.9,110.3,195.3,112.8,192.2,112.8z"/>
</svg>
