<?xml version="1.0" encoding="utf-8"?>
<!-- Generator: Adobe Illustrator 27.0.0, SVG Export Plug-In . SVG Version: 6.00 Build 0)  -->
<svg version="1.1" id="SvgjsSvg1218" xmlns:svgjs="http://svgjs.com/svgjs"
	 xmlns="http://www.w3.org/2000/svg" xmlns:xlink="http://www.w3.org/1999/xlink" x="0px" y="0px" viewBox="0 0 411.6 258.5"
	 style="enable-background:new 0 0 411.6 258.5;" xml:space="preserve">
<style type="text/css">
	.st0{fill:#3D3D3D;stroke:#000000;stroke-width:0.2835;stroke-miterlimit:11.3386;}
	.st1{fill:#666666;stroke:#000000;stroke-width:0.2835;stroke-miterlimit:11.3386;}
</style>
<g id="SvgjsG1222">
</g>
<g id="SvgjsG1227">
</g>
<path class="st0" d="M239.8,126.2l-1.7-0.9l-1.9-0.9l-1.8-0.7l-1.6-0.6l-1.5-0.5l-1.3-0.4l-1.2-0.3l-1-0.2l-0.9-0.1l-1.3-0.1l-0.9,0
	l-0.4-0.1l-0.4-0.1l-0.4-0.1l-0.3-0.1l-0.3-0.1l-0.2-0.1l-0.2-0.2l-0.1-0.2l-0.1-0.2l0-0.1l-0.2-1.5l-0.2-1.7l-0.2-1.7l-0.2-1.5
	l0-0.1l0-0.2l0.1-0.2l0.1-0.2l0.2-0.2l0.2-0.2l0.3-0.2l0.3-0.2l0.4-0.2l0.4-0.2l0.9-0.3l1.2-0.4l0.8-0.4l1-0.5l1.1-0.6l1.2-0.7
	l1.3-0.8l1.4-1l1.5-1.2l1.6-1.3l1.5-1.3c-0.5-2-1-3.9-1.6-5.9l-1.9-0.4l-2-0.4l-1.9-0.3l-1.7-0.2l-1.6-0.1l-1.4,0l-1.2,0l-1.1,0.1
	l-0.9,0.1l-1.3,0.2l-0.9,0.2l-0.4,0.1l-0.4,0l-0.4,0l-0.3,0l-0.3-0.1l-0.2-0.1l-0.2-0.1l-0.2-0.1l-0.1-0.1l-0.1-0.1l-0.5-1.4
	l-0.6-1.6l-0.7-1.6l-0.6-1.4l0-0.1l0-0.2l0-0.2l0.1-0.2l0.1-0.2l0.2-0.2l0.2-0.3l0.3-0.3l0.3-0.3l0.4-0.3l0.8-0.5l1.1-0.7l0.7-0.6
	l0.8-0.7l0.9-0.8l1-1l1.1-1.2l1.1-1.3l1.2-1.5l1.2-1.7l1.1-1.7c-1-1.8-2-3.5-3-5.3l-2,0.1l-2.1,0.2l-1.9,0.2l-1.7,0.3l-1.5,0.3
	l-1.4,0.4l-1.2,0.4l-1,0.4l-0.8,0.3l-1.2,0.5l-0.8,0.4l-0.4,0.2l-0.4,0.1l-0.4,0.1l-0.3,0.1l-0.3,0l-0.3,0l-0.2-0.1l-0.2-0.1
	l-0.1-0.1l-0.1-0.1l-0.9-1.2l-1-1.4l-1.1-1.4l-0.9-1.2l-0.1-0.1l-0.1-0.2l0-0.2l0-0.2l0.1-0.3l0.1-0.3l0.1-0.3l0.2-0.3l0.2-0.3
	l0.3-0.4l0.6-0.7l0.8-1l0.5-0.7l0.6-0.9l0.7-1l0.7-1.2l0.7-1.4l0.7-1.6l0.7-1.8l0.7-1.9l0.6-1.9c-1.4-1.5-2.8-2.9-4.3-4.3l-1.9,0.6
	l-1.9,0.7l-1.8,0.7l-1.6,0.7l-1.4,0.7l-1.2,0.7l-1,0.7l-0.9,0.6l-0.7,0.5l-1,0.8l-0.7,0.6l-0.4,0.3l-0.3,0.2l-0.3,0.2l-0.3,0.1
	l-0.3,0.1l-0.3,0.1l-0.2,0l-0.2,0l-0.2-0.1l-0.1-0.1l-1.2-0.9l-1.4-1.1l-1.4-1l-1.2-0.9l-0.1-0.1l-0.1-0.1l-0.1-0.2l-0.1-0.2l0-0.3
	l0-0.3l0.1-0.3l0.1-0.4l0.1-0.4l0.2-0.4l0.4-0.8l0.5-1.2l0.3-0.8l0.4-1l0.4-1.2l0.4-1.4l0.3-1.5l0.3-1.7l0.2-1.9l0.2-2.1l0.1-2
	c-1.7-1.1-3.5-2.1-5.3-3l-1.7,1.1l-1.7,1.2l-1.5,1.2l-1.3,1.1l-1.2,1.1l-1,1l-0.8,0.9l-0.7,0.8l-0.6,0.7l-0.7,1.1l-0.5,0.8l-0.3,0.4
	l-0.3,0.3l-0.3,0.3l-0.3,0.2l-0.2,0.2l-0.2,0.1l-0.2,0.1l-0.2,0l-0.2,0l-0.1,0l-1.4-0.6L165,43l-1.6-0.6l-1.4-0.5l-0.1-0.1l-0.1-0.1
	l-0.1-0.2l-0.1-0.2l-0.1-0.2l-0.1-0.3l0-0.3l0-0.4l0-0.4l0.1-0.4l0.2-0.9l0.2-1.3l0.1-0.9l0.1-1.1l0-1.2l0-1.4l-0.1-1.6l-0.2-1.7
	l-0.3-1.9l-0.4-2l-0.4-1.9c-1.9-0.6-3.9-1.1-5.9-1.6l-1.3,1.5l-1.3,1.6l-1.2,1.5l-1,1.4l-0.8,1.3l-0.7,1.2l-0.6,1.1l-0.5,1l-0.4,0.8
	l-0.4,1.2l-0.3,0.9l-0.2,0.4l-0.2,0.4l-0.2,0.3l-0.2,0.3l-0.2,0.2l-0.2,0.2l-0.2,0.1l-0.2,0.1l-0.2,0l-0.1,0l-1.5-0.2l-1.7-0.2
	l-1.7-0.2l-1.5-0.2l-0.1,0l-0.2-0.1l-0.2-0.1l-0.2-0.2l-0.1-0.2l-0.1-0.3l-0.1-0.3l-0.1-0.4l-0.1-0.4l-0.1-0.4l0-0.9l-0.1-1.3
	l-0.1-0.9l-0.2-1l-0.3-1.2l-0.4-1.3l-0.5-1.5l-0.6-1.6l-0.7-1.8l-0.9-1.9l-0.9-1.7c-2-0.1-4.1-0.1-6.1,0l-0.9,1.7l-0.9,1.9l-0.7,1.8
	l-0.6,1.6l-0.5,1.5l-0.4,1.3l-0.3,1.2l-0.2,1l-0.1,0.9l-0.1,1.3l0,0.9l-0.1,0.4l-0.1,0.4l-0.1,0.4l-0.1,0.3l-0.1,0.3l-0.1,0.2
	l-0.2,0.2l-0.2,0.1l-0.2,0.1l-0.1,0l-1.5,0.2l-1.7,0.2l-1.7,0.2l-1.5,0.2l-0.1,0l-0.2,0l-0.2-0.1l-0.2-0.1l-0.2-0.2l-0.2-0.2
	l-0.2-0.3l-0.2-0.3l-0.2-0.4l-0.2-0.4l-0.3-0.9l-0.4-1.2l-0.4-0.8l-0.5-1l-0.6-1.1l-0.7-1.2l-0.8-1.3l-1-1.4l-1.2-1.5l-1.3-1.6
	l-1.3-1.5c-2,0.5-3.9,1-5.9,1.6l-0.4,1.9l-0.4,2l-0.3,1.9l-0.2,1.7l-0.1,1.6l0,1.4l0,1.2l0.1,1.1l0.1,0.9l0.2,1.3l0.2,0.9l0.1,0.4
	l0,0.4l0,0.4l0,0.3L97.1,41L97,41.3l-0.1,0.2l-0.1,0.2l-0.1,0.1l-0.1,0.1l-1.4,0.5L93.5,43l-1.6,0.7l-1.4,0.6l-0.1,0l-0.2,0l-0.2,0
	l-0.2-0.1l-0.2-0.1L89.4,44l-0.3-0.2l-0.3-0.3l-0.3-0.3l-0.3-0.4l-0.5-0.8L87.1,41l-0.6-0.7l-0.7-0.8L85,38.6l-1-1l-1.2-1.1
	l-1.3-1.1L80,34.3l-1.7-1.2L76.6,32c-1.8,1-3.5,2-5.3,3l0.1,2l0.2,2.1l0.2,1.9l0.3,1.7l0.3,1.5l0.4,1.4l0.4,1.2l0.4,1l0.3,0.8
	l0.5,1.2l0.4,0.8l0.2,0.4l0.1,0.4l0.1,0.4l0.1,0.3l0,0.3l0,0.3l-0.1,0.2L75.2,53l-0.1,0.1L75,53.2l-1.2,0.9l-1.4,1L71,56.2l-1.2,0.9
	l-0.1,0.1l-0.2,0.1l-0.2,0l-0.2,0l-0.3-0.1l-0.3-0.1l-0.3-0.1L68,56.9l-0.3-0.2l-0.4-0.3l-0.7-0.6l-1-0.8l-0.7-0.5l-0.9-0.6l-1-0.7
	l-1.2-0.7l-1.4-0.7L58.8,51l-1.8-0.7l-1.9-0.7L53.3,49c-1.5,1.4-2.9,2.8-4.3,4.3l0.6,1.9l0.7,1.9l0.7,1.8l0.7,1.6l0.7,1.4l0.7,1.2
	l0.7,1l0.6,0.9l0.5,0.7l0.8,1l0.6,0.7l0.3,0.4l0.2,0.3l0.2,0.3l0.1,0.3l0.1,0.3l0.1,0.3l0,0.2l0,0.2l-0.1,0.2l-0.1,0.1L56.2,71
	l-1.1,1.4l-1,1.4L53.2,75l-0.1,0.1L53,75.2l-0.2,0.1l-0.2,0.1l-0.3,0l-0.3,0l-0.3-0.1l-0.4-0.1L51,75.1l-0.4-0.2l-0.8-0.4l-1.2-0.5
	l-0.8-0.3l-1-0.4l-1.2-0.4l-1.4-0.4l-1.5-0.3L41,71.9l-1.9-0.2L37,71.5l-2-0.1c-1.1,1.7-2.1,3.5-3,5.3l1.1,1.7l1.2,1.7l1.2,1.5
	l1.1,1.3l1.1,1.2l1,1l0.9,0.8l0.8,0.7l0.7,0.6l1.1,0.7l0.8,0.5l0.4,0.3l0.3,0.3l0.3,0.3l0.2,0.3l0.2,0.2l0.1,0.2l0.1,0.2l0,0.2
	l0,0.2l0,0.1l-0.6,1.4L43,93.5l-0.6,1.6l-0.5,1.4l-0.1,0.1l-0.1,0.1l-0.2,0.1L41.3,97L41,97.1l-0.3,0.1l-0.3,0l-0.4,0l-0.4,0
	l-0.4-0.1l-0.9-0.2L37,96.7l-0.9-0.1l-1.1-0.1l-1.2,0l-1.4,0l-1.6,0.1l-1.7,0.2l-1.9,0.3l-2,0.4l-1.9,0.4c-0.6,1.9-1.1,3.9-1.6,5.9
	l1.5,1.3l1.6,1.3l1.5,1.2l1.4,1l1.3,0.8l1.2,0.7l1.1,0.6l1,0.5l0.8,0.4l1.2,0.4l0.9,0.3l0.4,0.2l0.4,0.2l0.3,0.2l0.3,0.2l0.2,0.2
	l0.2,0.2l0.1,0.2l0.1,0.2l0,0.2l0,0.1l-0.2,1.5l-0.2,1.7l-0.2,1.7l-0.2,1.5l0,0.1l-0.1,0.2l-0.1,0.2l-0.2,0.2l-0.2,0.1l-0.3,0.1
	l-0.3,0.1l-0.4,0.1l-0.4,0.1l-0.4,0.1l-0.9,0l-1.3,0.1l-0.9,0.1l-1,0.2l-1.2,0.3l-1.3,0.4l-1.5,0.5l-1.6,0.6l-1.8,0.7l-1.9,0.9
	l-1.7,0.9c-0.1,2-0.1,4.1,0,6.1l1.7,0.9l1.9,0.9l1.8,0.7l1.6,0.6l1.5,0.5l1.3,0.4l1.2,0.3l1,0.2l0.9,0.1L33,137l0.9,0l0.4,0.1
	l0.4,0.1l0.4,0.1l0.3,0.1l0.3,0.1l0.2,0.1l0.2,0.2l0.1,0.2l0.1,0.2l0,0.1l0.2,1.5l0.2,1.7l0.2,1.7l0.2,1.5l0,0.1l0,0.2l-0.1,0.2
	l-0.1,0.2l-0.2,0.2l-0.2,0.2l-0.3,0.2l-0.3,0.2l-0.4,0.2l-0.4,0.2l-0.9,0.3l-1.2,0.4l-0.8,0.4l-1,0.5l-1.1,0.6l-1.2,0.7l-1.3,0.8
	l-1.4,1l-1.5,1.2l-1.6,1.3l-1.5,1.3c0.5,2,1,3.9,1.6,5.9l1.9,0.4l2,0.4l1.9,0.3l1.7,0.2l1.6,0.1l1.4,0l1.2,0l1.1-0.1l0.9-0.1
	l1.3-0.2l0.9-0.2l0.4-0.1l0.4,0l0.4,0l0.3,0l0.3,0.1l0.2,0.1l0.2,0.1l0.2,0.1l0.1,0.1l0.1,0.1l0.5,1.4L43,165l0.7,1.6l0.6,1.4l0,0.1
	l0,0.2l0,0.2l-0.1,0.2l-0.1,0.2l-0.2,0.2l-0.2,0.3l-0.3,0.3l-0.3,0.3l-0.4,0.3l-0.8,0.5l-1.1,0.7l-0.7,0.6l-0.8,0.7l-0.9,0.8l-1,1
	l-1.1,1.2l-1.1,1.3l-1.2,1.5l-1.2,1.7l-1.1,1.7c1,1.8,2,3.5,3,5.3l2-0.1l2.1-0.2l1.9-0.2l1.7-0.3l1.5-0.3l1.4-0.4l1.2-0.4l1-0.4
	l0.8-0.3l1.2-0.5l0.8-0.4l0.4-0.2l0.4-0.1l0.4-0.1l0.3-0.1l0.3,0l0.3,0l0.2,0.1l0.2,0.1l0.1,0.1l0.1,0.1l0.9,1.2l1,1.4l1.1,1.4
	l0.9,1.2l0.1,0.1l0.1,0.2l0,0.2l0,0.2l-0.1,0.3l-0.1,0.3l-0.1,0.3l-0.2,0.3l-0.2,0.3l-0.3,0.4l-0.6,0.7l-0.8,1l-0.5,0.7l-0.6,0.9
	l-0.7,1l-0.7,1.2l-0.7,1.4l-0.7,1.6l-0.7,1.8l-0.7,1.9l-0.6,1.9c1.4,1.5,2.8,2.9,4.3,4.3l1.9-0.6l1.9-0.7l1.8-0.7l1.6-0.7l1.4-0.7
	l1.2-0.7l1-0.7l0.9-0.6l0.7-0.5l1-0.8l0.7-0.6l0.4-0.3l0.3-0.2l0.3-0.2l0.3-0.1l0.3-0.1l0.3-0.1l0.2,0l0.2,0l0.2,0.1l0.1,0.1
	l1.2,0.9l1.4,1.1l1.4,1l1.2,0.9l0.1,0.1l0.1,0.1l0.1,0.2l0.1,0.2l0,0.3l0,0.3l-0.1,0.3l-0.1,0.4l-0.1,0.4l-0.2,0.4l-0.4,0.8
	l-0.5,1.2l-0.3,0.8l-0.4,1l-0.4,1.2l-0.4,1.4l-0.3,1.5l-0.3,1.7l-0.2,1.9l-0.2,2.1l-0.1,2c1.7,1.1,3.5,2.1,5.3,3l1.7-1.1l1.7-1.2
	l1.5-1.2l1.3-1.1l1.2-1.1l1-1l0.8-0.9l0.7-0.8l0.6-0.7l0.7-1.1l0.5-0.8l0.3-0.4l0.3-0.3l0.3-0.3l0.3-0.2l0.2-0.2l0.2-0.1l0.2-0.1
	l0.2,0l0.2,0l0.1,0l1.4,0.6l1.6,0.7l1.6,0.6l1.4,0.5l0.1,0.1l0.1,0.1l0.1,0.2l0.1,0.2l0.1,0.2l0.1,0.3l0,0.3l0,0.4l0,0.4l-0.1,0.4
	l-0.2,0.9l-0.2,1.3l-0.1,0.9l-0.1,1.1l0,1.2l0,1.4l0.1,1.6l0.2,1.7l0.3,1.9l0.4,2l0.4,1.9c1.9,0.6,3.9,1.1,5.9,1.6l1.3-1.5l1.3-1.6
	l1.2-1.5l1-1.4l0.8-1.3l0.7-1.2l0.6-1.1l0.5-1l0.4-0.8l0.4-1.2l0.3-0.9l0.2-0.4l0.2-0.4l0.2-0.3l0.2-0.3l0.2-0.2l0.2-0.2l0.2-0.1
	l0.2-0.1l0.2,0l0.1,0l1.5,0.2l1.7,0.2l1.7,0.2l1.5,0.2l0.1,0l0.2,0.1l0.2,0.1l0.2,0.2l0.1,0.2l0.1,0.3l0.1,0.3l0.1,0.4l0.1,0.4
	l0.1,0.4l0,0.9l0.1,1.3l0.1,0.9l0.2,1l0.3,1.2l0.4,1.3l0.5,1.5l0.6,1.6l0.7,1.8l0.9,1.9l0.9,1.7c2,0.1,4.1,0.1,6.1,0l0.9-1.7
	l0.9-1.9l0.7-1.8l0.6-1.6l0.5-1.5l0.4-1.3l0.3-1.2l0.2-1l0.1-0.9l0.1-1.3l0-0.9l0.1-0.4l0.1-0.4l0.1-0.4l0.1-0.3l0.1-0.3l0.1-0.2
	l0.2-0.2l0.2-0.1l0.2-0.1l0.1,0l1.5-0.2l1.7-0.2l1.7-0.2l1.5-0.2l0.1,0l0.2,0l0.2,0.1l0.2,0.1l0.2,0.2l0.2,0.2l0.2,0.3l0.2,0.3
	l0.2,0.4l0.2,0.4l0.3,0.9l0.4,1.2l0.4,0.8l0.5,1l0.6,1.1l0.7,1.2l0.8,1.3l1,1.4l1.2,1.5l1.3,1.6l1.3,1.5c2-0.5,3.9-1,5.9-1.6
	l0.4-1.9l0.4-2l0.3-1.9l0.2-1.7l0.1-1.6l0-1.4l0-1.2l-0.1-1.1l-0.1-0.9l-0.2-1.3l-0.2-0.9l-0.1-0.4l0-0.4l0-0.4l0-0.3l0.1-0.3
	l0.1-0.2l0.1-0.2l0.1-0.2l0.1-0.1l0.1-0.1l1.4-0.5l1.6-0.6l1.6-0.7l1.4-0.6l0.1,0l0.2,0l0.2,0l0.2,0.1l0.2,0.1l0.2,0.2l0.3,0.2
	l0.3,0.3l0.3,0.3l0.3,0.4l0.5,0.8l0.7,1.1l0.6,0.7l0.7,0.8l0.8,0.9l1,1l1.2,1.1l1.3,1.1l1.5,1.2l1.7,1.2l1.7,1.1c1.8-1,3.5-2,5.3-3
	l-0.1-2l-0.2-2.1l-0.2-1.9l-0.3-1.7l-0.3-1.5l-0.4-1.4l-0.4-1.2l-0.4-1l-0.3-0.8l-0.5-1.2l-0.4-0.8l-0.2-0.4l-0.1-0.4l-0.1-0.4
	l-0.1-0.3l0-0.3l0-0.3l0.1-0.2l0.1-0.2l0.1-0.1l0.1-0.1l1.2-0.9l1.4-1l1.4-1.1l1.2-0.9l0.1-0.1l0.2-0.1l0.2,0l0.2,0l0.3,0.1l0.3,0.1
	l0.3,0.1l0.3,0.2l0.3,0.2l0.4,0.3l0.7,0.6l1,0.8l0.7,0.5l0.9,0.6l1,0.7l1.2,0.7l1.4,0.7l1.6,0.7l1.8,0.7l1.9,0.7l1.9,0.6
	c1.5-1.4,2.9-2.8,4.3-4.3l-0.6-1.9l-0.7-1.9l-0.7-1.8l-0.7-1.6l-0.7-1.4l-0.7-1.2l-0.7-1l-0.6-0.9l-0.5-0.7l-0.8-1l-0.6-0.7
	l-0.3-0.4l-0.2-0.3l-0.2-0.3l-0.1-0.3l-0.1-0.3l-0.1-0.3l0-0.2l0-0.2l0.1-0.2l0.1-0.1l0.9-1.2l1.1-1.4l1-1.4l0.9-1.2l0.1-0.1
	l0.1-0.1l0.2-0.1l0.2-0.1l0.3,0l0.3,0l0.3,0.1l0.4,0.1l0.4,0.1l0.4,0.2l0.8,0.4l1.2,0.5l0.8,0.3l1,0.4l1.2,0.4l1.4,0.4l1.5,0.3
	l1.7,0.3l1.9,0.2l2.1,0.2l2,0.1c1.1-1.7,2.1-3.5,3-5.3l-1.1-1.7l-1.2-1.7l-1.2-1.5l-1.1-1.3l-1.1-1.2l-1-1l-0.9-0.8l-0.8-0.7
	l-0.7-0.6l-1.1-0.7l-0.8-0.5l-0.4-0.3l-0.3-0.3l-0.3-0.3l-0.2-0.3l-0.2-0.2l-0.1-0.2l-0.1-0.2l0-0.2l0-0.2l0-0.1l0.6-1.4l0.7-1.6
	l0.6-1.6l0.5-1.4l0.1-0.1l0.1-0.1l0.2-0.1l0.2-0.1l0.2-0.1l0.3-0.1l0.3,0l0.4,0l0.4,0l0.4,0.1l0.9,0.2l1.3,0.2l0.9,0.1l1.1,0.1
	l1.2,0l1.4,0l1.6-0.1l1.7-0.2l1.9-0.3l2-0.4l1.9-0.4c0.6-1.9,1.1-3.9,1.6-5.9l-1.5-1.3l-1.6-1.3l-1.5-1.2l-1.4-1l-1.3-0.8l-1.2-0.7
	l-1.1-0.6l-1-0.5l-0.8-0.4l-1.2-0.4l-0.9-0.3l-0.4-0.2l-0.4-0.2l-0.3-0.2l-0.3-0.2l-0.2-0.2l-0.2-0.2l-0.1-0.2l-0.1-0.2l0-0.2l0-0.1
	l0.2-1.5l0.2-1.7l0.2-1.7l0.2-1.5l0-0.1l0.1-0.2l0.1-0.2l0.2-0.2l0.2-0.1l0.3-0.1l0.3-0.1l0.4-0.1l0.4-0.1l0.4-0.1l0.9,0l1.3-0.1
	l0.9-0.1l1-0.2l1.2-0.3l1.3-0.4l1.5-0.5l1.6-0.6l1.8-0.7l1.9-0.9l1.7-0.9C239.8,130.3,239.8,128.2,239.8,126.2z M129.3,134.9
	c-3.1,0-5.7-2.5-5.7-5.7s2.5-5.7,5.7-5.7s5.7,2.5,5.7,5.7S132.4,134.9,129.3,134.9z"/>
<path class="st1" d="M389.4,139.1l-1.3-0.9l-1.2-0.8l-1.2-0.7l-1.1-0.6l-1-0.5l-0.9-0.4l-0.8-0.3l-0.7-0.2l-1-0.3l-1.8-0.3l-0.8-0.2
	l-0.7-0.3l-0.5-0.3l-0.2-0.2l-0.2-0.2l-0.1-0.2l-0.1-0.2l-0.1-0.2l0-0.3l0.1-3.1l-0.1-3.1l0-0.3l0.1-0.2l0.1-0.2l0.1-0.2l0.2-0.2
	l0.2-0.2l0.5-0.3l0.7-0.3l0.8-0.2l1.8-0.3l1-0.3l0.7-0.2l0.8-0.3l0.9-0.4l1-0.5l1.1-0.6l1.2-0.7l1.2-0.8l1.3-0.9l1.4-1l1.3-1
	c-0.3-1.9-0.6-3.8-1-5.7l-1.6-0.5l-1.7-0.5l-1.5-0.4l-1.4-0.3l-1.3-0.2l-1.2-0.2l-1.1-0.1l-1,0l-0.8,0l-0.7,0l-1,0.1l-1.8,0.4
	l-0.8,0.1l-0.7,0l-0.6-0.1l-0.3-0.1l-0.2-0.1l-0.2-0.1l-0.2-0.1l-0.1-0.1l-0.1-0.2l-1-3l-1.1-2.9l-0.1-0.3l0-0.2l0-0.2l0.1-0.2
	l0.1-0.2l0.1-0.2l0.4-0.5l0.6-0.5l0.7-0.5l1.6-0.9l0.9-0.6l0.6-0.4l0.6-0.5l0.7-0.7l0.8-0.8l0.8-0.9l0.9-1l0.9-1.2l0.9-1.3l0.9-1.4
	l0.8-1.4c-0.9-1.7-1.9-3.4-2.9-5l-1.6,0l-1.7,0.1l-1.6,0.2l-1.5,0.2l-1.3,0.2l-1.2,0.3l-1.1,0.3l-0.9,0.3l-0.8,0.3l-0.7,0.3
	l-0.9,0.5l-1.5,0.9l-0.8,0.4l-0.7,0.2l-0.6,0.1l-0.3,0l-0.2,0l-0.2,0l-0.2-0.1l-0.2-0.1l-0.2-0.2l-2-2.4l-2.1-2.3l-0.2-0.2l-0.1-0.2
	l0-0.2l0-0.2l0-0.2l0.1-0.3l0.2-0.6l0.4-0.6l0.5-0.7l1.2-1.3l0.6-0.9l0.4-0.6l0.4-0.7l0.4-0.9l0.5-1l0.5-1.1l0.5-1.3l0.5-1.4
	l0.4-1.5l0.4-1.7l0.3-1.6c-1.4-1.3-2.9-2.5-4.4-3.7l-1.5,0.6l-1.6,0.7l-1.4,0.7l-1.3,0.7l-1.2,0.7l-1,0.7l-0.9,0.6l-0.8,0.6
	l-0.6,0.5l-0.5,0.5l-0.7,0.8l-1.1,1.4l-0.6,0.6l-0.6,0.5l-0.5,0.3l-0.2,0.1l-0.2,0.1l-0.2,0l-0.2,0l-0.2,0l-0.2-0.1l-2.7-1.6L339,69
	l-0.2-0.2l-0.1-0.1l-0.1-0.2l-0.1-0.2l-0.1-0.2l0-0.3l0-0.6l0.1-0.7l0.2-0.8l0.7-1.7l0.3-1l0.2-0.7l0.1-0.8l0.1-1l0.1-1.1l0.1-1.2
	l0-1.3l-0.1-1.5l-0.1-1.6l-0.2-1.7l-0.3-1.6c-1.8-0.7-3.6-1.4-5.4-2l-1.3,1.1l-1.3,1.2l-1.1,1.1l-1,1.1l-0.9,1l-0.7,1l-0.6,0.9
	l-0.5,0.8l-0.4,0.7l-0.3,0.6l-0.4,1l-0.6,1.7l-0.3,0.8l-0.4,0.6l-0.4,0.5l-0.2,0.2l-0.2,0.1l-0.2,0.1l-0.2,0.1l-0.2,0l-0.3,0
	l-3.1-0.6l-3.1-0.5l-0.3-0.1l-0.2-0.1l-0.2-0.1l-0.1-0.2l-0.1-0.2l-0.1-0.2l-0.2-0.6l-0.1-0.7l-0.1-0.8l0.1-1.8l-0.1-1l-0.1-0.7
	l-0.1-0.8l-0.2-0.9l-0.3-1.1l-0.4-1.2l-0.5-1.3l-0.6-1.4l-0.7-1.5l-0.8-1.5l-0.8-1.4c-1.9-0.1-3.9-0.1-5.8,0l-0.8,1.4l-0.8,1.5
	l-0.7,1.5l-0.6,1.4l-0.5,1.3l-0.4,1.2l-0.3,1.1l-0.2,0.9l-0.1,0.8l-0.1,0.7l-0.1,1l0.1,1.8l-0.1,0.8l-0.1,0.7l-0.2,0.6l-0.1,0.2
	l-0.1,0.2l-0.1,0.2l-0.2,0.1l-0.2,0.1l-0.3,0.1l-3.1,0.5L293,63l-0.3,0l-0.2,0l-0.2-0.1l-0.2-0.1l-0.2-0.1l-0.2-0.2l-0.4-0.5
	l-0.4-0.6l-0.3-0.8l-0.6-1.7l-0.4-1l-0.3-0.6l-0.4-0.7l-0.5-0.8l-0.6-0.9l-0.7-1l-0.9-1l-1-1.1l-1.1-1.1l-1.3-1.2l-1.3-1.1
	c-1.8,0.6-3.7,1.3-5.4,2l-0.3,1.6l-0.2,1.7l-0.1,1.6l-0.1,1.5l0,1.3l0.1,1.2l0.1,1.1l0.1,1l0.1,0.8l0.2,0.7l0.3,1l0.7,1.7l0.2,0.8
	l0.1,0.7l0,0.6l0,0.3l-0.1,0.2l-0.1,0.2l-0.1,0.2l-0.1,0.1l-0.2,0.2l-2.7,1.5l-2.7,1.6l-0.2,0.1l-0.2,0l-0.2,0l-0.2,0l-0.2-0.1
	l-0.2-0.1l-0.5-0.3l-0.6-0.5l-0.6-0.6l-1.1-1.4l-0.7-0.8l-0.5-0.5l-0.6-0.5l-0.8-0.6l-0.9-0.6l-1-0.7l-1.2-0.7l-1.3-0.7l-1.4-0.7
	l-1.6-0.7l-1.5-0.6c-1.5,1.2-3,2.4-4.4,3.7l0.3,1.6l0.4,1.7l0.4,1.5l0.5,1.4l0.5,1.3l0.5,1.1l0.5,1l0.4,0.9l0.4,0.7l0.4,0.6l0.6,0.9
	L257,80l0.5,0.7l0.4,0.6l0.2,0.6l0.1,0.3l0,0.2l0,0.2l0,0.2l-0.1,0.2l-0.2,0.2l-2.1,2.3l-2,2.4l-0.2,0.2l-0.2,0.1l-0.2,0.1l-0.2,0
	l-0.2,0l-0.3,0l-0.6-0.1l-0.7-0.2l-0.8-0.4l-1.5-0.9l-0.9-0.5l-0.7-0.3l-0.8-0.3l-0.9-0.3l-1.1-0.3l-1.2-0.3l-1.3-0.2l-1.5-0.2
	l-1.6-0.2l-1.7-0.1l-1.6,0c-1,1.6-2,3.3-2.9,5l0.8,1.4l0.9,1.4l0.9,1.3l0.9,1.2l0.9,1l0.8,0.9l0.8,0.8l0.7,0.7l0.6,0.5l0.6,0.4
	l0.9,0.6l1.6,0.9l0.7,0.5l0.6,0.5l0.4,0.5l0.1,0.2l0.1,0.2l0.1,0.2l0,0.2l0,0.2l-0.1,0.3L244,106l-1,3l-0.1,0.2l-0.1,0.1l-0.2,0.1
	l-0.2,0.1l-0.2,0.1l-0.3,0.1l-0.6,0.1l-0.7,0l-0.8-0.1l-1.8-0.4l-1-0.1l-0.7,0l-0.8,0l-1,0l-1.1,0.1l-1.2,0.2l-1.3,0.2l-1.4,0.3
	l-1.5,0.4l-1.7,0.5l-1.6,0.5c-0.4,1.9-0.7,3.8-1,5.7l1.3,1l1.4,1l1.3,0.9l1.2,0.8l1.2,0.7l1.1,0.6l1,0.5l0.9,0.4l0.8,0.3l0.7,0.2
	l1,0.3l1.8,0.3l0.8,0.2l0.7,0.3l0.5,0.3l0.2,0.2l0.2,0.2l0.1,0.2l0.1,0.2l0.1,0.2l0,0.3l-0.1,3.1l0.1,3.1l0,0.3l-0.1,0.2l-0.1,0.2
	l-0.1,0.2l-0.2,0.2l-0.2,0.2l-0.5,0.3l-0.7,0.3l-0.8,0.2l-1.8,0.3l-1,0.3l-0.7,0.2l-0.8,0.3l-0.9,0.4l-1,0.5l-1.1,0.6l-1.2,0.7
	l-1.2,0.8l-1.3,0.9l-1.4,1l-1.3,1c0.3,1.9,0.6,3.8,1,5.7l1.6,0.5l1.7,0.5l1.5,0.4l1.4,0.3l1.3,0.2l1.2,0.2l1.1,0.1l1,0l0.8,0l0.7,0
	l1-0.1l1.8-0.4l0.8-0.1l0.7,0l0.6,0.1l0.3,0.1l0.2,0.1l0.2,0.1l0.2,0.1l0.1,0.1l0.1,0.2l1,3l1.1,2.9l0.1,0.3l0,0.2l0,0.2l-0.1,0.2
	l-0.1,0.2l-0.1,0.2l-0.4,0.5l-0.6,0.5l-0.7,0.5l-1.6,0.9l-0.9,0.6l-0.6,0.4l-0.6,0.5l-0.7,0.7l-0.8,0.8l-0.8,0.9l-0.9,1l-0.9,1.2
	l-0.9,1.3l-0.9,1.4l-0.8,1.4c0.9,1.7,1.9,3.4,2.9,5l1.6,0l1.7-0.1l1.6-0.2l1.5-0.2l1.3-0.2l1.2-0.3l1.1-0.3l0.9-0.3l0.8-0.3l0.7-0.3
	l0.9-0.5l1.5-0.9l0.8-0.4l0.7-0.2l0.6-0.1l0.3,0l0.2,0l0.2,0l0.2,0.1l0.2,0.1l0.2,0.2l2,2.4l2.1,2.3l0.2,0.2l0.1,0.2l0,0.2l0,0.2
	l0,0.2l-0.1,0.3l-0.2,0.6l-0.4,0.6l-0.5,0.7l-1.2,1.3l-0.6,0.9l-0.4,0.6l-0.4,0.7l-0.4,0.9l-0.5,1L253,185l-0.5,1.3l-0.5,1.4
	l-0.4,1.5l-0.4,1.7l-0.3,1.6c1.4,1.3,2.9,2.5,4.4,3.7l1.5-0.6l1.6-0.7l1.4-0.7l1.3-0.7l1.2-0.7l1-0.7l0.9-0.6l0.8-0.6l0.6-0.5
	l0.5-0.5l0.7-0.8l1.1-1.4l0.6-0.6l0.6-0.5l0.5-0.3l0.2-0.1l0.2-0.1l0.2,0l0.2,0l0.2,0l0.2,0.1l2.7,1.6l2.7,1.5l0.2,0.2l0.1,0.1
	l0.1,0.2l0.1,0.2l0.1,0.2l0,0.3l0,0.6l-0.1,0.7l-0.2,0.8l-0.7,1.7l-0.3,1l-0.2,0.7l-0.1,0.8l-0.1,1l-0.1,1.1l-0.1,1.2l0,1.3l0.1,1.5
	l0.1,1.6l0.2,1.7l0.3,1.6c1.8,0.7,3.6,1.4,5.4,2l1.3-1.1l1.3-1.2l1.1-1.1l1-1.1l0.9-1l0.7-1l0.6-0.9l0.5-0.8l0.4-0.7l0.3-0.6l0.4-1
	l0.6-1.7l0.3-0.8l0.4-0.6l0.4-0.5l0.2-0.2l0.2-0.1l0.2-0.1l0.2-0.1l0.2,0l0.3,0l3.1,0.6l3.1,0.5l0.3,0.1l0.2,0.1l0.2,0.1l0.1,0.2
	l0.1,0.2l0.1,0.2l0.2,0.6l0.1,0.7l0.1,0.8l-0.1,1.8l0.1,1l0.1,0.7l0.1,0.8l0.2,0.9l0.3,1.1l0.4,1.2l0.5,1.3l0.6,1.4l0.7,1.5l0.8,1.5
	l0.8,1.4c1.9,0.1,3.9,0.1,5.8,0l0.8-1.4l0.8-1.5l0.7-1.5l0.6-1.4l0.5-1.3l0.4-1.2l0.3-1.1l0.2-0.9l0.1-0.8l0.1-0.7l0.1-1l-0.1-1.8
	l0.1-0.8l0.1-0.7l0.2-0.6l0.1-0.2l0.1-0.2l0.1-0.2l0.2-0.1l0.2-0.1l0.3-0.1l3.1-0.5l3.1-0.6l0.3,0l0.2,0l0.2,0.1l0.2,0.1l0.2,0.1
	l0.2,0.2l0.4,0.5l0.4,0.6l0.3,0.8l0.6,1.7l0.4,1l0.3,0.6l0.4,0.7l0.5,0.8l0.6,0.9l0.7,1l0.9,1l1,1.1l1.1,1.1l1.3,1.2l1.3,1.1
	c1.8-0.6,3.7-1.3,5.4-2l0.3-1.6l0.2-1.7l0.1-1.6l0.1-1.5l0-1.3l-0.1-1.2l-0.1-1.1l-0.1-1l-0.1-0.8l-0.2-0.7l-0.3-1l-0.7-1.7
	l-0.2-0.8l-0.1-0.7l0-0.6l0-0.3l0.1-0.2l0.1-0.2l0.1-0.2l0.1-0.1l0.2-0.2l2.7-1.5l2.7-1.6l0.2-0.1l0.2,0l0.2,0l0.2,0l0.2,0.1
	l0.2,0.1l0.5,0.3l0.6,0.5l0.6,0.6l1.1,1.4l0.7,0.8l0.5,0.5l0.6,0.5l0.8,0.6l0.9,0.6l1,0.7l1.2,0.7l1.3,0.7l1.4,0.7l1.6,0.7l1.5,0.6
	c1.5-1.2,3-2.4,4.4-3.7l-0.3-1.6l-0.4-1.7l-0.4-1.5l-0.5-1.4l-0.5-1.3l-0.5-1.1l-0.5-1l-0.4-0.9l-0.4-0.7l-0.4-0.6l-0.6-0.9
	l-1.2-1.3l-0.5-0.7l-0.4-0.6l-0.2-0.6l-0.1-0.3l0-0.2l0-0.2l0-0.2l0.1-0.2l0.2-0.2l2.1-2.3l2-2.4l0.2-0.2l0.2-0.1l0.2-0.1l0.2,0
	l0.2,0l0.3,0l0.6,0.1l0.7,0.2l0.8,0.4l1.5,0.9l0.9,0.5l0.7,0.3l0.8,0.3l0.9,0.3l1.1,0.3l1.2,0.3l1.3,0.2l1.5,0.2l1.6,0.2l1.7,0.1
	l1.6,0c1-1.6,2-3.3,2.9-5l-0.8-1.4l-0.9-1.4l-0.9-1.3l-0.9-1.2l-0.9-1l-0.8-0.9l-0.8-0.8l-0.7-0.7l-0.6-0.5l-0.6-0.4L374,159
	l-1.6-0.9l-0.7-0.5l-0.6-0.5l-0.4-0.5l-0.1-0.2l-0.1-0.2l-0.1-0.2l0-0.2l0-0.2l0.1-0.3l1.1-2.9l1-3l0.1-0.2l0.1-0.1l0.2-0.1l0.2-0.1
	l0.2-0.1l0.3-0.1l0.6-0.1l0.7,0l0.8,0.1l1.8,0.4l1,0.1l0.7,0l0.8,0l1,0l1.1-0.1l1.2-0.2l1.3-0.2l1.4-0.3l1.5-0.4l1.7-0.5l1.6-0.5
	c0.4-1.9,0.7-3.8,1-5.7l-1.3-1L389.4,139.1z M307.8,134.9c-3.1,0-5.7-2.5-5.7-5.7s2.5-5.7,5.7-5.7c3.1,0,5.7,2.5,5.7,5.7
	S311,134.9,307.8,134.9z"/>
</svg>
