<?xml version="1.0" encoding="utf-8"?>
<!-- Generator: Adobe Illustrator 27.0.0, SVG Export Plug-In . SVG Version: 6.00 Build 0)  -->
<svg version="1.1"
	 id="svg29" xmlns:rdf="http://www.w3.org/1999/02/22-rdf-syntax-ns#" xmlns:sodipodi="http://sodipodi.sourceforge.net/DTD/sodipodi-0.dtd" xmlns:svg="http://www.w3.org/2000/svg" xmlns:inkscape="http://www.inkscape.org/namespaces/inkscape" xmlns:cc="http://creativecommons.org/ns#" xmlns:dc="http://purl.org/dc/elements/1.1/"
	 xmlns="http://www.w3.org/2000/svg" xmlns:xlink="http://www.w3.org/1999/xlink" x="0px" y="0px" viewBox="0 0 1256.2 873.8"
	 style="enable-background:new 0 0 1256.2 873.8;" xml:space="preserve">
<style type="text/css">
	.st0{fill:#FF3333;stroke:#000000;stroke-width:3.2;}
	.st1{fill:#1AB31A;stroke:#000000;stroke-width:3.2;}
</style>
<sodipodi:namedview  bordercolor="#666666" borderopacity="1" gridtolerance="10" guidetolerance="10" id="namedview31" inkscape:current-layer="svg29" inkscape:cx="628.125" inkscape:cy="436.875" inkscape:pageopacity="0" inkscape:pageshadow="2" inkscape:window-height="1027" inkscape:window-maximized="1" inkscape:window-width="1920" inkscape:window-x="1912" inkscape:window-y="181" inkscape:zoom="0.27010014" objecttolerance="10" pagecolor="#ffffff" showgrid="false">
	</sodipodi:namedview>
<g id="g14">
</g>
<path class="st0" d="M464.3,435.3l0-1.5L450.1,422l-14.3-6.5l-14.2-3.4l-16.9-2.2l-0.8-4.4l-0.9-4.4l-1.1-4.4l-1.2-4.4L415,383
	l11.3-9.2l10.1-12.1l7.6-16.8l-0.6-1.4l-0.7-1.4l-0.7-1.4l-0.7-1.4l-17.9-4.5l-15.7,0.4l-14.3,3.1l-16.2,5.4l-2.7-3.6l-2.8-3.6
	l-2.9-3.5l-3-3.4l8.8-14.6l6.2-13.2l3.9-15.2l-0.4-18.5l-1.2-1l-1.2-1l-1.2-0.9l-1.2-0.9l-18.1,3.7l-14,7.1l-11.5,9l-12.2,11.9
	l-4-2.1l-4-2l-4.1-1.9l-4.1-1.8l1.6-17l-0.2-14.6l-3.1-15.4l-8.4-16.5l-1.5-0.4l-1.5-0.3l-1.5-0.3l-1.5-0.3l-14.7,11.2l-9.5,12.5
	l-6.5,13.1l-5.9,16l-4.5-0.2l-4.5-0.1l-4.5,0.1l-4.5,0.2l-5.9-16l-6.5-13.1l-9.5-12.5l-14.7-11.2l-1.5,0.3l-1.5,0.3l-1.5,0.3
	l-1.5,0.4l-8.4,16.5l-3.1,15.4l-0.2,14.6l1.6,17l-4.2,1.8l-4.1,1.9l-4,2l-4,2.1L155.7,284l-11.5-9l-14-7.1l-18.1-3.7l-1.2,0.9
	l-1.2,0.9l-1.2,1l-1.2,1l-0.4,18.5l3.9,15.2l6.2,13.2l8.8,14.6l-3,3.4l-2.9,3.5l-2.8,3.6l-2.7,3.6l-16.2-5.4L84,335.2l-15.7-0.4
	l-17.9,4.5l-0.7,1.4l-0.7,1.4l-0.7,1.4l-0.6,1.4l7.6,16.8l10.1,12.1l11.3,9.2l14.3,9.3l-1.2,4.4l-1.1,4.4l-0.9,4.4l-0.8,4.4
	l-16.9,2.2l-14.2,3.4L41.6,422l-14.2,11.9l0,1.5l0,1.5l0,1.5l0,1.5l14.2,11.9l14.3,6.5l14.2,3.4l16.9,2.2l0.8,4.4l0.9,4.4l1.1,4.4
	l1.2,4.4l-14.3,9.3L65.5,500l-10.1,12.1l-7.6,16.8l0.6,1.4l0.7,1.4l0.7,1.4l0.7,1.4l17.9,4.5l15.7-0.4l14.3-3.1l16.2-5.4l2.7,3.6
	l2.8,3.6l2.9,3.5l3,3.4l-8.8,14.6l-6.2,13.2l-3.9,15.2l0.4,18.5l1.2,1l1.2,1l1.2,0.9l1.2,0.9l18.1-3.7l14-7.1l11.5-9l12.2-11.9
	l4,2.1l4,2l4.1,1.9l4.2,1.8l-1.6,17l0.2,14.6l3.1,15.4l8.4,16.5l1.5,0.4l1.5,0.3l1.5,0.3l1.5,0.3l14.7-11.2l9.5-12.5l6.5-13.1
	l5.9-16l4.5,0.2l4.5,0.1l4.5-0.1l4.5-0.2l5.9,16l6.5,13.1l9.5,12.5l14.7,11.2l1.5-0.3l1.5-0.3l1.5-0.3l1.5-0.4l8.4-16.5l3.1-15.4
	l0.2-14.6l-1.6-17l4.1-1.8l4.1-1.9l4-2l4-2.1l12.2,11.9l11.5,9l14,7.1l18.1,3.7l1.2-0.9l1.2-0.9l1.2-1l1.2-1l0.4-18.5L381,572
	l-6.2-13.2l-8.8-14.6l3-3.4l2.9-3.5l2.8-3.6l2.7-3.6l16.2,5.4l14.3,3.1l15.7,0.4l17.9-4.5l0.7-1.4l0.7-1.4l0.7-1.4l0.6-1.4
	l-7.6-16.8L426.3,500l-11.3-9.2l-14.3-9.3l1.2-4.4l1.1-4.4l0.9-4.4l0.8-4.4l16.9-2.2l14.2-3.4l14.3-6.5l14.2-11.9l0-1.5l0-1.5
	L464.3,435.3z M327.8,437.4l0,0.6l-0.2,4.8l-0.3,3.2l-0.3,2.3l-0.4,2.3l-0.4,2.3l-0.5,2.2l-0.5,2.2l-0.6,2.2l-0.7,2.2l-0.7,2.2
	l-1.1,3l-1.9,4.4l-0.2,0.5l-0.2,0.5l-0.2,0.5l-0.3,0.5l-2.3,4.3l-1.7,2.8l-1.2,1.9l-1.3,1.9l-1.4,1.9l-1.4,1.8l-1.5,1.8l-1.5,1.7
	l-1.6,1.7l-1.6,1.6l-2.3,2.2l-3.6,3.2l-0.4,0.4l-0.4,0.4l-0.4,0.4l-0.5,0.4l-3.9,2.8l-2.7,1.8l-2,1.2l-2,1.1l-2,1.1l-2.1,1l-2.1,1
	l-2.1,0.9l-2.1,0.8l-2.2,0.8l-3.1,1l-4.7,1.3l-0.6,0.1l-0.6,0.1l-0.6,0.1L263,517l-4.7,0.9l-3.2,0.4l-2.3,0.2l-2.3,0.2l-2.3,0.1
	l-2.3,0l-2.3,0l-2.3-0.1l-2.3-0.2l-2.3-0.2l-3.2-0.4l-4.7-0.9l-0.6-0.1l-0.6-0.1l-0.6-0.1l-0.6-0.1l-4.7-1.3l-3.1-1l-2.2-0.8
	l-2.1-0.8l-2.1-0.9l-2.1-1l-2.1-1l-2-1.1l-2-1.1l-2-1.2l-2.7-1.8l-3.9-2.8l-0.5-0.4l-0.4-0.4l-0.4-0.4l-0.4-0.4l-3.6-3.2l-2.3-2.2
	l-1.6-1.6l-1.6-1.7l-1.5-1.7l-1.5-1.8l-1.4-1.8l-1.4-1.9l-1.3-1.9l-1.2-1.9l-1.7-2.8l-2.3-4.3l-0.3-0.5l-0.2-0.5l-0.2-0.5l-0.2-0.5
	l-1.9-4.4l-1.1-3l-0.7-2.2l-0.7-2.2l-0.6-2.2l-0.5-2.2l-0.5-2.2l-0.4-2.3l-0.4-2.3l-0.3-2.3l-0.3-3.2L164,438l0-0.6l0-0.6l0-0.6
	l0-0.6l0.2-4.8l0.3-3.2l0.3-2.3l0.4-2.3l0.4-2.3l0.5-2.2l0.5-2.2l0.6-2.2l0.7-2.2l0.7-2.2l1.1-3l1.9-4.4l0.2-0.5l0.2-0.5l0.2-0.5
	l0.3-0.5l2.3-4.3l1.7-2.8l1.2-1.9l1.3-1.9l1.4-1.9l1.4-1.8l1.5-1.8l1.5-1.7l1.6-1.7l1.6-1.6l2.3-2.2l3.6-3.2l0.4-0.4l0.4-0.4
	l0.4-0.4l0.5-0.4l3.9-2.8l2.7-1.8l2-1.2l2-1.1l2-1.1l2.1-1l2.1-1l2.1-0.9l2.1-0.8l2.2-0.8l3.1-1l4.7-1.3l0.6-0.1l0.6-0.1l0.6-0.1
	l0.6-0.1l4.7-0.9l3.2-0.4l2.3-0.2l2.3-0.2l2.3-0.1l2.3,0l2.3,0l2.3,0.1l2.3,0.2l2.3,0.2l3.2,0.4l4.7,0.9l0.6,0.1l0.6,0.1l0.6,0.1
	l0.6,0.1l4.7,1.3l3.1,1l2.2,0.8l2.1,0.8l2.1,0.9l2.1,1l2.1,1l2,1.1l2,1.1l2,1.2l2.7,1.8l3.9,2.8l0.5,0.4l0.4,0.4l0.4,0.4l0.4,0.4
	l3.6,3.2l2.3,2.2l1.6,1.6l1.6,1.7l1.5,1.7l1.5,1.8l1.4,1.8l1.4,1.9l1.3,1.9l1.2,1.9l1.7,2.8l2.3,4.3l0.3,0.5l0.2,0.5l0.2,0.5
	l0.2,0.5l1.9,4.4l1.1,3l0.7,2.2l0.7,2.2l0.6,2.2l0.5,2.2l0.5,2.2l0.4,2.3l0.4,2.3l0.3,2.3l0.3,3.2l0.2,4.8l0,0.6l0,0.6L327.8,437.4z
	"/>
<g id="g22">
</g>
<path class="st1" d="M1200.9,458.3l-13.4-5.9l-16.2-5.6l0.1-4.9l0-4.9l0-4.9l-0.1-4.9l16.2-5.6l13.4-5.9l13.2-7.7l12.6-12.8l-0.2-2
	l-0.2-2l-0.2-2l-0.2-2l-15.1-9.7l-14.6-4.6l-14.4-2.8l-17-1.9l-1-4.8l-1.1-4.8l-1.1-4.8l-1.2-4.8l14.5-9.1l11.7-8.8l11.1-10.4
	l9.4-15.3l-0.6-1.9l-0.7-1.9l-0.7-1.9l-0.7-1.9l-16.9-6.1l-15.2-1.2l-14.6,0.5l-17,2l-2-4.5l-2.1-4.5l-2.2-4.4l-2.2-4.4l12.2-12.1
	l9.5-11.1l8.5-12.6l5.8-17l-1-1.7l-1.1-1.7l-1.1-1.7l-1.1-1.7l-17.8-2.2l-15.1,2.2l-14.2,3.7l-16.2,5.7l-3-3.9l-3.1-3.9l-3.1-3.8
	l-3.2-3.8l9.2-14.5l6.8-13l5.5-14.2l1.9-17.8l-1.4-1.4l-1.4-1.4l-1.4-1.4l-1.4-1.4l-17.8,1.9l-14.2,5.5l-13,6.8l-14.5,9.2l-3.8-3.2
	l-3.8-3.1l-3.9-3.1l-3.9-3l5.7-16.2l3.7-14.2l2.2-15.1l-2.2-17.8l-1.7-1.1l-1.7-1.1l-1.7-1.1l-1.7-1l-17,5.8l-12.6,8.5l-11.1,9.5
	l-12.1,12.2l-4.4-2.2l-4.4-2.2l-4.5-2.1l-4.5-2l2-17l0.5-14.6l-1.2-15.2l-6.1-16.9l-1.9-0.7l-1.9-0.7l-1.9-0.7l-1.9-0.6l-15.3,9.4
	l-10.4,11.1l-8.8,11.7l-9.1,14.5l-4.8-1.2l-4.8-1.1l-4.8-1.1l-4.8-1l-1.9-17L883.3,60l-4.5-14.6l-9.7-15.1l-2-0.2l-2-0.2l-2-0.2
	l-2-0.2L848.4,42l-7.7,13.2l-5.9,13.4l-5.6,16.2l-4.9-0.1l-4.9,0l-4.9,0l-4.9,0.1l-5.6-16.2l-5.9-13.4L790.1,42l-12.8-12.6l-2,0.2
	l-2,0.2l-2,0.2l-2,0.2l-9.7,15.1L755.2,60l-2.8,14.4l-1.9,17l-4.8,1l-4.8,1.1l-4.8,1.1l-4.8,1.2l-9.1-14.5l-8.8-11.7L703,58.4
	L687.7,49l-1.9,0.6l-1.9,0.7l-1.9,0.7l-1.9,0.7l-6.1,16.9L673,83.7l0.5,14.6l2,17l-4.5,2l-4.5,2.1l-4.4,2.2l-4.4,2.2l-12.1-12.2
	l-11.1-9.5l-12.6-8.5l-17-5.8l-1.7,1l-1.7,1.1l-1.7,1.1l-1.7,1.1l-2.2,17.8l2.2,15.1l3.7,14.2l5.7,16.2l-3.9,3l-3.9,3.1l-3.8,3.1
	l-3.8,3.2l-14.5-9.2l-13-6.8l-14.2-5.5l-17.8-1.9l-1.4,1.4l-1.4,1.4l-1.4,1.4l-1.4,1.4l1.9,17.8l5.5,14.2l6.8,13l9.2,14.5l-3.2,3.8
	l-3.1,3.8l-3.1,3.9l-3,3.9l-16.2-5.7l-14.2-3.7l-15.1-2.2l-17.8,2.2l-1.1,1.7l-1.1,1.7l-1.1,1.7l-1,1.7l5.8,17l8.5,12.6l9.5,11.1
	l12.1,12.1l-2.2,4.4l-2.2,4.4l-2.1,4.5l-2,4.5l-17-2l-14.6-0.5l-15.2,1.2l-16.9,6.1l-0.7,1.9l-0.7,1.9l-0.7,1.9l-0.6,1.9l9.4,15.3
	l11.1,10.4l11.7,8.8l14.5,9.1l-1.2,4.8l-1.1,4.8l-1.1,4.8l-1,4.8l-17,1.9l-14.4,2.8l-14.6,4.6l-15.1,9.7l-0.2,2l-0.2,2l-0.2,2
	l-0.2,2l12.6,12.8l13.2,7.7l13.4,5.9l16.2,5.6l-0.1,4.9l0,4.9l0,4.9l0.1,4.9l-16.2,5.6l-13.4,5.9l-13.2,7.7l-12.6,12.8l0.2,2l0.2,2
	l0.2,2l0.2,2l15.1,9.7l14.6,4.5l14.4,2.8l17,1.9l1,4.8l1.1,4.8l1.1,4.8l1.2,4.8l-14.5,9.1l-11.7,8.8l-11.1,10.4l-9.4,15.3l0.6,1.9
	l0.7,1.9l0.7,1.9l0.7,1.9l16.9,6.1l15.2,1.2l14.6-0.5l17-2l2,4.5l2.1,4.5l2.2,4.4l2.2,4.4l-12.1,12.1l-9.5,11.1l-8.5,12.6l-5.8,17
	l1,1.7l1.1,1.7l1.1,1.7l1.1,1.7l17.8,2.2l15.1-2.2l14.2-3.7l16.2-5.7l3,3.9l3.1,3.9l3.1,3.8l3.2,3.8l-9.2,14.5l-6.8,13l-5.5,14.2
	l-1.9,17.8l1.4,1.4l1.4,1.4l1.4,1.4l1.4,1.4l17.8-1.9l14.2-5.5l13-6.8L592,706l3.8,3.2l3.8,3.1l3.9,3.1l3.9,3l-5.7,16.2l-3.7,14.2
	l-2.2,15.1l2.2,17.8l1.7,1.1l1.7,1.1l1.7,1.1l1.7,1l17-5.8l12.6-8.5l11.1-9.5l12.1-12.2l4.4,2.2l4.4,2.2l4.5,2.1l4.5,2l-2,17
	L673,790l1.2,15.2l6.1,16.9l1.9,0.7l1.9,0.7l1.9,0.7l1.9,0.6l15.3-9.4l10.4-11.1l8.8-11.7l9.1-14.5l4.8,1.2l4.8,1.1l4.8,1.1l4.8,1
	l1.9,17l2.8,14.4l4.5,14.6l9.7,15.1l2,0.2l2,0.2l2,0.2l2,0.2l12.8-12.6l7.7-13.2l5.9-13.4l5.6-16.2l4.9,0.1l4.9,0l4.9,0l4.9-0.1
	l5.6,16.2l5.9,13.4l7.7,13.2l12.8,12.6l2-0.2l2-0.2l2-0.2l2-0.2l9.7-15.1l4.5-14.6l2.8-14.4l1.9-17l4.8-1l4.8-1.1l4.8-1.1l4.8-1.2
	l9.1,14.5l8.8,11.7l10.4,11.1l15.3,9.4l1.9-0.6l1.9-0.7l1.9-0.7l1.9-0.7l6.1-16.9l1.2-15.2l-0.5-14.6l-2-17l4.5-2l4.5-2.1l4.4-2.2
	l4.4-2.2L993,762l11.1,9.5l12.6,8.5l17,5.8l1.7-1l1.7-1.1l1.7-1.1l1.7-1.1l2.2-17.8l-2.2-15.1l-3.7-14.2l-5.7-16.2l3.9-3l3.9-3.1
	l3.8-3.1l3.8-3.2l14.5,9.2l13,6.8l14.2,5.5l17.8,1.9l1.4-1.4l1.4-1.4l1.4-1.4l1.4-1.4l-1.9-17.8l-5.5-14.2l-6.8-13l-9.2-14.5
	l3.2-3.8l3.1-3.8l3.1-3.9l3-3.9l16.2,5.7l14.2,3.7l15.1,2.2l17.8-2.2l1.1-1.7l1.1-1.7l1.1-1.7l1-1.7l-5.8-17l-8.5-12.6l-9.5-11.1
	l-12.2-12.1l2.2-4.4l2.2-4.4l2.1-4.5l2-4.5l17,2l14.6,0.5l15.2-1.2l16.9-6.1l0.7-1.9l0.7-1.9l0.7-1.9l0.6-1.9l-9.4-15.3l-11.1-10.4
	l-11.7-8.8l-14.5-9.1l1.2-4.8l1.1-4.8l1.1-4.8l1-4.8l17-1.9l14.4-2.8l14.6-4.5l15.1-9.7l0.2-2l0.2-2l0.2-2l0.2-2l-12.6-12.8
	L1200.9,458.3z M901.2,438l0,1.1l0,1.1l-0.1,1.1l-0.1,1.4l-0.2,2.4l0,0.4l0,0.4l0,0.4l0,0.4l-0.3,2.3l-0.2,1.4l-0.2,1.1l-0.2,1.1
	l-0.2,1.1l-0.2,1.1l-0.3,1.1l-0.3,1.1l-0.3,1.1l-0.3,1.1l-0.4,1.4l-0.7,2.3l-0.1,0.4l-0.1,0.4l-0.1,0.4l-0.1,0.4l-0.8,2.2l-0.5,1.3
	l-0.4,1.1l-0.5,1.1l-0.5,1l-0.5,1l-0.5,1l-0.5,1l-0.5,1l-0.5,1l-0.7,1.2l-1.2,2l-0.2,0.3l-0.2,0.3l-0.2,0.3l-0.2,0.3l-1.3,2
	l-0.8,1.2l-0.7,0.9l-0.7,0.9L884,487l-0.7,0.9l-0.7,0.9l-0.7,0.9l-0.7,0.9l-0.8,0.9l-1,1.1l-1.6,1.7l-0.3,0.3l-0.3,0.3l-0.3,0.3
	l-0.3,0.3l-1.7,1.6l-1.1,1l-0.9,0.8l-0.9,0.7l-0.9,0.7l-0.9,0.7l-0.9,0.7l-0.9,0.7l-0.9,0.7l-0.9,0.7l-1.2,0.8l-2,1.3l-0.3,0.2
	l-0.3,0.2l-0.3,0.2l-0.3,0.2l-2,1.2l-1.2,0.7l-1,0.5l-1,0.5l-1,0.5l-1,0.5l-1,0.5l-1,0.5l-1.1,0.5l-1.1,0.4l-1.3,0.5l-2.2,0.8
	l-0.4,0.1l-0.4,0.1l-0.4,0.1l-0.4,0.1l-2.3,0.7l-1.4,0.4l-1.1,0.3l-1.1,0.3l-1.1,0.3l-1.1,0.3l-1.1,0.2l-1.1,0.2l-1.1,0.2l-1.1,0.2
	l-1.4,0.2l-2.3,0.3l-0.4,0l-0.4,0l-0.4,0l-0.4,0l-2.4,0.2l-1.4,0.1l-1.1,0.1l-1.1,0l-1.1,0l-1.1,0l-1.1,0l-1.1,0l-1.1,0l-1.1-0.1
	l-1.4-0.1l-2.4-0.2l-0.4,0l-0.4,0l-0.4,0l-0.4,0l-2.3-0.3l-1.4-0.2l-1.1-0.2l-1.1-0.2l-1.1-0.2l-1.1-0.2l-1.1-0.3l-1.1-0.3l-1.1-0.3
	l-1.1-0.3l-1.4-0.4l-2.3-0.7l-0.4-0.1l-0.4-0.1l-0.4-0.1l-0.4-0.1l-2.2-0.8l-1.3-0.5l-1.1-0.4l-1.1-0.5l-1-0.5l-1-0.5l-1-0.5l-1-0.5
	l-1-0.5l-1-0.5l-1.2-0.7l-2-1.2l-0.3-0.2l-0.3-0.2l-0.3-0.2l-0.3-0.2l-2-1.3l-1.2-0.8l-0.9-0.7l-0.9-0.7l-0.9-0.7l-0.9-0.7l-0.9-0.7
	l-0.9-0.7l-0.9-0.7l-0.9-0.8l-1.1-1l-1.7-1.6l-0.3-0.3l-0.3-0.3l-0.3-0.3l-0.3-0.3l-1.6-1.7l-1-1.1l-0.8-0.9l-0.7-0.9l-0.7-0.9
	l-0.7-0.9l-0.7-0.9l-0.7-0.9l-0.7-0.9l-0.7-0.9l-0.8-1.2l-1.3-2l-0.2-0.3l-0.2-0.3l-0.2-0.3l-0.2-0.3l-1.2-2l-0.7-1.2l-0.5-1l-0.5-1
	l-0.5-1l-0.5-1l-0.5-1l-0.5-1l-0.5-1.1l-0.4-1.1l-0.5-1.3l-0.8-2.2l-0.1-0.4l-0.1-0.4l-0.1-0.4l-0.1-0.4l-0.7-2.3l-0.4-1.4l-0.3-1.1
	l-0.3-1.1l-0.3-1.1l-0.3-1.1l-0.2-1.1l-0.2-1.1l-0.2-1.1l-0.2-1.1l-0.2-1.4l-0.3-2.3l0-0.4l0-0.4l0-0.4l0-0.4l-0.2-2.4l-0.1-1.4
	l-0.1-1.1l0-1.1l0-1.1l0-1.1l0-1.1l0-1.1l0-1.1l0.1-1.1l0.1-1.4l0.2-2.4l0-0.4l0-0.4l0-0.4l0-0.4l0.3-2.3l0.2-1.4l0.2-1.1l0.2-1.1
	l0.2-1.1l0.2-1.1l0.3-1.1l0.3-1.1l0.3-1.1l0.3-1.1l0.4-1.4l0.7-2.3l0.1-0.4l0.1-0.4l0.1-0.4l0.1-0.4l0.8-2.2l0.5-1.3l0.4-1.1
	l0.5-1.1l0.5-1l0.5-1l0.5-1l0.5-1l0.5-1l0.5-1l0.7-1.2l1.2-2l0.2-0.3l0.2-0.3l0.2-0.3l0.2-0.3l1.3-2l0.8-1.2l0.7-0.9l0.7-0.9
	l0.7-0.9l0.7-0.9l0.7-0.9l0.7-0.9l0.7-0.9l0.8-0.9l1-1.1l1.6-1.7l0.3-0.3l0.3-0.3l0.3-0.3l0.3-0.3l1.7-1.6l1.1-1l0.9-0.8l0.9-0.7
	l0.9-0.7l0.9-0.7l0.9-0.7l0.9-0.7l0.9-0.7l0.9-0.7l1.2-0.8l2-1.3l0.3-0.2l0.3-0.2l0.3-0.2l0.3-0.2l2-1.2l1.2-0.7l1-0.5l1-0.5l1-0.5
	l1-0.5l1-0.5l1-0.5l1.1-0.5l1.1-0.4l1.3-0.5l2.2-0.8l0.4-0.1l0.4-0.1l0.4-0.1l0.4-0.1l2.3-0.7l1.4-0.4l1.1-0.3l1.1-0.3l1.1-0.3
	l1.1-0.3l1.1-0.2l1.1-0.2l1.1-0.2l1.1-0.2l1.4-0.2l2.3-0.3l0.4,0l0.4,0l0.4,0l0.4,0l2.4-0.2l1.4-0.1l1.1-0.1l1.1,0l1.1,0l1.1,0
	l1.1,0l1.1,0l1.1,0l1.1,0.1l1.4,0.1l2.4,0.2l0.4,0l0.4,0l0.4,0l0.4,0l2.3,0.3l1.4,0.2l1.1,0.2l1.1,0.2l1.1,0.2l1.1,0.2l1.1,0.3
	l1.1,0.3l1.1,0.3l1.1,0.3l1.4,0.4l2.3,0.7l0.4,0.1l0.4,0.1l0.4,0.1l0.4,0.1l2.2,0.8l1.3,0.5l1.1,0.4l1.1,0.5l1,0.5l1,0.5l1,0.5
	l1,0.5l1,0.5l1,0.5l1.2,0.7l2,1.2l0.3,0.2l0.3,0.2l0.3,0.2l0.3,0.2l2,1.3l1.2,0.8l0.9,0.7l0.9,0.7l0.9,0.7l0.9,0.7l0.9,0.7l0.9,0.7
	l0.9,0.7l0.9,0.8l1.1,1l1.7,1.6l0.3,0.3l0.3,0.3l0.3,0.3l0.3,0.3l1.6,1.7l1,1.1l0.8,0.9l0.7,0.9l0.7,0.9l0.7,0.9l0.7,0.9l0.7,0.9
	l0.7,0.9l0.7,0.9l0.8,1.2l1.3,2l0.2,0.3l0.2,0.3l0.2,0.3l0.2,0.3l1.2,2l0.7,1.2l0.5,1l0.5,1l0.5,1l0.5,1l0.5,1l0.5,1l0.5,1.1
	l0.4,1.1l0.5,1.3l0.8,2.2l0.1,0.4l0.1,0.4l0.1,0.4l0.1,0.4l0.7,2.3l0.4,1.4l0.3,1.1l0.3,1.1l0.3,1.1l0.3,1.1l0.2,1.1l0.2,1.1
	l0.2,1.1l0.2,1.1l0.2,1.4l0.3,2.3l0,0.4l0,0.4l0,0.4l0,0.4l0.2,2.4l0.1,1.4l0.1,1.1l0,1.1l0,1.1l0,1.1L901.2,438z"/>
</svg>
