<svg id="Layer_1" data-name="Layer 1" xmlns="http://www.w3.org/2000/svg" width="190" height="100" viewBox="0 0 190 100"><title>vpd_logo_white</title><path d="M76.5,58.2l.6.4v-1l-.8.6h0m-1.1.5h.3l.4-.2h0l1.6-1.3h0v2.2h0v.3c0,.1.1.1.1.2h0l-1-.5h0a.4.4,0,0,0,.5,0h0v-.6l-.9-.4v.2h-.1v.2a.4.4,0,0,0,.1.3h0l-.8-.4h0m2.7,1.4h0c.3,0,.5-.1.5-.4h0l.6-1.3h0c-.1-.2-.1-.3-.2-.4h0l.6.3h0c0,.1,0,.2.1.2h0l.7,2.1.6-1.2h0c.1-.2.1-.4-.2-.6h0l.7.4h0c-.2,0-.4,0-.5.3h0L80.1,61h0l-.9-2.6-.6,1.2h0c-.1.1-.1.2,0,.4l.2.3h0l-.8-.2h0m5.2,1.4h0a1,1,0,0,1-1.6.1l-.3-.3a2,2,0,0,1-.1-1.1,1.5,1.5,0,0,1,1.7-.7h.7v.7h-.1a.7.7,0,0,0-.1-.6l-.4-.3a1.1,1.1,0,0,0-1.2.6c-.1.3-.2,1,.3,1.3h.3c.3.4.7.1.9-.1h0m1.5,1.1h.3a.5.5,0,0,0,.4-.3l.3-.6c.2-.8-.1-1.2-.4-1.3h-.3c-.3,0-.5.2-.5.3a.6.6,0,0,0-.2.5c-.1.3-.2.5-.1.7s.2.7.5.7h0m-.1.1a1.1,1.1,0,0,1-.9-1.5,1.3,1.3,0,0,1,1.5-.9,1.3,1.3,0,0,1,.8,1.5h0c-.1.2-.1.3-.2.4a1,1,0,0,1-.8.5h-.4m1.8-1.4h0l1.1.2h-.1v.2h0l-.2,1.1h0c-.1.3-.1.5.1.6a.3.3,0,0,0,.5.3h.4a1.1,1.1,0,0,0,.4-.5h0l.2-.9h0v-.4c-.1-.1-.1-.2-.3-.2h0l.8.2H89l-.2.3h0l-.2,1h0l-.3.5a.6.6,0,0,1-.7.1c-.6-.1-.9-.5-.7-1.2h0l.2-.9h0l-.5-.5h0m3.7,3-.6-2.1h-.2l-.3-.2H90V62h0l.5,1.5.6-1.2h0c.1,0,.1-.1.1-.2v-.2c0-.1-.1-.1-.3-.2h.9l-.3.2-.3.3h0l-.9,1.6h0m1.8.2h.3c.1,0,.2-.1.1-.3h0V62.2h0a.3.3,0,0,0-.3-.3h2v.6h-.1c-.1-.3-.2-.5-.5-.6H93c0,.1,0,.2-.1.2h0v.7h.3c.3,0,.4-.2.5-.4h.1v.9h-.1a.4.4,0,0,0-.4-.4h-.4v.8h0V64a.4.4,0,0,0,.4.2h.3a1.1,1.1,0,0,0,.9-.5h0v.7L92,64.1h0m3.5-1.2H96c.4,0,.5-.2.5-.5s-.2-.5-.6-.5-.4.2-.4.4h0v.6h0m-.7,1.3h0c.2-.1.3-.2.3-.4h0V62.3H95l-.3-.2h1.8a.7.7,0,0,1,.4.5l-.2.4-.4.2c.1.1.3.1.4.3l.3.4c.2.3.3.5.6.6h0a1.2,1.2,0,0,1-.9-.3l-.3-.4h0v-.3h0l-.4-.2h-.5V64h0a.3.3,0,0,0,.3.3h.1l-1-.2h0m7-2h.4c.3-.1.5-.3.4-.6s-.1-.2-.2-.4h-.4c-.2,0-.3.1-.3.2v.3h0v.7h0m-.5,1.3h0c.1-.1.2-.1.2-.2v-.2h0l-.4-1.5h0c0-.1,0-.1-.1-.2h1.6l.4.4c0,.2-.1.3-.1.4a.7.7,0,0,1-.6.4h-.5V63h.5l-1.1.3h0m3.7-1,.3-.2a.8.8,0,0,0,.2-.5c0-.2-.1-.4-.1-.7s-.7-1-1.1-.9l-.3.2a2.1,2.1,0,0,0-.4.6,3.5,3.5,0,0,0,.1.6,1.6,1.6,0,0,0,.4.7c.4.2.6.3.9.2h0m0,.1a1.1,1.1,0,0,1-1.5-.7h0a1,1,0,0,1,.7-1.4h.1a1.2,1.2,0,0,1,1.4.8h.1c0,.1.1.3,0,.4a1.9,1.9,0,0,1-.5.9c0,.1-.1.2-.3.2h0m1.6-.6h0c0-.1.4-.2.2-.5h0l-.5-1.4h0c0-.1-.2-.2-.4-.2h0l1-.4h0c-.2,0-.3.3-.2.5h0l.5,1.5h0c0,.1.1.1.2.2h.5l.3-.4c.1-.1.1-.2.1-.4h.1v.7l-1.8.5h0m2.3-.9h0c.2,0,.3-.2.2-.4h0l-.6-1.5h0c-.1-.2-.2-.2-.4-.2h0l1-.4h0c-.2.1-.2.3-.2.5h0l.6,1.4h0c.1.1.2.2.4.1h0l-1,.6h0m3.2-2.2h0a1,1,0,0,1-.6,1.2.8.8,0,0,1-.8.1,1.2,1.2,0,0,1-.9-.6,1.2,1.2,0,0,1,.5-1.6c.1,0,.1,0,.1-.1h.7l.5.5h-.1l-.5-.3h-.5a1.2,1.2,0,0,0-.4,1.4h0a1.2,1.2,0,0,0,1.2.7h.3a.9.9,0,0,0,.5-1h0m.9.3h0c.2-.1.2-.4,0-.6h0l-.8-1.3h0c-.1-.1-.3-.2-.4-.1h0l1.7-1,.4.5h0a1.1,1.1,0,0,0-.8-.2h-.2c-.2.1-.2.2-.3.3h0l.4.6.3-.2h0c.2-.2.3-.4.2-.6h.1l.4.7h-.1a.8.8,0,0,0-.6-.2h0l-.3.2.4.7h.5c.2-.1.2-.1.2-.2a1,1,0,0,0,.4-.9h.1l.2.7-1.8,1.3h0M92.5,48.8l-1-2.4-.5.4-.8-1L89,45.3v1.3l-.6-.8H88l-1.5-2.2v1.9l-.4-.2-.3-.5h-.3l-.4-2.1-.4-.8L84.1,43V41.3l-.4-1-.6,1h-.1v-.7h-.5V37.9l-.7,1h-.2l-.5-.7-.5.8h-.1l.3-.5.6-1-.2-.2v-.5l.3-.5.2-.9H80.5L80,35l-1,1.2h0l1.1-1.3,1.4-1.2-.5-.2h0l.3-.3V31.3l-.5.2v-.4l.4-.3.3-1,.2-.7h-.9l.6-.2v-.5l.9-1h-.4v-.6h-.4l.5-.3h.5l.2-.5.2-.4.7-.8H83v-.2h.9l.8-.9.4-.4.9-.7.5-.3v-.6h-.4l1.2-.9-.3-.2h0v-.2l.2-.4.5-.7H86.5l-.2-.6-1.1,1.1-.4.3h-.1l.5-.8h-.9V17.5l-.3.8-.2.2-.2.3h-.5l-.3.8h-.1V19l-.3-.9-.4,1v.2h-.3L80.5,19v1.8h-.5l-.4-.7-.2,1.1-.3.2h-.5l-.4-.5v2.5l-.3.4h-.3l-.6-1-.4,1.5v.3l-.5.2.4,1.8v.3h-.1v-.2h-.6l-.4-.2-.5-.6v1.9h-.6l.4,2.2v.8l-.9-.6.3,1v.9l-.3.3-.6.2,1,1.1v1h-.5L72.2,34l.4,1.3v.8l-.3.4,1.6,1.6v.4l-.2.5-.2.3-.8-.3.7,1.3v1.2l-.3.5,1.4,1.1h-.7l1,1.1.3.6v1.1l1.3.3.9.6.2.5h-.7l-1,.2L77,48.8l.4.5v.2l-.3.4,2.5.4H80l.2.4V52l-.4.2H79l.9.5,1,.5.5.4v.7l1.1-.3h1l.7.2.2.2L83,55.9h1.7l.6.2.4.2.2.3v.5l1.1-.5.6-.3h.8l.5.2.5.4.2.5.3.7.4-.5.6-.4v-1h-.7l-.8-.3-.5-.3.3-.7.3-.7.5-.3v-.3l-.2-.3-.3-.6-.3-.6-.5-.5.5-.2.7-.2.7-.3.4-.2-.2-.5V48.7l.7.2H92l.3-.2h0m5.4-33.9c0-.2-.1-.6-.3-.7a.7.7,0,0,0-.7.3,1.4,1.4,0,0,1,.1-1.1c.1-.2.6-.2.8,0l.2.4h.1c-.1-.6-.1-2.6.6-2.4s.2,2.3.1,2.4h.1c0-.2.3-.6.5-.6s.3,1,.1,1.4-.7-.3-.8.3h-.8m-7.3.3c.1-.3,0-1.1-.4-.8s-.3.7-.5.3-.1-1,.3-1.1.3-.1.5.3l.2.3h-.1c-.2-.2-.2-.4-.3-.9s.1-1.8.4-1.9,1,2.8.6,2.7h0v-.2h0s-.1-.4.4-.5.5.8.3,1.3-1-.3-.8.6-.4-.1-.7,0h0m7.4,2.3h.4c.2-.2.1-.4-.2-.6h-.8v.2h0a.7.7,0,0,0,.6.5h0m-7.2-.4c0,.6,1.7.3,1.1-.3a.8.8,0,0,0-1,.3h-.1m11.2-4.8-.3-.2h0c.4-.9,1-3-.7-4s-3.3,1.4-5,1.4h0V9h0c1.2-.2,2-1,3-1.4a2.8,2.8,0,0,1,2.8.6c.3.3,1.2,1.6.1,4.1h0m-14.9.4a4.5,4.5,0,0,1-.5-3.4,2.5,2.5,0,0,1,1.6-1.6,3.7,3.7,0,0,1,3.1.6c.4.2,1.1.8,1.8.7s.1.4.1.6a9.7,9.7,0,0,1-2.6-1.1,3.3,3.3,0,0,0-2.6-.2c-.4.2-1.1.7-1.1,1.4s.1,1.4.1,2a1.9,1.9,0,0,0,.4.9h-.3m6.8-.6a17.4,17.4,0,0,0-.1-3.2l.4.3c0,.9,0,1.9.1,2.9h-.4m1.5-.1a.7.7,0,0,0,0-.9c.2-.1.2-.4,0-.6s.1-.5,0-.7.2-.4,0-.6h.4a8.9,8.9,0,0,0-.1,2.8H95m-1-.5V9.2h.1c.1-.2,0-.3.1-.5s.8-.2.9.5-.4-.2-.6-.1h-.2c-.2.1-.2.5,0,.7a.8.8,0,0,0,0,.7.6.6,0,0,0,0,.6c-.2-.1-.2,0-.3.2h0m0,.6v-.5c0,.4.2.5.4.5H94m1.6-.1A27.1,27.1,0,0,1,95.5,9c.2-.1.2-.3.5-.3a11.6,11.6,0,0,0-.1,3.2h-.4M94.1,6c0-.1,0-.5-.1-.4l-.9.4h0V4.7h0l1,.2a.6.6,0,0,0,0,.6.4.4,0,0,0,.7.1H95a.6.6,0,0,0,0-.6l1-.2h0V5.8h0c-.4-.2-.6-.4-1-.2s-.1.3-.1.4h-.7m.1-1.2a1.9,1.9,0,0,0-.3-1h1.1l-.3.9h-.6m4.1,10.8-.9-.2c0-.1.8-.3,1-.3s.7.1.7.4-.6.1-.8.1h0m-8.1.1c0-.4,1.2-.6,1.5-.5s-1.3.7-1.5.5h0M98,17.3l-.4-.2h0c.1-.2.4-.2.6-.1l.2.2c.1.2-.1.3-.3.3h0m-7-.2c.1-.5.9-.3.9-.1s-.8.3-.9.1h0m-2.6-2c.6-.1,1,.4,1.2.4s-.7-1.8-.6-2.5h-.2a.8.8,0,0,1-.7,1h-.1c-.3-.1-.3-1.1.2-1.4s.2-.1.3-.3h0l-.8.2a1.1,1.1,0,0,1-.3-.8,1.7,1.7,0,0,1,.2-1.2c.6-.7,1.2-.6,1.3-.5a1.4,1.4,0,0,0,1,.4c1,.1.8.4,1.1.2h.1l.3-.4c0-.1-.1-.2-.1-.1s-.1.4-.3.4l-1.2-.2h0l1-.4h0a3.6,3.6,0,0,1,2.7.7,2.8,2.8,0,0,1-.1,1.3h0c.4.2,1,1.2.5,1.6s-.8-.8-1.1-1.1h-.1a16.7,16.7,0,0,1,.2,3.1h.1a1.8,1.8,0,0,1,.7-.8h0a.5.5,0,0,1,.6.2h0c-.2.4-.2.5-.4.7s-1.6,0-1.7-.3,0-.4-.3-.6-.1-.5.1-.6.6.6.7,0,0-1.2-.5-1.4h-.4c0-.8-.3-2-.8-2.1s-.5.6-.6,1,.2,1.3.1,1.4h-.4a1.2,1.2,0,0,0-.1,1.5c.1.3.3.1.6-.4s.3.4.2.6h0l-.3.2c-.2.1-.2.3-.1.5s.2.1.4,0a1.2,1.2,0,0,1-1.9.3,1.7,1.7,0,0,1-.6-1h0M99.7,16c-.3-.1-.7-.2-.7-.6s.2-.5-.1-.7,0-.4.3-.5.2.3.3.6.3-.6.4-.7-.1-1.6-.8-1.1.1-1.9-.4-2.1-.9,1.5-.8,2a.9.9,0,0,0-1,0c-.3.3-.3,1.3.1,1.5v-.2c.1-.2.2-.5.5-.4a.7.7,0,0,1,.1.6h-.2l-.3.2h0v.2h0c.4.2-.3.6-.5.7s-1.9-.7-1.4-1.4,1.4.2,1.4.8h.1c.2,0-.6-1.2-.1-3h-.1a1.2,1.2,0,0,1-.5,1,.4.4,0,0,1-.6-.1h0c-.1-.1.6-1.1.8-1.1H96a4.3,4.3,0,0,1,0-1.6h0l.6-.2h2.2c.8.1.5.5.3.6s-1.1.3-1.1,0h-.1c0,.2,0,.3.1.4a3.3,3.3,0,0,0,2.1-.5h0l.3-.2h0c.5-.3,1.2.2,1.5.7s-.2,1-.2,1-.3-.2-.5,0,.3,1.2.4,1.8-1.1-.8-1.1-1.2h-.1c-.1.3-.5,2.2-.6,2.8s.6-.6,1.1-.6a3.7,3.7,0,0,1-.1,1.1,1.1,1.1,0,0,1-1,.4h0M88,16v.3l.2.2h.1l-.3-.3V16h0m3.5-2.2h.4v-.5h-.4v.3h0m7.6,0h.4v-.4h-.3v.4h0m-1.2.1v-.4h-.5v.4h.8m.2,35h0v1.4l-.2.3h-.8v-.2h0V50h-1v-.3l.2-.3.4-.3h1m-6.1,1h0v.4h-.6l-.2-.3V48.7h.9l.3.2.2.2V50H92v-.2h0m-3,5.6v-.6l.2-.3.2-.2.3-.2h.7v.4l-.2.2-.2.2h.9v.3l-.2.3-.2.2h-.9l-.4-.2h-.5m5.7,2.3h0l.2-.2h.9v.8l-.3.3-.3.4h-.2l-.3-.3-.2-.2-.2-.2V57.3h.6l.2.2h0m4.1-2.9h-.3v-.4h.9v.2l.2.3v.8l-.6.2h-1v-.6h.6m-1.9-6h.8l.7-.2V51l.3.2.7.3.7.2h.6l-.5.6-.3.7-.4.5L99,54h.3l.4.3.3.6.2.7h-.4l-.6.3h-.6v1.7l.4.3.3.4.2-.5.2-.5.5-.5.5-.2h.8l.6.3,1,.4V57l.2-.4.5-.2.7-.2h1.4L104.7,55l.4-.2.9-.2h.9l1.1.3v-.6l.5-.4,1-.5.5-.3h-.5l-.5-.3V51.2l.2-.5.4-.2,2.4-.4v-.6l.4-.5,1.1-1.1h-.9l-.4-.2H112v-.6l1-.6,1.2-.2-.2-.6v-.4l.4-.6.9-.9h-.9l1.6-1.2V40.7l.5-1.1-.5.2h-.5l-.3-.6v-.5l1.5-1.6-.3-.4v-.8l.3-1-.8.4h-.6v-.6l.2-.7.9-1H116l-.3-.4v-.8l.2-.8-.7.5-.3-.4v-.7l.6-2h-.4l-.2-.2V26.5l-.3.3-.5.3h-.5v.2h-.3l-.2-.5.4-1.7-.5-.2-.3-.4-.2-1.1-.6.9-.4-.2-.4-.5V21.5l-.2.2h-.4l-.4-.3-.2-.8-.3.4H109l-.2-.4V19.3H108l-.5-.3v-.6l-.2.6v.6l-.3.2V19h-.6l-.2-.3-.2-.3-.2-.4v1H105l.4.7h-.9l-.4-.3-1-.9V19h-1.5l.4.5v1.1l1.4,1h-.5V22l.4.3.9.7.4.4.7.9h.7l.3.2v.4h-.5l.6.7.2.4v.4h.6l.8.5h-.5v.6h-.4l.9.9v.4l.6.2v.3h-.8l.2.5.3,1,.4.3V32l-.4-.2v1.3l.3.3v.3l-.4.2,1.2,1.1,1.2,1.4-.4-.4L109,34.5v1l-.4.3h-.5l.2.7.3.5v.6l-.6.4.9.7V39h-.3v-.2l-.4.6h-.4l-.6-.8V41h-.5v.8h-.2l-.6-.9-.2.7v1.1l-.3,1-.5-1.2-.3.6-.4,2.3h-.4l-.3.5-.5.3V44.4l-1.3,1.9h-.3l-.7,1-.2-1.3-1,.4-.9,1-.4-.4-1.3,1.9h0m3.8-1.6h.6l-.2,2.1h.4l2.6-2.6.5.5h2.6l-.4.5-.4.6-.3.7v1.3l.2.5-3.1,1.4-.2.2v.2l1.9.6-.5.4v.7l.4.6-.5-.5v-.6l.2-.3.4-.3-1.9-.5h-.5v-.2l.2-.2,3.5-1.5-.2-1v-.8l.4-.7.5-.8h-2.4l-.4-.4L101,50.5V47.8h-.5v-.2h0m8.1,4.7.2.2v.2h-.2l-.2-.2V51.3h-1.7v-.4l2.7-2.4-.4-.3-.2-.3v-1l.3-1.1.3-.7-1.7.4h-.8l-.2-.3-1.9,2.4h-.2l.3-.3v-3l.2.6v1.8l1.5-2-.6-1.1-.5.4-.2-.5.2.3.5-.4.6,1.2.2-.2v.3l.2.3h1l.9-.2.8-.2-.4.9-.3,1.1v1.1l.3.2.3.2L107,50.5v.2h1.5V52h0m3.2-4.7v.2l-.3-.2h.1v-.6h-1.4V46l.2-.4.5-1,.5-.8.5-.7H111l-.2-.2V41.1l-.8.6-.5.3h-.9l-1,2.8h-.1l.6-1.8-.6-1.3H107l.5-.3.6,1.4.4-.9h.6l.4-.2.5-.4.5-.4.3-.3v1.7l.2.3h.8l-.6.7.6-.4.3-.2.9-.4v.6h0v-.4l-.9.4-.4.3-.7.5-.3.4-.5.9-.2.7h0v.2h1l.4-.2v.5h.1V47h0l.5.2h0m-.4-5.2v.9h-.1l.4-1.8.5-1.6h-.9l-.2-.6-.2-.6-.2-.6-.2-.5-.3.5-.3.4-.3.4-.4.4-.5.3h-.3v2.5h0V39.2h.4l.4-.2.4-.4.2-.3.3-.4.2-.5v-.5l1,2.4h.9l-.5,1.8V42h0m3.9-2.4-.3.2h-1.4v-.2h-.1l-.2.4-.3.3-.2.2H113V36.6h-.9l-.2-.2-.3-.6-.3-.7-.3.7-.2.4-.3.3-.4.2h-.4l.4,1.5H110l-.5-1.7h1l.2-.2.2-.4.2-.4v-.3l.7,1.3.2.2h.9v3.4h.6l.2-.4V40h2l-.3-.2h0m-.5-4.6H114l-.4.6-.3.4-.3.2-.2-.2V32.7h-.9l-.2-.2-.7-.8-.4.8-.3.6-.2.2h-.6l.9,2.2h.1l-1-2.5h.6l.2-.2.2-.4.5-1.2.5.6.4.5h.6l.4-.2v3.2l.2-.2.2-.2.5-.7.3.3.3.2h.6m-.1-3.9-.3.3h-.9l-.4.7-.3.4-.2-.2V30.5l-.2-1.3h-.8l-.3-.2-.9-.8-.2.7-.2.5-.2.4-.3.4.4.6.3.7.4,1v.4l-1.4-1.2h-.1l-.2.3v.3h-.5v-.2l.2.2.3-.5h.4l.4.3.4.3h.2v-.2l-.5-1.2-.4-.6.3-.3.3-.4.2-.4v-.5l.2-.6.5.6.5.4.3.3h.8v2.9h.3l.5-.7v.2l.2.2h.7v-.6h0m-1.9-3.9H112V29l-.6-1.2-.6-1.2-.2-.7-.3.2-.3.2h-.4l-.5-.2-.6-.3v1.8H108l1,1.2.5.5-.5.5-.9-.5V29l1.1.6.3-.3-.5-.7-1-1.2h.5V25.5l.5.2.5.2h.7l.3-.2.2-.2.3.9.5,1.1h.5v-.2h.2m-1.3-3-.3.5-.6-.4v1h-.3l-1.5-1.6V24h-1.4l.2.3.2.6v.6H107l1.4,1.1v.2l-.9-1.2h.4V24.3l-.4-.3H109l.2-.3,1.2,1.4h.4v-.8h.2l.5.4.2-.2v-.4h0M109.5,21l-.2.3-.2.2h-.4l.2,1.4h-.2l-1.7-2v.3l-.2.2H106l-.7-.2.2.3.2.5v1l.8.3.6.3.5.2.2.3h-.6l-.2-.2-.3-.2-1.1-.5h.2v-.9l-.2-.4-.3-.7h1.8v-.5l1.6,1.7h.2V21.3h.6V21h0v.2h0M106.9,20h-.1l.2.5h-.4l-1.5-.9-.3.3h-1.4l.2.3.2.3v.8h.4l.4.2.5.2.2.4v.4h-.8v.4h0v-.4h.9v-.6l-.7-.3H104V20.4l-.3-.4h1.4l.2-.2.2-.2,1.4.8h.3V20h0M80.5,51.8V50.5H82v-.2l-2.5-2.6.4-.2.3-.2V46.2l-.3-1.1-.4-.8.8.2.9.2h1l.2-.3v-.1l.6-1.2.5.4.2-.3-.2.5-.5-.4-.6,1.1,1.5,2V44.6l.2-.6v2.5l.3.3h-.1l-1.9-2.1V45h-.9l-1.6-.4.3.7.3,1.1v1l-.2.3-.4.3,2.7,2.4v.4H81V52h-.5l.2-.2h0m-3-4.7h.5v-.5l.3.2h1v-.2h0v-.7l-.5-1-.5-.7h-.2l-.6-.4-.9-.5v.4h-.1v-.6l.8.4.3.2h.2v-.4h.6l.2-.3V40.6l.3.3.5.4.5.4.5.2h.3l.3-.2.4.9.6-1.4.5.3h-.5l-.6,1.3.6,1.8H82l-1-2.8h-.5l-.3.2-.5-.3-.8-.7v1.7l-.2.2H78l.5.7.5.8.5,1,.2.4v.7H78.2V47H78l-.3.3v-.2h0m.1-5.1-.2-.8-.5-1.8H78L79,37v.5l.2.5.3.4.2.3.4.4.4.2H81v2.6h-.5V39.3h-.3l-.4-.2-.4-.4-.3-.4-.3-.4-.3-.5v.5l-.2.6-.2.6-.2.6H77l.5,1.6.4,1.7h-.1l-.2-1h0m-3.9-2.5h1.5l.2-.2.2-.3.2.4v.2h.5V36.2h.9l.2-.2.7-1.3V35l.2.4.2.4.2.2h.2l.3.2h.4l-.5,1.7H79l.4-1.5H79l-.3-.2-.2-.2-.2-.3L78,35l-.3.7-.3.6-.2.2h-.7v3.9h-.1l-.2-.2-.3-.3-.2-.4v.2l-.2.2H74l-.3-.3h0m.5-4.5h.3l.4-.2.3-.3.5.7.2.2V32.4l.5.2H77l.5-.5.5-.6.5,1.2v.4l.2.2h.7l-1,2.5h0l1-2.2h-.6l-.2-.3-.3-.6-.4-.8-.7.8-.2.2h-.9v3.2l-.2.2-.3-.2v-.5l-.4-.6h-.1l-.3.2h-.5m0-3.9h.1v.2h.6l.2-.2v-.2l.5.7h.3V28.7H77l.3-.3.4-.4.6-.6.2.6v.9l.4.4.3.3-.3.8-.5,1.2v.2h.1l.4-.3.5-.3h.3l.3.5.2-.2v.2h-.2l-.2-.3-.2-.3h-.1l-1.4,1.2h.3v-.2l.5-1,.3-.7.4-.6-.3-.4-.4-.5-.2-.5-.2-.7-.9.8-.2.3h-.8l-.2,1.5v2L76,32l-.4-.7H74.5l-.3-.3h0m2-4h0v-.2h.5V27h.5l.5-1.1L78,25l.2.2.3.2h.7l.5-.2.5-.2v2h.5l-1,1.2-.6.7.4.3,1-.6V29l-.9.5-.4-.5.4-.5,1-1.2h-.3V25.4l-.7.3-.4.2h-.4l-.3-.2-.3-.2-.2.7-.6,1.2-.6,1.2V27l-.2.2h-.4m1.3-3h.2l.2.2.5-.4h.2v.8H79l1.2-1.4.2.3h1.5l-.3.4v1.2h.3l-1.6,1.3v-.2l1.3-1.1h-.2v-.6l.2-.6.2-.3H80.5v-.2L79,25.2h-.5v-1l-.5.4-.5-.4h0m2.4-3.1H80v.3h.5v1.1h.2l1.6-1.7v.5h1.8l-.3.7-.2.4v.9h.2l-1.1.5-.3.2-.2.2h-.6l.2-.3h.7l.6-.3.9-.3V21.9l.2-.3-.7.2H83l-.5-.4v-.3l-1.7,2h-.2l.2-1.4h-.4l-.2-.2-.2-.2h0m2.6-1.5h.4l1.4-.8.2.2v.2H86l-.3.4V20h-.2v.9h-.6l-.7.3v.6H85v.4h-.1v-.4h-.8v-.4l.2-.4.5-.2.4-.2h.4v-.8l.2-.3.2-.3H85l-.5-.2-.3-.3-1.5.9-.2.2h0v-.5h0v-.2h0m12,31.5v1.3h-.9l-.3-.2-.3-.3V50.2l.2-.5.4-.5.5-.4.4-.4.2-.2.2-.3.4.5.6.6.4.6.3.7v1.1l-.2.3-.2.2H94.9V50.6h0m-5.4,1.1h.9l.5-.2.5-.2h1.5v.2l.2.2.3.3v1.1h-.9l.5.2v1.2H91.1l-.3-.2-.2-.2-.3-.3-.2-.3-.5-.9v-.5l-.2-.3h0m3.9,4,.3-.4.3-.2h.5l.2.2.2.3v1l-.2.3-.3.3-.3.2-.4.2-.6.2h-.5l-.5.2-.4.2-.4.3V55.9l.2-.4.2-.4.3-.3.3-.2H93l.3.2.2.3v.6h-.3m3.4-.1-.4-.3h-.1V55h0v-.2l.2-.2h1.2l.2.2.3.4.4.5v2.7l-.3-.2H96.5L96,58l-.5-.3-.4-.3V55.5l.2-.2h.8l.4.3h0m1-2.9H96v-1l.2-.4.2-.2.3-.2h1.5l.3.2.4.2.4.2h1l-.5.6-.2.6-.3.5-.4.4-.3.3-.6.2h-.6l-.5-.2-.2-.2-.3-.2v-.7l.3-.3h.7M94.8,52a1.4,1.4,0,1,1,0,2.8,1.4,1.4,0,0,1-1.4-1.4A1.4,1.4,0,0,1,94.8,52h0m-.5,1.7h-.1c-.1.1,0,.1.1.1a.1.1,0,0,0,.1-.1h-.1m.4-.4a.1.1,0,0,0-.1.1c-.1.1,0,.1.1.1a.1.1,0,0,0,.1-.1h0c0-.1,0-.1-.1-.1h0m.1-.5c-.2,0-.3.1-.3.2s.1.2.3.2h0L95,53a.2.2,0,0,0-.2-.2h0m-.1-.6c-.2,0-.2.1-.2.2s0,.2.1.2.3,0,.3-.2h0a.2.2,0,0,0-.2-.2h0m-.5.2c-.2,0-.2.1-.2.2s0,.2.1.2.3,0,.3-.2h0c0-.2-.1-.2-.2-.2h0m-.3.3c-.2,0-.3.1-.3.2s.1.2.2.2.2,0,.2-.2h0c0-.2,0-.2-.1-.2h0m-.2.4c-.2,0-.2.1-.2.2s0,.2.1.2.3,0,.3-.2h0l-.2-.2h0m.1.5c-.2,0-.3.1-.3.2s.1.2.2.2.3,0,.3-.2h0c0-.2-.1-.2-.2-.2h0m.5-.4c-.2,0-.3.1-.3.2s.1.2.2.2.3,0,.3-.2h0a.2.2,0,0,0-.2-.2h0m0-.5h-.1c0,.1,0,.1.1.1s.1,0,.1-.1h-.1m4.9-2h0V49.6l.6-1.8-.7,3.1h0m1.1,1.9h0l2.2-2,2.6-1.9-4.9,3.9h0m-.1,1.5,2.4.6,2.9,1.1h-.5l-.7.2.3-.4h0L100,54.4h0m2-5.8h0l.7-2.8v1.1l-.6,1.7h0m2.4,4.2h4.7l-.8.5v-.2l-.2-.2h-.4l-3.4-.2h0m3-5.6.6-.9,1-.9-1.6,1.8h0m1.1,2.4,2.4-.9,1.9-.5-.9.9v-.3H111l-2.4.9h0m.9-5.1h0l.3-1,.7-1.5-1,2.5h0m1.4,1.7,1.6-1.2,2-1.1-.5.9h-.5l-.5.2-2,1.2h-.1m-.2-5.4.2-2.4.4,1h-.2v.2l-.3,1.3h0m2.1,2,1.1-1.3,1.1-.8.7-.4-.4,1.4v-.7H115l-.8.6L112.8,43h0m-1.4-6.5h0l.3.4v-.4h0m2.8,2.1.8-1.3.4-.6.4-.6.9-.8-.2.8v1l-.3-.3v-.2h-.2l-.8,1L113.9,39l.3-.7h0m-1.5-1.9h0l-.2-1.4-.3-1.1-.4-1.5.3.3.2.2.3.2h-.5l.2.6.2,1.3v1.4h0m1.5-1.8V34l.2-.6.3-.8.4-.6.5-.6v1h-.4v.4l-.9,1.8h0M112.2,32h0l-.3-.9-.4-.9-.4-1v-.3l.3.3.2.4-.3-.2.3.7.3,1.1.3.8h0m-1.6-4.4-1-1.6h.2l.8,1.4h0m2.9,3.5V29.8l.5-1.4.5-.9v.8h-.4v.2l-.3,1.2-.3,1.3h0m-1.1-4.2h0m-3-1.5h0l-1.2-1.1h.3l1,1h0m1-.9h0l-.4-1.6h0l.4,1.7h0m-2-.8h0l-1.4-1-1-.8,1,.6,1.4,1.2h0m-.2-2.2-.4-1.6v-.3l.3,1.9h0m-2.3-.1h0l-1-.5-.6-.4.5.2,1.1.7h0m.1-1.4-.4-1,.4.5V20h0m-2.7.1h0l-1.1-.7.6.3.5.4h0M90.2,50.7l-.7-3.1.6,1.8v1.3h0m-.9,2.2-5.5-4.3,3,2.1,2.5,2.2h0m.1,1.2-4.4,1.4h0l.3.4-.8-.2h-.5l2.9-1.1,2.5-.6h0m-2.1-5.8-.6-1.7v-1l.7,2.8h0m-4.4,4.5H81.2L81,53v.3l-1-.6h5.8l-2.8.2h0m-1-5.8-1.7-1.8,1.1.9.6.9h0m-2.7,1.8,2,.8-3.1-.9h-.7v.5l-1.3-1.2,2.2.6.9.3h0m.8-4.5-1-2.6.7,1.5.3,1.1h0m-1.6,1.6h0l-2-1.2-.5-.2h-.5l-.6-.9,2,1.1L78.5,46h0m.4-5.4h0l-.4-1.4V39h-.1l.4-1v2.4h0m-2.2,2h0l-1.4-1.3-.8-.6H74v.7L73.5,40l.7.4,1.1.8,1.2,1.3h0M78,36.1v.5l.4-.5h0M76,39l-.7-.8-.9-1.1-.7-.8h-.3l-.4.4V35.3l.6.6,1,1.4L76,39h0m.8-2.7V34.9l.2-1.1v-.6l-.5-.2.4-.2v-.2l.4-.3L77,33.8l-.3,1.1v1.4h0m-1.4-1.9-.8-1.8v-.4H74v-1l.5.6.4.6.3.8.2.6v.6h0m2-2.5V31l.4-1.1.3-.7-.3.2V29l.4-.3V29L78,30l-.5,1-.3.9h0m1.5-4.4h0l.7-1.4h.3l-1,1.6h0m-3,3.3h0l-.2-1.4-.3-1.2v-.2h-.3v-.8l.5.9.4,1.4v1.2h0m1.4-4.1h0m2.9-1.5.9-1.1h.4l-1.2,1.2h0m-1.1-.9.3-1.7h0l-.3,1.6h0m2.2-3.1h0l.3-1.9v.3l-.4,1.6h0m22.3,24.2h0l.2.5v-.4h0m3.3-1.5h0v-.6l-.4-.9.5.8v.7h0m1.4-2.7h-.1v.1h0m1-12.5-.9-.6.5.2.4.4h0m-.1,1.8h0l.4.2.4.4-.8-.6h0M97.1,48.8,98,47l.4.4.9-1,.9-.5L99,49.7l.8-3.4-.4.3-1.1,1.2-.3-.5-.8,1.5h0m5.5,1.4-2.6,2.7,1.4-1.2,1.4-1.2,3.4-2.4-.7.8.4.8V48.4l.2-.4.3-.5h-2l-.3-.2h-.1l-1.3,1.3,1.2-1,.4.2,1.6.4-3.4,2.1h0M100,54.2h0l2.5.3,2.8,1.4-2.9-1.1-2.4-.6h0m.7-7.2.6-.8h.4l1.1-1.7V46l-.6,2.4.6-3.6-.9,1.4h-.3l-.7.7h0m3.3-1.8.4-2.2.2-.3-.6,2.5h0m2.4.4.4-.6.2.2h.7l1.7-.4-.3.4-1.1.8.6-.7H107l-.4.4h0m1.9,5.5v.8l.2.3.4.3.7.4h-.3l-2-.2h1.3l-.3-.6V51h0m-.2-8.1.3-.7h1l1.1-.9v.5l-.7,1.5.2-1.1-.7.2h-.6l-.5.5h0m2.9,3.8.3.4.3.3.6.3.9.2H113l-1.8.5-2.3.9,2.5-1.1.8-.3-.5-.4-.3-.4v-.5h0m2-3.3h1.9l-.5.3-1.6.9-.4.2,1.5-1h-.8v-.2h0m1-3.5h1l.5-.2v.3l-.7.4-1.1.9,1.1-1.1h-1.1m-5.3.2V40l.6-.2.3-.2.4-.4.3-.4.3-.5h.1v.6l-.2,2.3v-2l-.3.2-.5.4-.4.2-.5.2v.4h0m1.1-2.9v-.4h.8l.2-.2.2-.3.2-.3v2.8l-.4-1.4v-.8l-.5.4-.4.2h-.5v.2h0m4.7-2.1h1.7l.4-.3-.9,1-.4.6-.3.5-1.3,2.3.5-1.1,1.1-1.9v-.6l-.2-.2-.6-.2h0m-5.6-2.4h0l.4.2.4.4-.8-.6h0m1.4,1.3-.2-.5h.6l.2-.3.2-.4.3-.8.2.6.3,1,.3,1.2V35l-.7-1.7-.2-.5-.4.6-.3.2H110V34h0m3.7-2.3h.7l.3-.2.6-.5-.2.5-.7,1.1-.3.7.3-.9.2-.4h-.9m-4-1.3-.2-.4.4-.6.3-.4v-.8l.3.7v.3l.5,1.1.4.9-.7-1.4-.4-.6-.5.5-.3.3v.4h0m4-3.7h.7l.4-.2h.1l-.3.7-.5.9-.2.7v-.8l.3-1h-.5v0h0M109,28l-.3-.3h.3v-2l.5.3,1,1.6-1-1.4h-.2v1.2H109l.3.3h0m2.6-2.9.8-1.1v.6l-.6.5h0m-5,.7h.3l.4.3-.7-.3h0m1.3.2-.2-.2h.1V24.3l-.2-.3.4.2,1.2,1.2-1.1-.9v.8l-.2.2.2.2h0m-1.9-2.2h-.4v-1l-.2-.4v-.3l.6.3,1.2.9,1.2.9-2.5-1.6v1.1h.3m3-1.7h.2l.2-.2.2-.2.2-.4.2.8v1.6l-.2-.6V21.4l-.4.2-.4.2h0m-4.7-.2H105v-.8l-.4-.5.6.2.5.4-.5-.3H105v1h.1m2.7-1.7.4-.4.2-.7.3.8v.3l.3,1.3-.5-1.8-.2.3-.5.2h0m-1.8-.8.2-.4v-.5l.3.8.2.7-.4-1.1v.2l-.3.3h0m-3,1.8-.3-.2h.3v-.4l-.5-.8.5.3,1,.7-1.1-.6v1h0v.2h0M86,45.4v-.1h0m-3.6-1.4v-.7l.5-.8-.4.9v.6h0m-1.4-2.6.2-.6v.4l-.2.2h0m-.9-12.5h0l.3-.4.5-.2-.8.6h0m.2,1.8-.9.7.4-.4.5-.3h0M92.2,48.7h0l-1-1.6-.3.5-1.1-1.2-.4-.3.8,3.4L89,45.7l1,.5.9,1,.3-.4,1.1,1.9h0m-5.4,1.4-3.5-2.2,1.6-.4.4-.2,1.1,1L85.2,47h-.1l-.3.2H82.7l.3.5.2.4v1.3l.4-.8-.6-.7,3.5,2.4,1.4,1.2,1.4,1.2L86.7,50h0m2.5,4-2.4.6-2.9,1.1,2.8-1.4,2.5-.3h0m-.6-7.3h0L88,46h-.3l-.9-1.4.6,3.6-.6-2.4V44.1l1.1,1.7h.4l.5.8h0m-3.4-1.8h0l-.6-2.5.2.3.4,2.2h0m-2.2.5h0l-.7-.3H80.7l.6.7-1.1-.8-.3-.4,1.7.4h.7l.2-.2.5.6h0m-2,5.5v.9l-.3.6H82l-2,.2h-.3l.7-.4.4-.3.2-.3v-.9h0m.2-8.1h0l-.3-.6h-.6l-.7-.2.2,1.1-.7-1.5v-.5l1.1.9h1v.8h0m-2.9,3.9V47l-.3.4-.5.4.8.3,2.5,1.1-2.3-.9-2-.4h-.4l.9-.2.6-.3.4-.3.4-.3h0m-3-6.9h-1L75.5,41l-1.1-.9-.7-.3-.2-.3.5.2h1.1l.3-.2h0m5.3.1v-.4l-.5-.2-.4-.2-.5-.4-.3-.2v2l-.5-2v-.6h.1l.4.5.3.4.4.4.3.2.6.2v.5h0M79,33.7h0v-.4h-.3l-.3-.2-.4-.6-.2.5-.7,1.7v-.3l.3-1.2.3-1,.2-.6.3.8.2.4.2.3h.6l-.3.5h0m-3.7-2.3h-.7l.2.4.3.9-.3-.7L74,30.8v-.5l.6.5.3.2h.6m4-1.2h0v-.4l-.4-.3-.5-.6-.4.6L77.5,31l.4-.9.5-1.1v-.3l.3-.7v.8l.2.4.4.6v.5h0m-3.5-3.4.2.3-.2-.3h-.7l.3,1v.8l-.2-.7-.5-.9-.3-.7h.1l.4.2h.8m1.9-2.2-.6-.5v-.6l.7,1.1h0m3.7.9v-.2l-.2-.2v-.8l-1.1.9,1.2-1.2.4-.2-.2.3V25h.1l-.2.2h0M83.2,23h0l.3-.2h0V22L81,23.6l1.2-.9,1.2-.9.6-.3v.3l-.3.4v1l-.3.2h0m-2.9-1.7h-.4l-.4-.2v1.2l-.2.6V21.6l.2-.8.2.4v.2l.2.2h.1m2-2h0l-.4-.3-.2-.3-.5,1.8.3-1.3v-.3l.4-.8v.7l.4.5h0m1.8-.7h0l-.2-.3v-.2l-.5,1.2.2-.7.3-.8V19h0m3,1.8h0v-.2h0V20l.2-.5-1.2.6,1-.7.5-.3-.5.8v.4h.4l-.5.3h0M88.6,47l.2-.5v.2l-.2.5h-.5l.2,2.7-3.2-3.3-.4.4H82.5l.5.8.4.7v.8l-.2,1,3.5,1.5.2.3v.2h-.4l-1.8.5.4.3V54l-.6.6.5-.7v-.7l-.5-.4,2-.6V52l-.2-.2-3.1-1.4.2-.5V48.8l-.4-.7-.4-.6-.5-.5h2.6l.6-.5L88,49.1h.3L88.1,47h.6m.2-27c-.9.3-1-1.2-.4-1.2a12.8,12.8,0,0,1,4.8-.9c1.2,0,5.2-.2,7.8.9.4.2.1,1.5-.4,1.3A17.7,17.7,0,0,0,88.9,20h0m5.4-9c-.2-.4.1-.6.4-.6a.8.8,0,0,1,.4.6h0c-.4-.2-.6-.2-.8,0h0m.3,0a.6.6,0,0,1,.5.5.5.5,0,0,1-.5.5.5.5,0,0,1-.5-.5c0-.2.2-.5.4-.5h0m-.3-.7c-.1-.2.1-.5.3-.6h.1c.4,0,.4.4.4.7a.8.8,0,0,0-.7,0h0m0-.7c-.1-.3,0-.7.4-.7s.5.4.4.7a.6.6,0,0,0-.8,0h0M91.4,6.9a.6.6,0,0,1,.5.5.5.5,0,0,1-.5.5.5.5,0,0,1-.5-.5h0a.5.5,0,0,1,.5-.5h0m1,.6a.6.6,0,0,1,.5.5.5.5,0,0,1-.5.5.5.5,0,0,1-.5-.5c.1-.3.3-.5.5-.5h0M97,7.3a.6.6,0,0,1,.5.6c0,.4-.2.6-.5.6a.5.5,0,0,1-.6-.6.6.6,0,0,1,.6-.6h0m1-.5a.5.5,0,0,1,.5.5.5.5,0,0,1-.5.5.5.5,0,0,1-.5-.5.6.6,0,0,1,.5-.5h0m2.5-.7a.6.6,0,0,1,.5.5.5.5,0,0,1-.5.5.5.5,0,0,1-.5-.5.5.5,0,0,1,.5-.5h0m1.3.2c.3,0,.5.2.5.6a.6.6,0,0,1-.5.6.5.5,0,0,1-.6-.6.6.6,0,0,1,.6-.6h0m1,1a.6.6,0,0,1,.5.5.5.5,0,0,1-.5.5.5.5,0,0,1-.5-.5.5.5,0,0,1,.5-.5h0m.5,1.2a.6.6,0,0,1,.5.5.5.5,0,0,1-.5.5.5.5,0,0,1-.5-.5.5.5,0,0,1,.5-.5h0m.1,1.4a.6.6,0,0,1,.5.5.5.5,0,0,1-.5.5.5.5,0,0,1-.5-.5.5.5,0,0,1,.5-.5h0m-.2,1.2a.6.6,0,0,1,.5.5.5.5,0,0,1-.5.5.5.5,0,0,1-.5-.5.5.5,0,0,1,.5-.5h0m-17.1.5a.6.6,0,0,1,.5.5.5.5,0,0,1-.5.5.5.5,0,0,1-.5-.5.5.5,0,0,1,.5-.5h0m-.3-1.4c.3,0,.5.2.5.6a.5.5,0,0,1-.5.5.5.5,0,0,1-.5-.5c0-.4.2-.6.5-.6h0m.1-1.4a.6.6,0,0,1,.5.5.5.5,0,0,1-.5.5.5.5,0,0,1-.5-.5.5.5,0,0,1,.5-.5h0m.6-1.2a.6.6,0,0,1,.5.5.5.5,0,0,1-.5.5.5.5,0,0,1-.5-.5.5.5,0,0,1,.5-.5h0m1-.9a.5.5,0,0,1,.5.5.5.5,0,0,1-.5.5.5.5,0,0,1-.5-.5.6.6,0,0,1,.5-.5h0m1.4-.4a.6.6,0,0,1,.5.5.5.5,0,0,1-.5.5.5.5,0,0,1-.5-.5.5.5,0,0,1,.5-.5h0m1.3.1a.6.6,0,0,1,.5.5.5.5,0,0,1-.5.5.5.5,0,0,1-.5-.5.5.5,0,0,1,.5-.5h0m9-.1a.6.6,0,0,1,.5.5.5.5,0,0,1-.5.5.5.5,0,0,1-.5-.5c.1-.3.3-.5.5-.5h0M94.5,4.9a.4.4,0,0,1,.4.4.4.4,0,0,1-.4.4.4.4,0,0,1-.4-.4h0c.1-.3.2-.4.4-.4h0m.2,8.6a.6.6,0,0,0-.6.6.6.6,0,0,0,.6.6.5.5,0,0,0,.6-.6h0c-.1-.3-.3-.6-.6-.6h0m-7.1.9c-.1.1-.1.3-.1.6s.2.4.5.4.1-.3.1-.5-.3-.6-.5-.5h0m14.4-.3c-.1-.1-.4.2-.5.4a.5.5,0,0,0,.2.6h0c.2.1.4-.1.5-.4s0-.6-.2-.6h0M93.6,6.6c.1,0,.1.1,0,0s.1.2,0,.2-.1,0,0-.2h0m.6,2.2h0m-3.5,2.7.3,3.4h.4V13.7h-.1l-.4-2.2h0m0,3.5V13.7h-.2v.4h.1v.4l.2.4h0m7,.4h0m.5-.6h.4V13.6h-.3V11.4l-.4,3.4h0m-.5,1h-.2V16l-.4.3h.3l.2.2v-.2H98m-3.1,1.5.6-.3h0l-.5-.3-.8.3h0c.1,0,.5.4.6.3h0m0-.1-.5-.3.6-.3.4.3-.5.3h0m-5.8.7c.1-.1.4-.2.5-.4h0l-.5-.2c-.1-.1-.6.3-.7.4h0l.7.2h0m-.1-.1-.4-.2c0-.1.4-.3.4-.3l.4.2c0,.1-.3.3-.4.3h0m11.7.3.6-.3h0l-.7-.4-.5.2h0a1.3,1.3,0,0,0,.6.5h0m.1-.1c-.1,0-.4-.2-.4-.4l.4-.2.4.3-.4.3h0M93,50.5v1.1l.2.2h1.2v.4h1v-.5l-.2.3H95v-.6h.5v-.6l-.2-.2.2.3v1.6h-.9V50.4h0v-.2l.2-.2h-.3v1.2h-.3l-.2-.2-.2-.3v-.3h0v-.2h0m-1,.6h1v.4h-.4l-.2-.2h-.5l-.4-.2h-.9V51h1.5v3H91l-.3-.2-.2-.2-.3-.3v.6l.2.2h2.1v-.2h-.2v-.4h-.4l-.3-.2H93v-.4h0v-.2H92m.3,5.9.6-.6.4-.4h.2v.8l-.2.3-.3.2H93l.3-.2.2-.2.3-.4V56h0v-.2h.3V57l-.2.2-.3.2h.3l.3-.2.2-.3v-1l-.2-.3h-.7V56l-.4.2.2-.3V55H92l-.2.2h-.3V56l.2-.4.2-.3.3-.3.3-.2H93V55l-.2.2v.2l-.2.2v.7l.2-.3.2-.2v-.2l.2-.2.2-.2h.3v.6l-.2.3v.6h0m6-.4V56l-.2-.7-.3-.5-.4-.3H96.1v.4h.5l.2.2.2.3h0l-.2-.4-.2-.2v-.2h.3l.3.2.3.3.3.4v.7l.2.3h0m-.1-5.4H97l-.5.2-.3.3v.7h1.3l-.4.2h-.5v.6h2l.2-.3.2-.3.3-.5-.3.5-.3.4h-.6l.3-.2.2-.3v-.2l-.2.2-.3.2H97l.3-.2.5-.2.3-.2h.4l-.3-.2H96.7l.2-.2.4-.2h.8m-4.1,3c-.2,0-.3.1-.3.2s.1.2.2.2.2,0,.2-.2h0c0-.1,0-.2-.1-.2h0m1-.9h0c-.1.1,0,.1,0,.1h.1c.1-.1,0-.1-.1-.1h0m.2.4a.2.2,0,0,0-.2.2c0,.2.1.2.2.2s.2,0,.2-.2h0l-.2-.2h0m-.5.3a.2.2,0,0,0-.2.2c0,.2.1.2.2.2h0l.2-.2-.2-.2h0m.4.1a.2.2,0,0,0-.2.2c0,.2.1.2.2.2s.2,0,.2-.2h0c0-.1,0-.2-.2-.2h0m.4.3a.2.2,0,0,0-.2.2c0,.2.1.2.2.2s.2,0,.2-.2h0l-.2-.2h0m.2-.4a.2.2,0,0,0-.2.2c0,.2.1.2.2.2h0l.2-.2c0-.1,0-.2-.2-.2h0m.1-.6a.2.2,0,0,0-.2.2c0,.2.1.2.2.2s.2,0,.2-.2h0c0-.1,0-.2-.2-.2h0m-.1-.5a.2.2,0,0,0-.2.2c0,.2.1.2.2.2s.2,0,.2-.2h0l-.2-.2h0m-.5-.4a.2.2,0,0,0-.2.2c0,.2.1.2.2.2l.2-.2c0-.1,0-.2-.2-.2h0m-.9,2a.2.2,0,0,0-.2.2l.2.2c.2,0,.2,0,.2-.2s0-.2-.2-.2h0m.6,0a.2.2,0,0,0-.2.2c0,.2.1.2.2.2s.2,0,.2-.2h0c0-.1,0-.2-.2-.2h0m.3-1.6h0c-.1.1-.1.2,0,.2s.1,0,0-.2h0m.2.3h0c-.1.1-.1.2,0,.2s.1,0,0-.2h0m0,.5h0c-.1.1-.1.2,0,.2s.1-.1,0-.2h0M94.2,7.3c0-.1.1-.2.1-.4s.2-.4,0-.6h.6c.1,0,.2.5.2.9a1.3,1.3,0,0,0,1.1.3.8.8,0,0,1,0,.7,4.5,4.5,0,0,0-2.8,0l-.2-.6c.2-.3.5-.3,1-.3h0m1-.3a1.2,1.2,0,0,0-.1-.8,1.5,1.5,0,0,1,.9,1L95.2,7h0m-2.1.2c0-.4.6-.9.9-1a1.4,1.4,0,0,1,0,.9h-.9m.7,1.8c-.3,0-.6-.5-.7-.7A6.5,6.5,0,0,1,95,8l.9.2c0,.2-.4.7-.6.7s-.2-.6-.6-.6a.7.7,0,0,0-.8.7h0m.8-1.9c-.2,0-.3.2-.3.4a.3.3,0,0,0,.3.3h0a.3.3,0,0,0,.3-.3h0l-.3-.4h0M94.5,4h-.3v.5h.3V4h0M94,5h-.6v.4H94V5h0m2-.1h-.6v.2H96m-.9,1.4v.5h.5V6.5h-.4m-1.4.2h-.3v.2H94V6.6h0V6.3l-.3.2h0m-.4,1.8v.2l.3.3V8.5l.2-.3h-.7m1.4-1a.2.2,0,0,1,.2.2c0,.2-.1.2-.2.2h0l-.2-.2.2-.2h0m-8,2.2.4-.6V8.5l.2-.2.4-.3.4-.2h.5V8h.6V7.8h1.7l-.6-.3-.5-.2H88l-.3.3-.3.2-.2.3-.2.3v.7h0M98,8.4l.4-.2.3-.2.4-.2.4-.2h1.9l.2.3-.2.2.2.2.3.3.3.7V9l-.2-.3.3-.2-.2-.2-.3-.4-.2-.2-.4-.2H99.5l-.5.2-.3.2-.4.2-.4.2h0m0,2.1h0M94.5,5.8V6h.1V5.8h0M89.5,17v.8h1v-.9h-.4l.2.7h-.1L90,17h-.5m2.9-.4v1h1.1V16.4h-.8v.9h-.1v-.9h-.4l.2.2h0m3.8,0v1h.2V16.5h-.2m-9.3-3.4.5.9-.3-.8.6-.2h-.8m1.6,1.2h.3V14l.2.4-.2-.7-.2.3-.2.3h0m6.1-2.1h-.8l.2.2.2.4V13l-.2-.7h.6M93,14.5v.2H93v-.2h0m1.8,1-.2.4-.7.2h.9v-.5h0m7.6-1.4V14h.1m-.9.4h-.1l-.2.2v.6l.3.2v-.2h0v-.6h0m-7.4-7-.2.2.2.2.2-.2-.2-.2h0m-.4,0-.2.2c0,.2,0,.2.2.2s.2,0,.2-.2a.2.2,0,0,0-.2-.2h0m-.4.1c-.2,0-.2.1-.2.2s0,.2.2.2.2,0,.2-.2h0l-.2-.2h0m1.9-.1-.2.2c0,.2,0,.2.2.2s.2,0,.2-.2-.1-.2-.2-.2h0m.4,0-.2.2.2.2.2-.2-.4-.4h0m.5.1c-.2,0-.3.1-.3.2s.1.2.2.2.2,0,.2-.2h0V7.5h0M91.4,17h0M98,17h0M87.9,10.5h.3v-.4H88v.2h0m3.4-.5h1.5l-.3-.2H91.2m5.2.2h0m4.6.2h0m-6.5,1.8h.1V12h0m5.6,6.9a1.7,1.7,0,0,0-1.4,0h0c.2-.1.5-.2.7,0s-.5.3-.6.5H99c.4-.5.7-.5,1.2-.7h0M98,18.3c-.3-.3-1.1-.1-1.4,0h.7l-.5.5h.1l1.1-.6h0M95.5,18a2.2,2.2,0,0,0-1.4.2h0c.2-.1.4-.3.7-.2s-.4.4-.4.6h.1c.2-.4.5-.5,1-.8h0m-2.5.1c-.5-.3-1.2.1-1.5.3h.1c.2-.1.4-.3.7-.2l-.5.7h.1c.2-.6.5-.7,1-1h0m-2.3.4a1.4,1.4,0,0,0-1.2.4h.1l.6-.2-.3.6h.1c.1-.6.3-.7.7-1h0m3.8-13h0m-2,3.4h.1v.2h-.1M91.3,8h0m-1.2-.5h0v.2h0m-1.3-.1h0v.2h0m-1.3-.2h0v.2h0m-1,.9h0m-.6,1.2h0v.2h0m-.1,1.5h0v.2h0m.2,1.3h0M97,8.9h0v.2h0m1-.6h0v.2h0m1.1-.6h0m1.2-.1h.2v.2h-.2m1.3.3h0v.2h0m1.1.9h0v.2h0m.5,1.3h0m.1,1.3h0v.2h0m-.2,1.2h0V12h0m-8.4,2.6H95v-.2h-.1m-4.2,1h0m-2.6-2.8-1,.3h.8v-.2h0m.9,2.2h.5l-.2-.4V15h-.3m1.9,1v.3l-.3.3h.1V16h.1m-2.8-1.4h0v.6h-.1v-.4h0m.6,3.6h0l.5-.2.6-.2h1.3l-1.3.2-.8.2h-.2M88,16.8V17h.6v-.2H88m.5,2.3-.3.4.2-.2v-.2h0m0,.2-.2.4.2-.2v-.2h0m0,.3v.3h.2v-.2h0m.1.2h0m4.2-5.4v-.4h.2l-.3-.3v.6h0m1.6-2h.8V13l.3-.8h-1M96,13.9h.4v-.2L96,14h0m-.7-.2h.1v.6h-.1l.3-.2V14h0v-.2h-.2m3.8.6h0M97.9,14v-.2h-.6V14H98m-3.1,2v.3h.6v-.2l-.2-.2h-.4m6.7-3.7h0l.4,1.1v-.8l.8.2-1.1-.5h0m-1.1,1.1-.3,1.1.3-.7.5.5-.5-.9h0m-.1,3.1h.2l-.3.2.9-.3h.2v-.2l-.9-.3-.3.2h0m1.8-2.2h.1v.4H102v-.4h0m-2.5,2.8v.8h.3v-.7h.1v.7h.1v-.7l-.4-.3h0m-.3-.1-.3.8h.1l.2-.8h0m1.5,1.7h0v.2l.2.2-.3-.4h0m-.1.3h0v.2l.2.2-.2-.4h0m0,.3h.2l-.2-.2h0m-.1.2h0M94.3,16h0m2.4-.5h1.2l.9.2h.9l-.8-.3-1-.2h-1m-5-.1h0m1.9,0h0m2.9,1.3H98l1.5.3-.5-.2-1-.2H96.6m-.9,0h0m-7.1,0h0m12.1.1h0m-17.3,20a.1.1,0,0,0-.1.1c-.1.1,0,.1.1.1a.1.1,0,0,0,.1-.1h-.1m1.5,4.2a.1.1,0,0,0-.1.1H85a.1.1,0,0,0-.1-.1h0m3.9,2.5a.1.1,0,0,0-.1.1h.1m.2-.5h0m-.1,1.1h-.1c0,.1,0,.1.1.1h0m-.6-1h-.1c-.1.1,0,.1,0,.1h.1m1.1.5h-.1c0,.1,0,.1.1.1h0m-1.1.3a.1.1,0,0,0-.1.1c-.1.1,0,.1.1.1h0m12-.2a.1.1,0,0,0-.1.1h.1a.1.1,0,0,0,.1-.1h-.1m.3-.6h-.1c-.1.1,0,.1,0,.1h0m0,1.2a.1.1,0,0,0-.1.1c-.1.1,0,.1.1.1h0m-.7-1a.1.1,0,0,0-.1.1c-.1.1,0,.1.1.1a.1.1,0,0,0,.1-.1h0c0-.1,0-.1-.1-.1h0m1.1.4a.1.1,0,0,0-.1.1h.1m-1.1.4h-.1c-.1.1,0,.1,0,.1h.1m4.1-3.3a.1.1,0,0,0-.1.1c-.1.1,0,.1.1.1a.1.1,0,0,0,.1-.1h0c0-.1,0-.1-.1-.1h0m.1-.6h0c-.1.1,0,.1,0,.1s.1,0,.1-.1h0c.1,0,0-.1-.1-.1h0m0,1.2h0c-.1.1,0,.1,0,.1h.1a.1.1,0,0,0-.1-.1h0m-.6-1a.1.1,0,0,0-.1.1c-.1.1,0,.1.1.1h.1a.1.1,0,0,0-.1-.1h0m1.1.4h0c-.1.1,0,.1,0,.1s.1,0,.1-.1h0a.1.1,0,0,0-.1-.1h0m-1.1.4a.1.1,0,0,0-.1.1c-.1.1,0,.1.1.1a.1.1,0,0,0,.1-.1h0c0-.1,0-.1-.1-.1h0M83.7,33a.8.8,0,0,0,.2-.7c0-.4-.2-.7-.6-.7h-.4l-.2.3h0l-.2.4h0c0,.1,0,.1-.1.2h-.1c-.2,0-.3-.1-.3-.4s.1-.4.5-.5H82v.8a.5.5,0,0,0,.5.6c.2.1.4-.1.5-.3h0v-.4h0l.2-.2h.2a.5.5,0,0,1,.5.4h0c0,.2-.1.4-.2.4l-.5.2h.5m.8-4,.8-1.5-.4-.5h0a1.2,1.2,0,0,1,.1.8c0,.1,0,.1-.1.2l-.3.2h-.2l-.5-.2v-.3h0c.1-.2.3-.2.5-.1h0l-.6-.3h0a1.1,1.1,0,0,1,.1.5h0v.2l-.5-.2h-.1v-.5c.1-.2.3-.2.6-.2h0l-.6-.5-.7,1.5h0c.1-.1.2-.2.4-.1h0l1.1.6h0c.1,0,.1.1.2.2h0m2.4-5.1-.3-.4h0c-.1-.1-.2-.3.1-.4a.3.3,0,0,1,.5.1h.1a.6.6,0,0,1-.1.6h-.3m.3,1.2h0l.6-.4h0c-.1.2-.2.2-.3.2s-.2-.1-.1-.3h0L87,24v-.2h1a.8.8,0,0,0,.9-.2h0a.8.8,0,0,1-.7-.1h-.8l.2-.3c.1-.1,0-.2-.1-.3s-.2-.2-.4-.2l-.4.2h-.1c-.1-.1-.2,0-.2.1l-.3.2-.3.2h.4l.7.9.2.2h0v.2h0m4.7-2.5h0l.3-1.7h0v-.3l.2-.2h0l-.7.2H92V21h0l-.2,1.2-.8-1h.1l-.9.2h.4l1.1,1.3h0m3.8-1.1.4-.7.2.8h-.6m-.7.6h.7l-.3-.2h0v-.2h0v-.2H96v.5h0c0,.1-.1.1-.3.1h.8v-.2h0l-.6-1.8h0L95,21.8h0c-.1.1-.2.2-.2.3h-.1m4.8,1.3.6.4h0a.6.6,0,0,1,0-.6h0l.7-.8-.2,1.7h0l1.4-.9-.6,1.2H101l.7.5h0v-.3h0l.6-1.2h.4l-.6-.4h0c0,.1,0,.1-.1.2h-.1l-1,.7.2-1.3h.1l-.6-.4h0c.1.1.2.2.1.3h0l-.8.9h0c-.2.2-.3.2-.4.2h.1m5.8,2.8c.1.1,0,.3-.2.4h0l-.7.4h0a.9.9,0,0,0-.4,1.1h0l.4.4h.5l.8-.4h.5l-.3-.6h0V28l-.3.2h0l-.7.4h-.5q-.1,0-.3-.3v-.5c.1-.1.1-.2.3-.3h0l.8-.4h0c.1,0,.1-.1.2,0h.2l-.3-.7h0m-3.7-1a10.5,10.5,0,0,0-7.2-2.8,12.5,12.5,0,0,0-7.3,2.8H88a9.7,9.7,0,0,1,12.8,0h.2l.7-.3h0M89,28.5h.6v1l-.3-.2h-.9v-.2h.4v.3h0m.3-1H90v.4h-.1V28h-.4m12.6.3H102v.9H99.4v-.9H99V27h.6V26h1.4v.2l.2.2v.2h.7v.2h.6l-.2.2v.4h-.1m-1.3-1.1h0V27h.5v-.4l-.2-.2h-.6v.2h.6v-.3h0m-1.7.3h0v.2l.2.3h.2l-.2.4h-.3m1.2,1.3h0v-.2h-.7v.8h.6v.3h0m1,0H101v.2h1.2v-1h-.5m.3-.9h.8v-.4h-1.1v-.2h0m-13,0a.5.5,0,0,1,.5.5.5.5,0,0,1-.5.5.5.5,0,0,1-.5-.5c.1-.3.3-.5.5-.5h0m12.2-.2a.6.6,0,0,0-.5.5.5.5,0,0,0,.5.5.5.5,0,0,0,.5-.5c-.1-.3-.3-.5-.5-.5h0m0,.4h0m0-.2h0c.1.1,0,.1,0,.1s-.1,0,0-.1h0m-.1-.1h0c.1.1,0,.1,0,.1h0m-.1,0h0c.1.1,0,.1,0,.1s-.1,0,0-.1h0m0,.1h0c.1.1,0,.1,0,.1s-.1,0,0-.1-.1,0,0,0h0m-.2.1h0c.1.1,0,.1,0,.1h0m.1.2h0c.1.1,0,.1,0,.1s-.1,0,0-.1h0m.1-.1h0c.1.1,0,.1,0,.1h0m-12,.2h0m0-.2h0c-.1.1,0,.1,0,.1h0m0-.2h0c-.1.1,0,.1,0,.1h0m-.2.1h0m0,.2h0c-.1.1,0,.1,0,.1h0m0,.2h0c-.1.1,0,.1,0,.1h0m0-.2h0s.1,0,0-.1.1,0,0,0h0m4,3.5h-.9l-.3-.2-.2-.2-.3-.3H89.4l-.4.2-.3.2-.2.2-.3.2h-.8l-.2-.2-.3-.2h-.7V30.2h6l.4,1.8h0m2.9,5.7h.2l.3.2h.6l.7-.2.4-.2.3-.3.6-.2h.5l.4.2.3.3.2.2.3.2h.6l-.2.3-.3.5-.4.5v.3h-.7l-.2-.2h-.7l-.3.2-.6.3-.3.2H95.7l-.4-.2-.3-.3.5-1.8h0m7.8-7.6V31h-1.2l-.3.2-.3.2H100l-.3-.2-.2-.2-.2-.2-.3-.2-.2.2h-.9l-.2.2-.2.2v.2H97l.5-1.7h6m-12-4.5H91l3.5,15.1L98.1,25l-.4-.2-.9-.4-.9-.5-.8-.6-.6-.3-.5.5-.6.6-.9.7-.6.3h-.4m-1.9,1.2h0v.2h0m-1.9.3h-.4v-.2h.4m-1,1.7h0m1.8.7h.1v.3h0m1.4-.9h0m12-2h0v-.2h0m-2,.3h-.5v.2h.4M99,28.5h0m1.8.7h0m1.3-.9h0m-6.5-1h.1l.4.2h.7a.3.3,0,0,0,.3-.3h0l-.3-.8h0l-.3-.8h0c0-.1,0-.2-.1-.2h-.9v.4h-.3v-.5h-.4l.4-.2.2-.3a.3.3,0,0,0-.3-.3h-1l-.3.2h0c0,.2.1.5.4.5h-.3v.2h-.3c0-.2-.1-.2-.2-.3h-.6l-.2.2h0a1.4,1.4,0,0,0-.2.6h0c0,.1-.1.1-.1.2l-.3.7h0a.4.4,0,0,0,.4.2H93l.5-.2h.2l.2-.2h0v1.1h.2v.4H94l-.6.2v.8h0v.2h.2a.1.1,0,0,0,.1.1h0v.2h0V30h0v.2a.4.4,0,0,0,.1.3h0V32h0v.3c0,.4-.1.8-.1,1.2h0c0,.2,0,.3.1.4h-.1v1.6h.1c0,.1-.1.1-.1.2v.2h0v.2h1.8v-.2h0a.4.4,0,0,0-.1-.3h0v-.2h0a5.1,5.1,0,0,0,.1-1h0V34h0l-.3-2h0c.2,0,.2-.2.2-.4v-.2h0c.1,0,.1-.1.1-.2h0v-.6h0a.8.8,0,0,0,.2-.8h0v-.4h0c0-.1,0-.2-.2-.2h-.1a.8.8,0,0,0,.1-.7h0v-.5h0m-1.1,8h0v-.5h0m.6.1h.1a.1.1,0,0,0-.1-.1h-.1v.3H95m-.1-10.5h-.8c0,.1.1.4.3.4h.9c.1,0,.1-.1.1-.2s0-.2-.2-.2h-.1c0-.2-.1-.2-.1-.1h0m-.7,2.6h.2v-.2H94l.2.3h0A6.4,6.4,0,0,1,94,27h.2c.1.2.2.3.4.3s.2,0,.2-.1H95c.1,0,.1,0,.1.1h.1v-.2h.9v.2h-.2l-.4.2h-.1c0,.2.1.2.2.2l.3.2H96v.2h.5V28h0a.1.1,0,0,0,.1.1h.1l.2-.2h0a2.5,2.5,0,0,0-.2-.7h0a1.6,1.6,0,0,0-.3-.8h-.6v.2h0a.5.5,0,0,1-.6.3h0v-.3h-.4l-.2-.2h0v.2h-.3V27h-.3c-.2,0-.2,0-.2-.2h.1a.2.2,0,0,0-.2-.2h-.4a1,1,0,0,0-.5.8h0l.4.2h-.2v-.2h-.3c0,.1-.1.1-.1.2a.9.9,0,0,0-.3.6h0l.3.2h0a.1.1,0,0,0,.1-.1V28h.4a.1.1,0,0,1,.1-.1h.3l.2-.2h.2V28H94a.2.2,0,0,1,.2-.2l.2.2h0v.8h0V29h.1c.1,0,.1,0,.1-.1v-.3a1.9,1.9,0,0,0,.1-.8h0a1.5,1.5,0,0,1-.1.7s0,.2.1.2h.1v-.4h0v.3h.1l.2-.8h0v-.7h0v-.3H95V27h-.3c0,.1,0,.2.1.2h0l-.3.2h-.2l-.2-.2h.1m-1-1.4h0c0-.1,0-.1-.1-.1H93v.2h.2m.4.6h-.2l-.5-.2h.2l.5.3h0m1.4-.8c0,.1,0,.1-.1.1h0V26h0v.2c0,.2-.1.3-.1.4h0v-.2h0v-.3h0l-.2-.2h.1a.1.1,0,0,1,.1.1h0v.2h.1c0-.4.1-.5.2-.5h0m.1,1.1h0v-.4l-.3.2h.3c-.1.1,0,.1,0,0h0m-.9-.2h0c.2-.1.1-.1,0-.2h0m.6.4v-.2h-.3V27h0a.1.1,0,0,0,.1.1h.2m0,.4h0c0-.1.1-.1.1-.2h-.4v.2h.4m-.7,1.3h.2c.1,0,.1,0,.1-.1h0v-.8h0c0-.2-.1-.2-.2-.2h-.1c-.1,0-.1.1-.1.2h0v.8h0m-.9-1.9h0v-.2h0m-.1-1.2h.2a.1.1,0,0,1-.1.1h-.1l.4.2h.1l-.6-.2h-.2c0-.1,0-.1.2-.2h0c-.1.3-.1.2.1.1h0M95,28v-.3h.1c.1.2,0,.3-.1.3h0m.7-1.4h.4v.2h0c0-.1-.1-.1-.1-.2h0c-.1.2-.2.2-.2.1h0m.4-.4h-.4l-.4.2h0l.8-.3h0m0-.3h0l-.2-.2h.3c.1.1.1.1-.1.1h0m-1.4,4.6h.1c0,.1,0,.2.1.2h.2c0-.1,0-.1.2-.2h0a.9.9,0,0,0,.3-.7h0v-.4h-.2V29h0c0,.1-.1.2-.1.3a.4.4,0,0,1-.1.3c-.1,0-.1,0-.1-.1h.1V29h-.4a.3.3,0,0,0-.3.3h.2c0-.2,0-.3-.1-.4h-.5v.4h.1a.1.1,0,0,0,.1-.1h-.1l-.2.2h0v-.7h0l-.2-.3h-.1v.8h0v.2h0a.3.3,0,0,0,.5.3h.2l-.3.2H94c.1,0,.1.1.1.2h.2v-.2h.2v.2h.2V31h0a.1.1,0,0,1,.1.1h-.6c.1,0,.1,0,.1-.1h-.1l-.3.2h-.3q0,.3.6.3h.7v-.2h-.2c.3,0,.5-.1.5-.3h0l-.3-.2h0l-.2-.2h-.1v-.3h.1m-.8-.4h0v-.2h0m.3.2h0v-.2H94V30h0m.1-.9h.3m.4,1h0m0-1h0m.8,1.1h-.2l-.2.2h.3v-.3h0m-1.4.4h0v-.3h0a.1.1,0,0,0-.1-.1h0v.2h.1m.5,3.8v.2h0v.2h.2v-.5h0l.3-.2h.2a.1.1,0,0,0,.1.1h.1c.1-.5.2-.9.2-1h-.3v-.2h.2V31.7H94V32a4.8,4.8,0,0,0,0,1.2h0c0,.3,0,.5.4.5h.1v-.2h.1c0,.1.1.2.2.3a.1.1,0,0,0,.1.1h-.2c0-.1-.1-.1-.1-.2h-.4V35h.3v-.2h0c.1,0,.1-.1.1-.2s.1-.1.1-.2h0c-.4.4-.3.4-.2.5h0m-.1-1.1v-.2h-.1c-.1,0-.1-.1-.1-.2h.2c-.1,0-.1,0-.1-.1h.5a1.2,1.2,0,0,0-.1,1v.2h0v-.2h0v-.9h-.1l-.3.2h0c0,.1,0,.2.1.2h0m.6-.3h0c0-.1,0-.2-.1-.2h-.1a.1.1,0,0,0,.1-.1c.1-.1.1-.1.1-.2h0v-.2h0l-.2-.3h-.1a.1.1,0,0,0-.1.1l-.2.4h-.1c0-.2.2-.3.5-.4l.2.2h0v.3h0c0,.1.1.2.1.3H95m.2.6-.2.3h-.1a.3.3,0,0,1,.1-.2v-.2h-.1a.3.3,0,0,1,.1-.2h0v.2h.2c0,.1-.1.1-.1.3h0c-.1-.1,0-.1,0-.1h0m-.6,1.6h0c-.1,0-.1,0,0,.1s-.1-.1-.1-.2h-.2a.3.3,0,0,0-.3.3h0v.2h.2v.2h.2v-.2h.2v-.2h0m.5.2h.3a.2.2,0,0,0-.2-.2H95c-.2,0-.3.1-.4.3h0s0,.2.1.2L95,36h0M91.7,25.2l-.6.2v.2l.6-.2h.4l.6-.3.5-.2.6-.4.5-.4.3-.3.4.3.4.4.6.4.5.3.5.2h.7l.5.2h0l-.5-.2-.4-.2-.4-.2-.8-.4-.7-.6-.4-.4-.3-.3-.4.4-.4.4-.6.4-.7.4-.5.2h-.4M88,26.8h.2V27h0v.4h0V27H88m-.4.2h-.2l.2.4h0m.1,1.7.2-.2h-.2m1.4-.1h0m.5,0v-.2h0m-.1-1.7h.1v-.2h-.1v-.2h0m10.7-.4h.1v.4h0v-.4h-.1m-.4.2h.4l-.4-.5h0m.1,1.8h.3l-.3.2h0m1.4-.2h.1V28h0m.5.1h-.1v.2h0m-.1-1.7h-.1v.3h0m-13.4,1h0c-.1.1,0,.1,0,.1s.1,0,0-.1h0m.3-.2h0c.1.1.1,0,0,0h0m.1.1h0c-.1.1,0,.1,0,.1h0m-.2.1h0s.1,0,0-.1h0m.1.1h0c-.1.1,0,.1,0,.1s.1,0,0-.1h0m.1.1h0c-.1.1,0,.1,0,.1s.1,0,0-.1h0m.1-.2h0c-.1.1,0,.1,0,.1s.1,0,0-.1.1,0,0,0h0m.1-.1h0c-.1.1,0,.1,0,.1h0m-.1-.2h0c-.1.1,0,.1,0,.1h0m-.2-.1h0c-.1.1,0,.1,0,.1s.1,0,0-.1h0m-.1.6h0c-.1.1,0,.1,0,.1h0m.1,0h0c-.1.1,0,.1,0,.1h0m11.9-.3h0c.1.1,0,.1,0,.1h0m.4-.2h0m0,.1h0c.1.1,0,.1,0,.1h0m-.2,0h0c-.1-.1,0,.1,0,.1h0m.2.1h0c.1.1,0,.1,0,.1h0m.1.1h0m0-.1h0c.1.1,0,.1,0,.1h0m0-.2h0c.1.1,0,.1,0,.1h0m0-.2h0c.1.1,0,.1,0,.1h0m-.1-.1h0c.1.1,0,.1,0,.1h0m-.2.6h0c.1.1,0,.1,0,.1s-.1,0,0-.1h0m.2.1h0c.1.1,0,.1,0,.1s-.1,0,0-.1h0M86,25v.7l-.2.9v1.1l.2,2.3H92l-1-4.6H88.6l-1-.2-.6-.3-.7-.5-.2.5h0m12.3.3v.2h.1L97.4,30h6.1V24.5l-.8.5-.6.2-.6.2H98.7l-.4-.2h0m-12-.3v-.2l.5.4.4.2.4.2h3.1v.2H87.5l-.5-.2-.5-.4h-.1m12.5.6h3l.6-.2.5-.2.3-.2v.2l-.3.2-.6.2H98.9m-13,4.6v1.2l.3,1.8.5,1.6.7,1.7,1.1,2.2.7,1.3,1.3,1.8L92,43.4l1,.8,1,.7.5.3.7-.4.7-.5.7-.5.7-.6.9-1,.8-.9.7-.8.6-.9.7-1.3.6-1,.5-1.1.3-1,.3-1,.3-1.1.2-1.1.2-1.3V30H97.5L94.7,41.1,92.2,30h-6v-.2H86v.4h0m4.4,10.6.5.3.3.2.4.3.3.2H93l.3-.2.2-.2.3-.2.4-.2h.3v.2h.6l.2.2.2.2.3.2H97l.5-.3h1.2l-.4.8-.5.6-.6.7-.7.6h-.7V44l-.2-.2-.3-.2h-.6l-.4.2-.3.3-.3.2h-.6l-.5-.4-.3-.3-.6-.6-.6-.8-.8-1.1h0m6.6,15.7v-.4l-.2-.4-.3-.2h-1l-.2.2v1.3l.2.2.3.2-.3-.2V55.9h.3v.9l.2.3.3.3.4.2h.1l-.2-.2-.3-.3-.2-.4v-.3h.5l.2.2h.1M86.5,33.4l.4.3.3.2.3.2h1.2l.2-.2.2-.2.3-.2h1.1l.5.3.4.4.3.2h1.1l.4,1.9-.3.2H91.5l-.4-.3-.3-.2-.3-.2v-.3h-.9l-.2.2-.3.3-.3.2-.3.2H87.4L87,35.2l-.5-1.7h0m2,4.5H89l.4-.2.3-.2.3-.2h.8l.4.2.5.3.3.2h1.1l.4-.2.3-.2h.1l.4,1.8-.5.4-.4.2h-.9l-.4-.2-.5-.3-.6-.4-.4-.2h-.8l-.3.2h-.1l-.4-.7-.4-.9h0m7.9-3.8h.6l.2-.2.3-.2.4-.2.5-.2H99l.6.2.4.3.2.2.2.2h1.1l.2-.2.2-.2.3-.3.3-.2h.5l-.7,2.4h-.2l-.2.2-.2.2h-1.4l-.3-.2-.4-.4-.3-.2h-.9l-.4.3-.4.2-.3.2-.2-.2H96l.4-1.7h.1m2,7.9a10,10,0,0,0,5-13.5h0V27.1h0a11.5,11.5,0,0,1,1.9,5.9,10.6,10.6,0,0,1-7.9,10.3h0l.5-.7.4-.3v-.2h0m-7.6,0a9.6,9.6,0,0,1-6-9.1,8,8,0,0,1,.9-4.2h0V27.4h0A10.5,10.5,0,0,0,89.1,42a7,7,0,0,0,2.8,1.2h0l-.5-.6-.6-.5h0m-1-14.2h-.2v.9H88.5V29H87.4v-.9H87v-.5h.5v-.4h1v.2l.2.2v.2h.6V27h.6l-.2.2V28H90m-1.3-1v.3h-.6v-.2h.4V26h.1l.2.2v.4h-.6v-.2h0m-1.7.3h1.1V28h-.9l-.2-.3v-.2h0m1.2,1.3h-.6V28h.7v.3h0m-4.3,7.5h0c.1,0,.1,0,.1-.1h-.1m0,1.3h0c-.1.1,0,.1,0,.1s.1,0,.1-.1h0a.1.1,0,0,0-.1-.1h0m-.6-1a.1.1,0,0,0-.1.1c-.1.1,0,.1.1.1a.1.1,0,0,0,.1-.1h0a.1.1,0,0,0-.1-.1h0m1.1.4a.1.1,0,0,0-.1.1c-.1.1,0,.1.1.1h0m-1.1.4a.1.1,0,0,0-.1.1c-.1.1,0,.1.1.1a.1.1,0,0,0,.1-.1h0a.1.1,0,0,0-.1-.1h0m23.1-.4h0c-.1.1,0,.1,0,.1s.1,0,.1-.1H106m.2-.6h0c.1,0,.1,0,.1-.1h-.1m0,1.2h0m-.7-1h0c-.1.1,0,.1,0,.1s.1,0,.1-.1h-.1m1.1.4h-.1a.1.1,0,0,0,.1.1h0m-1.1.4h0c-.1.1,0,.1,0,.1s.1,0,.1-.1h-.1M85.4,40.3a.1.1,0,0,0-.1.1c-.1.1,0,.1.1.1a.1.1,0,0,0,.1-.1h0c0-.1,0-.1-.1-.1h0m.1-.6h0m0,1.2h0c-.1.1,0,.1,0,.1s.1,0,.1-.1h0c0-.1,0-.1-.1-.1h0m-.6-1a.1.1,0,0,0-.1.1c-.1.1,0,.1.1.1A.1.1,0,0,0,85,40h0c0-.1,0-.1-.1-.1h0m1.1.4h0c-.1.1,0,.1,0,.1s.1,0,.1-.1h0a.1.1,0,0,0-.1-.1h0m19.6-8.7c0,.3-.1.5-.1.7a.7.7,0,0,0,.6.7c.1,0,.2,0,.4-.2l.2-.3h0l.2-.5h0a.2.2,0,0,1,.2-.2h.1a.3.3,0,0,1,.3.3h0a.4.4,0,0,1-.4.6h.4V32a.5.5,0,0,0-.5-.5.7.7,0,0,0-.5.4h0l-.2.4h0c0,.2,0,.2-.2.2H106c-.3,0-.5-.1-.5-.4h0a.8.8,0,0,1,.2-.4l.5-.3h-.6M94.5,17.6a20.3,20.3,0,0,0-6,.9c0-.2-.4-.8-.4-1A19.8,19.8,0,0,0,86.6,13l1.5-.3a2.3,2.3,0,0,0-.3,1.1c0,.6.6.7,1,.2l.2-.2a14.2,14.2,0,0,1,.5,1.6c-.3-.1-.9-.5-1.1-.1s.5,1.3.8,1.4a1.4,1.4,0,0,0,1.4-.2c.1-.2.2-.3.2-.5h1.1c-.1.4.7.8,1,.7a1.4,1.4,0,0,0,1.4-1c.2-1.1-.9-.7-1.4-.1a6.7,6.7,0,0,0,0-2c.3.4.6.9,1.2.6s-.1-1.3-.5-1.7h2.2c-.2.2-.7,1-.4,1.4s1,.1,1.3-.2a8.1,8.1,0,0,0,.1,1.6c-.8-.7-2-.6-1.5.4s1.6,1.5,2.3.3h1.2a1.1,1.1,0,0,0,1.3.8l.2-.2c.7-.1.8-.9.7-1.5s-.9.1-1.1.2.3-1.3.5-2,.7,1.2,1.3.9a3.9,3.9,0,0,0-.4-1.8l1.5.6a13.4,13.4,0,0,1-1.3,4h0l-.5,1.6h0a20.5,20.5,0,0,0-6.5-1h0m-15,19.5v-.4h-.4l-.4-.2-.5-.4v1l-.3,1.4V35.6l.2.3.2.3.2.2h.8v.4h0M74.9,35l-.5.2-.4.2v.4l1.9,2.9-2.1-2.8-.7-.7-.3-.6.4.3h1.7m5.5-7.4v-.2H80V26.1h-.1l-1,1.4,1-1.6.4-.3v1.6h.3v.2h0M83,25.2l-.7.2.4-.3H83m-2.3,7.2-.9.7.4-.4.5-.3h0M76.7,43v.2H75.5l1.5,1h-.5L75,43.3l-.5-.3h1.6l.4-.2h0M85.1,21h.1V20H85l-.5.4L85,20l.5-.2-.4.5v.8H85M73,49.4h-.9v.2h0l-.2.3v.2h0v1.2h.1v.2l.3.4v.2l.3.2.5.5.3.3.6.5,1.8,1.3.5.3.6.4,1,.6,1.1.6,1.3.6,1,.5.9.3,1.4.5.8.3,1.5.4,1,.3.8.2.8.2,1.6.2h7.8l2-.3h1.3l.9-.2,1.1-.2,1.5-.4.5-.2.7-.2,1.1-.4,1.5-.6.8-.4.9-.5,1.7-.9.5-.6,1.3-.9.7-.5.3-.3,1.3-1.3.8-.8.2-.3.2-.3.2-.3.2-.3V50h0v-.9l-.2-.2h-1.1l.4.2.2.2h.2v.2h0v.2h0v.4l-.3.3-.2.3-.5.6-.7.7-.6.6-.7.6-.8.5-1.1.7-.9.5-.9.5-.9.5-1.2.5-1.2.5-1.2.5-1.4.5-1.6.4-1.4.3-1.1.2H91.5l-1.2-.2-1.2-.2-1.6-.3-.8-.2-1-.3-.9-.2-.9-.3-.7-.3-.9-.3-.9-.4-.9-.4-1-.3-1-.5-1.3-.8-1.4-.9-1.2-.9-1-1-.4-.4-.5-.5-.2-.2h0v-.2h.7M72,57.8h0V58h.4l.5.3.9.6,1.1.7,1.1.7,1.2.7,1.3.6,1.5.6.9.4.8.3,1,.4,1.1.4.7.2.8.2.8.2h.6l.9.2,1.2.3.9.2,1,.2h11.5l.9-.2.8-.2.8-.2.9-.3.9-.3.9-.3,1-.3,1.1-.4,1.2-.5.8-.4.9-.4.6-.3.7-.4,1.2-.7,1.1-.7.7-.5.7-.5.5-.4.5-.4v-.4l-.4-.5-.3.3-.2.2-.9.6-.6.4-.5.3-.6.4-1.1.7-1.2.7-.7.3-.5.2-.7.4-.6.3-1.3.5-1,.4-.7.3-.5.2-.6.2-.6.2-1.3.3h-.5l-.7.2-1.2.3-1.5.3H91.4l-1.7-.2H88.5L87,64.1H85.7L84,63.5,82.5,63l-1.9-.7-1.4-.6-1.7-1L76.4,60l-1.5-.9-1.1-.7-1.3-.8-.4-.3h-.3m40.9-9.7h1.5l.8-.2,1.5-.4.5-.2h.5l.3-.2h.2v-.2l.2-.2h.5v4.6l-.2.4v.2l-.5.6-.5.4-.9.4v.9l.5-.3.5-.3.4-.3.6-.2.3-.3.4-.4V50.8l.2-.6V45.8l-.2-.6v-.6l-.2-.4-.2-.4-.2-.5v1.5l-.2.2-.2.3-.3.2-.3.2-.4.3-.3.2-.5.2-.5.2-.8.3-1.8.4-1.5.3h.5M76.9,50.1l.4-.6h-4l-.3.2h-.5v1.4l.2.2.3.2.5.5.7.6.7.6.6.4h2.1l.2-.2V50.3l-.8-.2h-1m-.4-1.5h-.2L73.6,48l-.6-.2-.7-.3-.5-.3-.4-.2-.4-.4-.5-.4-.3-.5v3.8l.2.8.2.5.2.3.4.6.3.3.2.3.2.2V50h5.5l-.8-1h0m35.9,1.5-1.3.2.3,2.6V54l.4.2h1.8l.8-.6,1.3-1.2.7-.8.3-.4h0V51h0v-.3h-.1l-.2-.7H116l-.5-.2h-3.6l.5.4h0m1-2-1,.9-.4.4h3l.8-.2h2.1V52l.6-.3.6-.6.4-.6.2-.3.2-.6.2-.9v-4l-.2.5-.3.3-.3.2-.2.2h-.3l-.3.2h-.2l-.7.3h-.3l-1.7.5H114l-.5.5h0m4.4,3.1-.2.4v.2l-.2.3v.3l-.4.4L115.5,54l-.7.6-1.4,1.1-.9.6-1.1.7-1,.6-.9.4-1,.5-1.5.6-1.1.5-1.4.4-.6.2-1.5.4-1.1.2L100,61H98.9l-3.2.2H89.5L88.4,61l-1.2-.3-1.7-.8-.9-.3L83,59l-.9-.3L80.4,58,79,57.3l-1-.6-1-.6-.6-.3-.5-.4-1.1-.7-1.3-1.1-.3-.2-.3-.3-.2-.2-.4-.4-.2-.3H72V57h.2l1,.7L75,58.9l1.5.8,1.3.7L79,61l1.9.8.9.4,3.3,1.1,2.8.6,1.4.3,1.4.2h9.1l1.1-.2,1.5-.3,1-.3,1.3-.3,1.3-.4,1.2-.4,1.5-.6,1-.4.9-.4,1.2-.6.5-.2,1.5-.8,1.9-1.1.7-.4.4-.3.3-.2.7-.7V51.2h0M74.5,58.1l.4-2.2h0c0-.1-.1-.2-.1-.3h0l.9.6h-.4c0,.1-.1.1-.1.2h0l-.3,1.5,1.1-.8h.1c0-.1.1-.1,0-.2a.4.4,0,0,1-.1-.3h0l.6.5h-.3l-.4.2h0l-1.5,1h0M94.7,19.8a13.3,13.3,0,0,1,13.2,13.3A13.2,13.2,0,0,1,81.5,33,13.3,13.3,0,0,1,94.7,19.8h0m0-.7A13.9,13.9,0,1,0,108.6,33,14,14,0,0,0,94.7,19.1h0M76,48l-.5-.3-1-.3-.7-.2-.6-.2-.6-.2-.5-.2-.4-.3-.4-.4-.3-.3-.2-.3-.2-.5v-1l-.2.3-.2.4-.2.4v.3l-.2.8v4.8l.2.2v.6l.2.3.3.4.3.4.5.4.7.6v-.8l-.3-.2-.3-.3-.3-.3-.2-.4-.2-.3-.2-.4v-.5l-.2-.5V45.3l.4.7.3.4.4.4.4.3.6.3.6.2.9.2.9.2,1,.3h.5l-.2-.2h0" style="fill:#fff"/><circle cx="94.6" cy="33" r="13.5" style="fill:none;stroke:#fff;stroke-miterlimit:10;stroke-width:1.3655999898910522px"/><path d="M3,73.2H4.5l1.7,5.4h0l1.7-5.4H9.4L7,80H5.4Z" style="fill:#fff"/><path d="M12.4,73.2h1.5L16.7,80H15.2l-.7-1.6H11.7L11.2,80H9.7Zm.7,1.3h0l-1,2.8h2Z" style="fill:#fff"/><path d="M18.4,73.2h1.8l2.6,5.1h0V73.2H24V80H22.3l-2.6-5.1h0V80H18.4Z" style="fill:#fff"/><path d="M31.5,79.9l-1.6.2c-2.2,0-3.7-1.1-3.7-3.4A3.6,3.6,0,0,1,29.3,73h.6l1.5.3v1.2a3.3,3.3,0,0,0-1.5-.4,2.5,2.5,0,0,0-2.4,2.2v.3a2.2,2.2,0,0,0,2,2.4h.3a1.9,1.9,0,0,0,1.5-.3Z" style="fill:#fff"/><path d="M36.5,73c2.1,0,3.3,1.4,3.3,3.5s-1.2,3.6-3.3,3.6-3.2-1.5-3.2-3.6a3,3,0,0,1,2.6-3.4Zm0,6c1.5,0,2-1.2,2-2.5s-.6-2.4-2-2.4-1.9,1.2-1.9,2.4S35.1,79,36.5,79Z" style="fill:#fff"/><path d="M42,73.2h1.5v3.9c0,1.2.4,1.9,1.4,1.9s1.4-.8,1.4-1.9V73.2h1.4v4.4c0,1.8-1,2.6-2.8,2.6s-2.8-.8-2.8-2.6Z" style="fill:#fff"/><path d="M49.5,73.2H51l1.8,5.4h0l1.7-5.4h1.4L53.5,80H51.8Z" style="fill:#fff"/><path d="M57.6,73.2h4v1.1H59V76h2.4v1H59v1.9h2.7V80H57.5V73.2Z" style="fill:#fff"/><path d="M64,73.2h1.5c1.5,0,3.1,0,3.1,1.9a1.4,1.4,0,0,1-1.3,1.6h-.1c.4,0,.6.4.7.7L69,80.1H67.5L66.7,78c-.2-.5-.4-.7-.9-.7h-.4V80H64V73.2Zm1.4,2.9h.5c.6,0,1.4-.1,1.4-.9s-.8-.9-1.4-.9h-.5Z" style="fill:#fff"/><path d="M74.6,73.2h1.7c1.5,0,2.8.4,2.8,2.1s-1.1,2.2-2.6,2.2H76V80H74.5V73.2ZM76,76.3h.5c.7,0,1.4-.2,1.4-1s-.6-1.1-1.4-1.1H76Z" style="fill:#fff"/><path d="M84.1,73a3.2,3.2,0,0,1,3.4,3.5c0,2.1-1.2,3.6-3.4,3.6s-3.3-1.5-3.3-3.6a3.2,3.2,0,0,1,2.9-3.4Zm0,6c1.4,0,1.9-1.2,1.9-2.5s-.5-2.4-1.9-2.4-1.9,1.2-1.9,2.4S82.7,79,84.1,79Z" style="fill:#fff"/><path d="M89.7,73.2h1.4V79h2.7v1h-4V73.2Z" style="fill:#fff"/><path d="M95.5,73.2H97V80H95.5Z" style="fill:#fff"/><path d="M104.4,79.9l-1.6.2c-2.2,0-3.8-1.1-3.8-3.4a3.4,3.4,0,0,1,3-3.7h.8l1.5.3v1.2a4.2,4.2,0,0,0-1.5-.4,2.4,2.4,0,0,0-2.4,2.3c0,.1,0,.2.1.2a2,2,0,0,0,1.9,2.4h.4a2.1,2.1,0,0,0,1.5-.3Z" style="fill:#fff"/><path d="M106.4,73.2h4v1.1h-2.7V76h2.4v1h-2.4v1.9h2.7V80h-4.1V73.2Z" style="fill:#fff"/><path d="M116.5,73.2h1.9c2.1,0,3.9.7,3.9,3.4s-1.8,3.4-3.9,3.4h-1.9Zm1.3,5.7h.8a2.3,2.3,0,0,0,2.3-2.3h0a2.3,2.3,0,0,0-2.1-2.3h-1Z" style="fill:#fff"/><path d="M124.5,73.2h3.9v1.1h-2.7V76h2.4v1h-2.4v1.9h2.7V80h-4.1V73.2Z" style="fill:#fff"/><path d="M130.7,73.2h1.7c1.5,0,2.8.4,2.8,2.1s-1.2,2.2-2.6,2.2H132V80h-1.4V73.2Zm1.4,3.1h.5c.7,0,1.3-.2,1.3-1s-.6-1.1-1.3-1.1h-.5Z" style="fill:#fff"/><path d="M138.5,73.2H140l2.7,6.8h-1.5l-.6-1.6h-2.8l-.6,1.6h-1.4Zm.9,1.3h0l-1,2.8h2Z" style="fill:#fff"/><path d="M144.5,73.2H146c1.5,0,3.2,0,3.2,1.9a1.4,1.4,0,0,1-1.3,1.6h0c.3,0,.6.4.6.7l1.2,2.7h-1.5l-.8-2.1c-.2-.5-.4-.7-.9-.7h-.4V80h-1.6Zm1.4,2.9h.3c.7,0,1.4-.1,1.4-.9s-.8-.9-1.4-.9h-.3Z" style="fill:#fff"/><path d="M152.7,74.2h-2V73.1H156v1.1h-2V80h-1.5V74.2Z" style="fill:#fff"/><path d="M157.9,73.2H160l1.7,5.2h0l1.6-5.2h2.2V80h-1.3V74.4h0L162.4,80H161l-1.8-5.6h0V80h-1.3V73.2Z" style="fill:#fff"/><path d="M168,73.2h4v1.1h-2.6V76h2.3v1h-2.3v1.9H172V80h-4.1V73.2Z" style="fill:#fff"/><path d="M174.4,73.2h1.7l2.6,5.1h0V73.2H180V80h-1.6l-2.7-5.1h0V80h-1.3Z" style="fill:#fff"/><path d="M183.7,74.2h-2V73.1H187v1.1h-2V80h-1.3V74.2Z" style="fill:#fff"/><path d="M55.3,93.2c.7,0,.9,0,1-.7l1-4.9a4.4,4.4,0,0,1,.2-1.2c0-.2-.3-.4-1-.4v-.3h3.2c1,0,2.5.3,2.5,1.8s-1.2,1.7-2.1,1.9h0c1,.1,1.9.6,1.9,1.7s-1.5,2.4-3.1,2.4H55.1ZM57.8,92v.7a.5.5,0,0,0,.5.5,1.8,1.8,0,0,0,2.1-1.6.5.5,0,0,0,0-.5c0-1-.6-1.4-1.5-1.4h-.7Zm.5-2.8h.6a1.6,1.6,0,0,0,1.8-1.6.4.4,0,0,0-.1-.3,1,1,0,0,0-.9-1.2h-.8Z" style="fill:#fff"/><path d="M67,92.3a3.5,3.5,0,0,1-2.7,1.4,1.4,1.4,0,0,1-1.6-1.4.4.4,0,0,1,.1-.3,3.9,3.9,0,0,1,3.3-3.7c.6,0,1.2.3,1.2,1s-2.2,1.9-3.3,2a1.3,1.3,0,0,1-.1.6,1,1,0,0,0,.8,1h.1a2.6,2.6,0,0,0,1.9-.9Zm-1.2-3.6c-.7,0-1.4,1.5-1.6,2.2s2-.7,2-1.7S66,88.7,65.8,88.7Z" style="fill:#fff"/><path d="M67.9,90.4l-.4-.2c0-.8.4-1.9,1.4-1.9s1.5,1.5,1.6,2.8l.4,1.7h0A8,8,0,0,0,72,90.3c0-.7-.3-.8-.3-1.2a.7.7,0,0,1,.7-.8c.5,0,.6.3.6.8a17.4,17.4,0,0,1-4.1,6.5,1.1,1.1,0,0,1-1.2.5c-.4,0-.6-.1-.6-.5a.7.7,0,0,1,.4-.6h1c.6,0,1-.7,1.4-1.1s-.2-1.5-.2-1.8c-.4-2-.8-2.9-1.3-2.9s-.4.2-.4.6v.6Z" style="fill:#fff"/><path d="M78.7,90.5a2.9,2.9,0,0,1-2.9,3.2h-.2a2.1,2.1,0,0,1-2.1-2.2,3.1,3.1,0,0,1,3-3.2,2,2,0,0,1,2.2,1.8C78.8,90.3,78.8,90.4,78.7,90.5Zm-1.2-.6c0-.6,0-1.2-.9-1.2s-1.9,2.2-1.9,3.3.2,1.3.9,1.3S77.5,90.9,77.5,89.9Z" style="fill:#fff"/><path d="M80.5,90.2a.6.6,0,0,0,.1-.6c0-.1,0-.2-.1-.2s-.7.5-1,.6v-.2c.4-.5,1.3-1.6,2-1.6s.5.2.5.6-.5,1.5-.7,2.2h0c.5-.8,2.1-2.8,3.2-2.8s.6.1.6.6-1.2,3.2-1.2,3.6h.1c.3,0,.8-.6,1-.8v.2c-.8,1-1.4,1.6-2.1,1.6a.5.5,0,0,1-.5-.5c0-.5,1-3.1,1-3.4a.5.5,0,0,0-.3-.3H83c-.5,0-1.8,1.8-2,2.4s-.6,1.7-1,1.7-.9,0-.9-.2a1.4,1.4,0,0,0,.2-.6Z" style="fill:#fff"/><path d="M90.9,85.9l-.7-.3v-.2a7.9,7.9,0,0,0,2-.4h.1l-1.6,7a.7.7,0,0,1-.1.5l.2.2c.2,0,.8-.6,1-.8l.2.3c-.5.5-1.4,1.6-2.1,1.6s-.5-.2-.5-.5a5,5,0,0,0,.2-1.2h0a2.9,2.9,0,0,1-2.5,1.7c-.8,0-1.2-.6-1.2-1.5s1.9-3.9,3.6-3.9l.8.2Zm-3,7c1.3,0,2.3-2.2,2.3-3.4s-.1-.8-.6-.8-2.2,2.3-2.2,3.4S87.4,92.9,87.9,92.9Z" style="fill:#fff"/><path d="M96,88.5h1.1l.5-1.6h1.2l-.5,1.6h1.3V89H98.1l-.8,2.6a6.4,6.4,0,0,1-.2.7c0,.2.1.2.2.2s.8-.6,1.2-.8l.2.2c-.5.5-1.5,1.7-2.3,1.7s-.5-.1-.6-.3V93c.1-.5.3-1,.4-1.6l.7-2.4H95.7Z" style="fill:#fff"/><path d="M101,90.8h0c.6-.8,2-2.5,3.1-2.5s.9.4.9,1c0,2.1-2,4.3-2.7,4.3s-.4,0-.4-.2a1.6,1.6,0,0,1,.3-.9h.9a8.8,8.8,0,0,0,.7-2.9c0-.3,0-.5-.3-.5a6.1,6.1,0,0,0-2.7,3.1,2.6,2.6,0,0,0-.3,1.1c0,.2-.4.2-.5.2s-.6-.1-.6-.3.6-2.3.9-3.6l.9-3.9-.7-.3v-.2l2-.4h.1Z" style="fill:#fff"/><path d="M109.9,92.3a3.5,3.5,0,0,1-2.7,1.4c-1.1,0-1.5-.8-1.5-1.7a3.9,3.9,0,0,1,3.4-3.7c.6,0,1.2.3,1.2,1s-2.2,1.9-3.3,2a1.3,1.3,0,0,0-.1.6.8.8,0,0,0,.7,1h.2a3.1,3.1,0,0,0,1.9-.9Zm-1.4-3.6c-.6,0-1.4,1.5-1.5,2.2s2-.7,2-1.7S108.9,88.7,108.5,88.7Z" style="fill:#fff"/><path d="M121.2,91.3c-.2.7-.3,1.3-.5,1.9h-.2a6,6,0,0,1-2.4.5c-2.5,0-3.9-1.5-3.9-3.6a4.7,4.7,0,0,1,4.4-4.6h.2c1.6,0,1.8.5,2.4.5s.2,0,.2-.2h.3c-.1.7-.3,1.4-.4,2.1H121c0-1.2-.6-2-1.8-2s-3.4,2.1-3.4,4.3.9,3.1,2.4,3.1a2.8,2.8,0,0,0,2.7-2Z" style="fill:#fff"/><path d="M126.5,91.8a1.3,1.3,0,0,0-.1.6c0,.1,0,.2.1.2s.6-.4,1-.8l.2.2c-.5.5-1.4,1.6-2.1,1.6a.5.5,0,0,1-.5-.5,15.4,15.4,0,0,1,.5-1.7h0c-.5.8-1.6,2.2-2.6,2.2s-.9-.5-.9-1c0-2.1,2.5-4.5,3.9-4.5a.8.8,0,0,1,.6.4l.2-.5h.8l-.3.9Zm-2.9.9c1,0,2.4-2.2,2.4-3.1a.8.8,0,0,0-.4-.6h-.2c-1.2,0-2.4,2-2.4,3S123.2,92.7,123.6,92.7Z" style="fill:#fff"/><path d="M130,85.9l-.6-.4v-.2a5.1,5.1,0,0,0,2-.4h.1c-.2.7-.5,1.7-.7,2.6l-1.1,4.3c-.1.2-.1.4-.2.5s0,.2.2.2a2.2,2.2,0,0,0,1-.8l.2.2c-1.1,1.3-1.6,1.6-2.1,1.6s-.5-.1-.6-.3v-.3c0-.3.2-.9.3-1.5Z" style="fill:#fff"/><path d="M133.4,85.9l-.7-.4v-.2a4.5,4.5,0,0,0,2-.4h.2c-.2.7-.5,1.7-.7,2.6L133,91.8a.7.7,0,0,1-.1.5c0,.1,0,.2.2.2s.6-.4,1-.8l.2.2c-1.1,1.3-1.6,1.6-2.1,1.6s-.5-.1-.6-.3v-.3c0-.3.2-.9.3-1.5Z" style="fill:#fff"/></svg>