<svg id="Layer_1" data-name="Layer 1" xmlns="http://www.w3.org/2000/svg" width="40" height="40" viewBox="0 0 40 40"><title>vpd-crest</title><path d="M8,35.2l.4.2v-.6l-.5.4H8m-.7.3h.4l1-.8h0v1.4h0v.4h0L8,35.9H8c.2.1.2.1.3,0h0v-.4l-.5-.3H7.7c0,.1,0,.2.1.2h0l-.5-.2h0m1.7.9H9a.3.3,0,0,0,.3-.3h0l.4-.8h0a.4.4,0,0,0-.1-.3h0l.4.2h0l.5,1.3.4-.7h0c.1-.2,0-.4-.1-.4h0l.4.3h0c-.1,0-.2,0-.3.2h0L10.4,37h0l-.6-1.7-.4.8h0c-.1,0-.1.1,0,.2s.1.1.1.2H9m3.4.9h0a.9.9,0,0,1-.9.2l-.4-.3a1.1,1.1,0,0,1,0-.8.9.9,0,0,1,1.1-.4.1.1,0,0,0,.1.1h.2a.1.1,0,0,1,.1.1h0v.4h0c0-.2-.1-.3-.2-.3a.2.2,0,0,0-.2-.2.6.6,0,0,0-.8.3.8.8,0,0,0,.2.9h.2c.2.2.4,0,.6-.1h0m.9.7h.2l.3-.2c.1-.1.1-.2.2-.4s-.1-.8-.3-.8h-.2c-.1,0-.2,0-.3.2a1,1,0,0,0-.1.3,1,1,0,0,0-.1.4c0,.4.2.5.3.5h0m0,.1a.8.8,0,0,1-.6-1,.8.8,0,0,1,1-.6.8.8,0,0,1,.5,1v.2c-.2.2-.4.4-.6.4h-.2m1.2-1.2H15v.7h0c-.1.2,0,.3.1.4s.1.2.3.2.2,0,.2-.1.2-.1.3-.3h0v-.6h0v-.2h.4c-.1,0-.2,0-.2.1h-.2v.7h0l-.2.3h-.4a.6.6,0,0,1-.5-.8h0v-.6h0c-.1-.2-.2-.2-.3-.3h0m2.4,1.9-.4-1.3h0a.1.1,0,0,0-.1-.1h.4c-.1,0-.1,0-.1.1h0l.3,1,.4-.8h.1v-.2h.4c-.1,0-.2,0-.2.1l-.2.2h0l-.6,1h0m1.2.2h.2v-.2h0v-1h0a.2.2,0,0,0-.2-.2h1.3v.4h-.1c0-.2-.1-.3-.3-.4h-.5v.5h.2c.2,0,.3-.1.4-.3h0v.6h0c0-.1-.1-.2-.3-.2h-.3v.5h.5a.7.7,0,0,0,.5-.3h.1l-.2.5L18.1,39h0m2.2-.8h.3c.2,0,.4-.1.3-.3a.4.4,0,0,0-.4-.4c-.2,0-.2.2-.2.3h0v.4h0m-.4.8h0a.2.2,0,0,0,.2-.2h0v-1H21c.1.1.2.2.2.3s-.1.2-.2.3h-.2c0,.1.2.1.2.2s.2.1.2.3.2.3.4.4h0L21,39c0-.1-.1-.2-.2-.3h0v-.2h-.5v.5h0a.2.2,0,0,0,.2.2h0l-.6-.2h0m4.5-1.3h.3c.1-.1.3-.2.2-.4s-.1-.2-.1-.3h-.3c-.1,0-.2,0-.2.1v.2h0v.4h0m-.3.9h0c0-.1.1-.1.1-.2s.1,0,0-.1h0l-.2-.9h0c0-.1,0-.1-.1-.2H25l.2.2a.4.4,0,0,1-.1.3c-.1,0-.1.2-.4.2h-.3v.5h.3l-.7.2h0m2.4-.7h.2c0-.1.1-.1.1-.3a1.1,1.1,0,0,0-.1-.5.6.6,0,0,0-.7-.6c-.1,0-.1.1-.2.2l-.2.4a1,1,0,0,0,.1.4c.1.1.1.3.2.4a.7.7,0,0,0,.6.1h0m0,.1a.8.8,0,0,1-1-.5.8.8,0,0,1,.5-1,.8.8,0,0,1,1,.5v.3c0,.2-.2.4-.3.6h-.2m1.1-.4h0c0-.1.2-.1.1-.3h0l-.3-.9h-.3l.7-.3h0c-.2,0-.2.2-.2.3h0l.3,1h0c0,.1.1.1.2.1h.3l.2-.3c.1-.1.1-.1.1-.3h0v.5l-1.1.3h0M29,37h0a.2.2,0,0,0,.2-.2h0l-.4-1h-.3l.7-.3h0c-.2.1-.2.2-.2.4h0l.4.9h0c.1,0,.2.1.3,0h0L29,37h0m2.1-1.4h0a.6.6,0,0,1-.4.8c-.1,0-.3.1-.5,0a.9.9,0,0,1-.6-.3A.8.8,0,0,1,30,35a.1.1,0,0,0,.1-.1h.4l.3.3h-.1l-.3-.2h-.3c-.3.1-.5.4-.3.9a.7.7,0,0,0,.8.4h.2a.8.8,0,0,0,.3-.7h0m.6.2h0c.1-.1.1-.1.1-.2s0-.1-.1-.2h0l-.5-.8h0c-.1-.1-.2-.2-.3-.1h0l1.1-.6.3.3h0c-.2-.1-.3-.2-.5-.1h-.4v.2h0l.3.4.2-.2h0c.1-.1.2-.2.1-.4h.1l.2.5h0c-.1-.1-.2-.2-.4-.1h-.2l.3.5h.3a.1.1,0,0,0,.1-.1.9.9,0,0,0,.3-.6h0l.2.5-1.2.8h0M18.4,29.1l-.7-1.6-.3.3-.5-.7-.8-.3v.9l-.4-.6h-.2l-1-1.4v1.2h-.2l-.2-.4h-.2l-.3-1.4-.2-.5-.3.7-.2-.4v-.7l-.2-.6-.5.6h0v-.4h-.3V22l-.4.7h-.2l-.3-.5-.3.5h-.1l.2-.3.4-.7h-.1v-.7l.2-.5h-.7l-.3-.3-.6.8h0l.7-.8.8-.8h-.3l.2-.2v-1h-.3v-.3l.3-.2.2-.6v-.5h-.2v-.3l.6-.6h-.3v-.4h-.2l.3-.2h.4V14l.5-.5H13l.5-.6.2-.2.5-.5.4-.2v-.4h-.2l.8-.5-.2-.2h0v-.2l.2-.2.3-.5H14.4V9.4l-.7.7-.3.2h0l.3-.5H13V8.9l-.2.5h-.1v.2h-.3l-.2.5h-.2V9.8l-.2-.6-.2.7H11l-.4-.3v.9l-.2.3h-.3l-.2-.5-.2.7H9.3l-.2-.3v1.6l-.2.3H8.7l-.5-.7-.2.8v.2l-.3.2.3,1.1v.2H7l-.3-.4v1.2H6.4l.4,1.4v.4H6.6L6,17.1l.2.6v.6l-.2.2H5.5l.7.7V20H6l-.7-.4.2.9v.5l-.2.2,1,1.1v.2l-.2.3v.2l-.5-.2.4.9v.8l-.2.3.9.7H6.4L7,26l.2.4v.7l.8.2.6.4V28H7.5l.9.8.2.4h0l-.2.3,1.6.2h.2l.2.2v.9H9.6l.6.3.6.3.3.3v.4l.8-.2h1l.2.2-1,.9h1.1l.4.2H14v.5l.7-.3.4-.2h.9l.3.3v.3l.2.5L17,35l.4-.3v-.8h-.5l-.5-.2-.3-.2.2-.5.2-.4.3-.2v-.2l-.2-.2-.2-.4v-.4l-.4-.3h.4l.4-.2.5-.2h.2V29.1h1M21.9,7.2a.8.8,0,0,0-.2-.5c-.2-.2-.4.1-.5.2s0-.6.1-.7a.5.5,0,0,1,.5,0v.3H22c-.1-.4-.1-1.7.4-1.6s.1,1.5.1,1.6h0a.4.4,0,0,1,.3-.4c.2,0,.2.6.1.9s-.4-.2-.5.2-.3-.1-.5,0h0m-4.7.2c0-.2,0-.7-.3-.6s-.2.5-.3.2a.4.4,0,0,1,.2-.7c.2,0,.2,0,.3.2a.3.3,0,0,1,.1.2h0c-.2-.2-.2-.3-.2-.6a1.4,1.4,0,0,1,.2-1.3c.3,0,.7,1.9.4,1.8h.1a.3.3,0,0,1,.2-.4.6.6,0,0,1,.2.9c-.2-.3-.6-.2-.5.4s-.2-.1-.4,0h0m4.7,1.5h.3a.2.2,0,0,0-.1-.4.4.4,0,0,0-.5.1h0a.3.3,0,0,0,.3.3h0m-4.6-.3c0,.4,1.1.2.7-.2a.5.5,0,0,0-.7.2h0m7.2-3.1h-.2c.3-.6.7-2-.4-2.6s-2.2.9-3.3.9h0V3.4h0a17.2,17.2,0,0,0,1.9-.9,1.9,1.9,0,0,1,1.9.3c.2.2.7,1.1,0,2.7h0m-9.6.3a2.6,2.6,0,0,1-.3-2.2c.2-.7.4-.8,1-1.1a2.3,2.3,0,0,1,2,.4c.3.1.7.5,1.2.5v.3A3.3,3.3,0,0,1,17.2,3a2.2,2.2,0,0,0-1.7-.1,1.1,1.1,0,0,0-.7.9V5.1a1.6,1.6,0,0,0,.3.6h-.2M19,5.3a13.1,13.1,0,0,0-.1-2.1l.3.2V5.3H19m.9-.1a.3.3,0,0,0,.1-.5.3.3,0,0,0,0-.4.4.4,0,0,0,0-.5c.1-.1.1-.2,0-.4h.2a9.2,9.2,0,0,0-.1,1.8h-.2m-.6-.3V3.5h.2V3.2c.2-.3.5-.2.6.3s-.4-.2-.5,0a.3.3,0,0,0,0,.4.5.5,0,0,0,0,.5.3.3,0,0,0,0,.4c-.1-.1-.1,0-.2.1h0m0,.4V5c0,.2.1.3.2.3h-.2m1-.1V3.4l.3-.2a14.8,14.8,0,0,0-.1,2h-.2m-.9-3.8V1.2l-.6.2h0V.6h.6v.4c.2.2.5.1.5,0a.3.3,0,0,0,0-.4h.7v.7h0c-.2-.1-.4-.3-.7-.1v.2h-.5m.1-.8a1.4,1.4,0,0,0-.2-.6h.8a.7.7,0,0,0-.2.6h-.4m2.6,7h-.5c.1-.4.5-.2.6-.2s.4.1.4.3h-.5m-5.2.1c0-.3.8-.4,1-.3s-.9.4-1,.3h0m5,1.1h-.2V8.5h.5c.1.1,0,.2-.2.2h0m-4.5-.1c.1-.4.6-.2.6-.1s-.5.2-.6.1h0M15.7,7.4c.4-.1.7.2.8.2s-.4-1.1-.4-1.6H16c0,.3-.2.7-.5.7s-.2-.8.1-.9l.2-.2h-.5a.8.8,0,0,1-.2-.5.8.8,0,0,1,.1-.8c.4-.5.8-.4.9-.3s.3.2.6.2.5.3.7.2h.1l.2-.3a.1.1,0,0,0-.1-.1c0,.2-.1.3-.2.3a1.1,1.1,0,0,0-.8-.1h0l.7-.3h0a2,2,0,0,1,1.7.5c.1,0,0,.5,0,.8h0c.2.1.7.7.4,1s-.6-.5-.8-.7h-.1a8.7,8.7,0,0,1,.1,2h.2a.7.7,0,0,1,.4-.6h0c.2-.1.4,0,.4.2s-.1.4-.2.5-1.1,0-1.1-.2,0-.3-.2-.4-.1-.3,0-.4.4.4.5,0,0-.8-.3-.9H18c0-.5-.2-1.3-.5-1.4s-.3.4-.4.7a1.5,1.5,0,0,0,.1.9h-.3c-.1,0-.4.4-.1.9s.2.1.4-.2.2.2.2.4h-.2c-.2.1-.2.2-.1.3s.1.1.3,0a.9.9,0,0,1-1.7-.4h0m7.3.7c-.2-.1-.4-.2-.4-.4s.1-.3-.1-.5,0-.2.2-.3.1.2.2.4.2-.4.3-.5-.1-1-.6-.7.1-1.2-.2-1.3-.6,1-.5,1.3-.5-.2-.7,0-.2.8.1.9h.1c0-.1.1-.3.3-.2V7h-.1c0,.1-.1.1-.2.1h0v.2h0c.3.1-.2.4-.3.4s-1.2-.4-.9-.9.9.1.9.5h.1a3.7,3.7,0,0,1-.1-1.9H21a.9.9,0,0,1-.4.6c-.1.1-.3.2-.4-.1s.4-.7.5-.7h-.1a3.3,3.3,0,0,1,0-1h1.8c.5,0,.3.3.2.4s-.7.2-.7,0h-.1v.3a2.4,2.4,0,0,0,1.3-.4h.2c.3-.2.8.1,1,.5s-.1.6-.1.6-.2-.1-.4,0a4.2,4.2,0,0,1,.3,1.2c-.5.1-.7-.6-.7-.8h-.1c0,.2-.3,1.4-.4,1.8s.4-.4.7-.4a1.6,1.6,0,0,1,0,.7.9.9,0,0,1-.7.3h0m-7.5-.2v.2h.2L15.5,8h0m2.2-1.4h.4V6.1h-.3v.2h0m4.9,0h0v.2h0m-.7,0h-.5v.2h.6M22,29.1h0v.8h0v.2H21v-.4l.3-.2H22m-3.9.7h-.4l-.2-.2V29h.6l.2.2h.2v.4h-.4m-2,3.6v-.6h.8V33h.4v.4h-.6l-.3-.2h-.3m3.7,1.5h.6v.4l-.2.2-.2.3h-.1l-.2-.2h-.2l-.2-.2v-.4h.6M22.5,33h-.2v-.2h.5l.2.2v.4h0v.2H22.1v-.2h.5m-1.3-3.9h.9v1.4h.2l.4.2h.9l-.4.4-.2.4-.2.4-.2.3h.2l.2.2.2.4.2.5h-.3l-.4.2h-.4v1.1l.2.2.2.3L23,35v-.4l.3-.3h.9l.4.2.6.3v-.5h1.7l-.8-.9h.2l.5-.2h.6l.7.2v-.4l.3-.3.7-.3.4-.2h-.4l-.3-.2V30.3h.3l1.6-.3-.2-.2v-.2l.2-.3.7-.7h-.9l.2-.3.6-.4.8-.2-.2-.4v-.2l.2-.4.6-.6h-.6l1.1-.8V23.8l.4-.7-.4.2h-.3l-.2-.4v-.3l1-1-.2-.3v-.5l.2-.7-.5.3h-.4v-.9l.6-.6h-.3l-.2-.3v-1l-.4.3-.2-.2v-.5l.4-1.3h-.4v-1l-.2.2-.4.2h-.5l-.2-.4.3-1.1h-.3l-.2-.3-.2-.7-.3.6h-.3l-.3-.3V11.4l-.2.2h-.2l-.3-.2v-.5l-.2.2h-.4V10h-.5V9.8l-.2-.4v.7h-.3V9.8H27v0H26l.3.4h-.2l-.2-.2-.7-.6V10h-.9l.2.3v.5h-.1v.2l.9.6H25V12h.2l.6.5.3.3.4.5H27l.2.2v.2h-.4l.4.5.2.2v.3h.4l.5.3H28v.4h-.2l.5.6v.2h.5v.2h-.6l.2.3.2.6.2.2v.4h-.2v.8l.2.2v.2l-.2.2.7.7.8.9-.2-.3-.8-1v.7l-.2.2h-.4l.2.4.2.4v.3l-.4.3.6.5h-.2l-.2.4h-.3l-.4-.5V24h-.3v.5h-.1l-.4-.6-.2.5v.7l-.2.6-.3-.7-.2.4L26,26.9h-.2l-.2.3-.4.2V26.2l-.9,1.3h-.2l-.4.7v-.9l-.7.2-.6.7-.2-.3-.9,1.2h0m2.5-1h.4l-.2,1.4h.2l1.8-1.7.3.3h1.7l-.3.4-.2.4-.2.4v1.2l-2,.9h-.1l1.3.4-.4.3H26v.2l.3.4-.4-.3v-.6l.3-.2L25,31.6h-.1l2.3-1-.2-.6v-.6l.2-.4.3-.5H26.1l-.2-.3L23.8,30V28.3h-.3v-.3h0v.3h0m5.2,3v.2h-.2v-.8H27.5v-.2h.1l1.7-1.5-.2-.2v-.9l.2-.7.2-.4-1.1.2h-.5v-.2L26.3,28h-.1l.2-.2v-.1l1-1.3-.4-.7-.3.3v-.3h.1l.3-.2.4.8v0l.2.2h1.7l-.3.5-.2.8v.2h0v.4h.4l-1.7,1.6h1V31h0m2.1-3h-.4v-.2h-.9v-.4h.1v-.3l.3-.6.4-.5.3-.5h-.7V24.1l-.5.4-.3.2h-.6l-.7,1.8h0l.4-1.2-.4-.8h-.3l.3-.2.4.9.2-.6h.7l.3-.2.3-.3.2-.2V25l.2.2h.5l-.4.4.4-.2.2-.2.5-.2v.4h0l-.5.2-.3.2-.5.3-.2.3-.3.6v.4h.8v.2H31m-.2-3.4v.6h-.1l.3-1.1.3-1.1h-.6v-.4l-.2-.4v-.7l-.2.3-.2.3-.2.2-.3.3-.3.2h-.2v1.7h-.1V22.9h.2l.2-.2.3-.2v-.2l.2-.3v-.3l.2-.3.5,1.5h.6l-.3,1.2v.5h0m2.5-1.5H32.1v.3l-.2.2h-.3V21.2h-.6v-.2l-.2-.4-.2-.4-.2.4V21l-.2.2h-.5l.3,1h-.1l-.3-1.1h.8v-.6h.1l.5.8h.7v2.2H32v-.1h1.1m-.3-3h-.6l-.3.4v.2l-.2.2-.2-.2v-2h-.5l-.2-.2-.4-.5-.3.5-.2.4v.2h-.4l.6,1.4H30L29.4,19h.4v-.4l.3-.8.4.4.2.3h.7v2h.3l.3-.5.2.2.2.2H33m-.1-2.5-.2.2h-.6l-.2.5-.2.2h-.1V17.3l-.2-.9h-.7l-.5-.5-.2.5v.5l-.2.3.2.4.2.4.3.7h0l-.9-.7h-.1v.4h0V18h.2l.3.2.3.2h.1l-.3-.8-.3-.4.2-.2.2-.3v-.9l.4.4.3.2.2.2h.5v1.9h.2l.3-.5h.1v.2h.6v-.3h0m-1.2-2.5h-.2v.9l-.4-.8-.4-.8v-.4h-.9l-.5-.2v1.2h-.1l.6.8.3.3-.3.3-.6-.3v-.1l.7.4.2-.2-.3-.5-.7-.7h.4V14l.3.2h1V14l.2.6.3.7h.3V15h.2m-.8-2-.2.4-.4-.3V14h-.2l-1-1.1v.2h-.7V14h-.1l.9.7h0l-1-.8h.2v-.8H29l.2-.2.8.9h.3v-.4h.1l.3.2h.2v-.3h0m-1.5-2v.4h-.3v.9h-.1l-1.1-1.3v.4h-.9v1.2l.5.2.4.2h.3l.2.2h-.5l-.2-.2-.8-.3H27v-.4h0l-.2-.3v-.5h1.2V11L29,12.1h.1v-.7h.4v-.2h-.1m-1.8-.7h0v.3h-.2l-1-.6-.2.2h-.9l.2.2v.7h.8v.5h-.5v.3h-.1v-.2h.5v-.4l-.5-.2h-.4V11h-.1v-.2l-.2-.2h1v-.2l.9.6h.2v.2h0M10.6,31v-.8h.9L10,28.4l.2-.2h.2v-.2h0v-.3l-.2-.7-.2-.5h1.7l.2-.2v0l.4-.8.3.3v.1l-.3-.3-.4.7,1,1.3v.1l.2.2h-.1l-1.3-1.4v.2h-.5l-1.1-.3.2.5.2.7v.8l-.3.2L12,30v.2H10.9V31h-.3v-.2h.1M8.7,28H9v-.2h.8v-.4l-.3-.7-.4-.4H9l-.4-.3L8,25.2H8v.2H7.9V25l.6.3h.3v-.3h.4l.2-.2V23.8l.2.2.3.2.3.3h.5l.2-.2.2.6.4-.9.4.2h-.4l-.4.8.4,1.2h0L11,24.5h-.6l-.3-.2L9.6,24v1.1l-.2.2H8.9l.3.4.3.6.4.6v.3h0v.2H9.1v.4H8.9l-.2.2h0m.1-3.3-.2-.5L8.3,23h.6l.6-1.5V22l.2.3v.2l.3.2.3.2h.2v1.7h-.1V22.9h-.2l-.3-.2-.2-.2-.2-.3L9.6,22l-.2-.4v1.1l-.2.4H8.4l.3,1,.2,1.1h0v-.6h0M6.2,23.1H7.3l.2-.2v.3H8V20.9h.7l.4-.9v.5l.2.2v.2h.1l.2.2h.3l-.3,1.1H9.8l.2-1H9.8l-.2-.2H9.5l-.2-.2-.2-.4-.2.4V21H8v2.5H7.8l-.2-.2V23H7.4v.2H6.4l-.2-.2h0m.4-2.9h.3l.2-.2.4.4v.2h.1v-2h.6l.3-.3.3-.4.3.8.2.2v.2H10l-.7,1.6h0l.6-1.4H9.5v-.2l-.2-.4L8.9,18l-.4.5H7.8v2.1H7.5v-.3L7.1,20h0l-.2.2H6.6m0-2.6h.5l.2-.2h0l.4.5h.2V16.1h.5l.2-.2.3-.2.4-.4v1l.2.2.2.2-.2.5-.3.8h.1l.2-.2.3-.2h.2l.2.3h0v-.2l-.2-.2h0l-.9.8H9.4l.3-.7.2-.4.2-.4-.2-.3-.2-.3L9.5,16v-.5l-.6.5v.2H8.2l-.2.8v1.2H7.8l-.2-.2-.3-.4H6.8l-.2-.2h0m1.3-2.5h0v-.2h.3v.3h.3l.3-.7.2-.6.2.2h.9l.4-.2v1.1H11l-.7.7-.4.5.2.2.7-.4v.3h-.1l-.6.3-.2-.3.2-.3.7-.8h-.3V14l-.5.2H9.3L9.1,14v.5l-.4.8-.4.7V15H7.9m.8-1.9h.1v.2l.4-.3h.1v.5h.2l.8-.9v.2h1l-.2.3h-.1v.6h.2l-1,.8h0l.8-.7h-.1v-.8l.2-.2h-1l-1,1H9.3v-.6l-.4.2-.2-.2h0m1.5-2h0v.2h.4V12h.2l1-1.1v.2h1.2l-.2.5V12h-.1v.4h.1l-.7.3-.2.2h-.5v-.2h.3l.4-.2.5-.2V12l.2-.3v-.2h-.9l-.3-.3v-.2l-1.1,1.3h-.1v-.9h-.5m1.7-.9h.3l.9-.5h.1v.2h.9v.3h-.2v.6h-.5l-.4.2v.4h.5v.3h-.1v-.2h-.5V12l.2-.2.3-.2h.5v-.9h-.9l-.2-.2-.9.6h-.2v-.4h0v-.2h0m7.8,19.9v.9h-.8l-.2-.2V29.7l.3-.4.3-.2.2-.3h.2v-.2l.3.3.4.4.2.4.2.4v1h-1v-.8h0m-3.4.8h2.4l.2.2v.2h0v.3h-.7l.3.2h.2v.4H17.3v-.2l-.2-.2h-.2l-.3-.6v-.4h-.1m2.5,2.5.2-.2h.6v1.1l-.2.2H19l-.4.2h-.3l-.3.2h-.3l-.2.2V33.2l.2-.2.2-.2h.8v.6h-.2m2.2,0-.3-.2h-.1v-.2h1l.2.3.2.3.2.4v1.3H20.6l-.3-.2-.2-.2v-1h.7l.3.2h0m.6-1.9h-1v-.2h0V31l.2-.2v-.2h1.4l.2.2h.9l-.4.4v.4l-.2.3-.2.3-.2.2H21.2l-.2-.2h-.2v-.4l.2-.2h.5m-1.8-.3a.9.9,0,1,1-.9.9.9.9,0,0,1,.9-.9h0m-.3,1.1h-.1a.1.1,0,0,0,.1.1h0m.2-.3h.1c0-.1,0-.1-.1-.1h0m.1-.3h-.1c0,.1,0,.2.1.2s.1-.1.1-.2h-.1m-.1-.4h-.1a.3.3,0,0,0,.1.2.2.2,0,0,0,.2-.2h-.2m-.3.1v.2h.1a.1.1,0,0,0,.1-.1c0-.2,0-.2-.1-.2h0m-.2.2v.2h.3c0-.2-.1-.2-.2-.2h0m-.1.3a.1.1,0,0,0-.1.1c0,.1,0,.1.1.1s.1,0,.1-.1a.1.1,0,0,0-.1-.1h0m.1.3H19a.2.2,0,0,0,.2.2.3.3,0,0,0,.1-.2.1.1,0,0,0-.1-.1h0m.3-.2c-.1,0-.1,0-.1.1h.2a.1.1,0,0,0-.1-.1h0m0-.4c-.1,0-.1,0-.1.1h.1m3.1-1.3h0v-.8l.4-1.2-.5,2h0m.8,1.3h0l1.4-1.3,1.7-1.3-3.1,2.6h0m-.2.9,1.6.4,1.9.7h-.4l-.4.2.2-.3h0l-2.9-.9h0m1.3-3.7h0l.5-1.8v.7l-.4,1.1h0m1.6,2.7h3l-.5.4v-.2H26.1M28,28l.4-.6.7-.6L28,28h0m.8,1.5,1.5-.6,1.2-.3-.6.6V29h-.6l-1.5.6h0m.5-3.3h0l.2-.6.5-1-.7,1.6h0m.9,1.1,1.1-.7,1.3-.7-.4.6H32l-.4.2-1.3.7h-.1m-.1-3.5V22.3l.3.6h-.2l-.2.8h0m1.3,1.3.8-.8.7-.5.5-.3-.3.9V24h-.2l-.6.4-.9.8h0m-.9-4.2h0l.2.3v-.3h0m1.8,1.4.6-.8.2-.4.3-.4.5-.5v1.1l-.2-.2h-.2l-.5.7-.8,1.1.2-.4h0m-.9-1.2h0l-.2-.9v-.7l-.3-1,.2.2h0v.4l.2.8v.9h0m.9-1.2v-.8l.2-.5.3-.4.2-.4v.8h-.3v.2l-.5,1.2h0m-1.2-1.7h0l-.2-.6-.2-.5-.3-.7v-.2l.2.2v.3l-.2-.2.2.5.2.7.2.5h0m-1-2.8-.7-1.1h.2l.5.9h0M32,17.6v-.8l.3-.9.3-.6v.5h-.3l-.2.8v.8h0m-.8-2.7h0v0h0M29.3,14h0l-.8-.8h.2l.6.7h0m.7-.6h0l-.2-1.1v0l.2,1.1h0m-1.3-.5h0l-.9-.7-.6-.5.6.4.9.8h0m-.2-1.5-.2-1v-.2l.2,1.2h0m-1.5,0h0l-.6-.3-.4-.3h.3l.7.5h0m.1-.9-.2-.7.2.3v.4h0m-1.7,0h0l-.7-.4.3.2.4.2h0M16.9,30.3l-.5-2,.4,1.2v.8h0m-.6,1.4-3.5-2.8,1.9,1.4,1.6,1.4h0m.1.8-2.9.9h0l.2.2h-.8l1.9-.7,1.6-.4h0M15,28.8l-.4-1.1v-.8l.4,1.9h0m-2.8,2.9H11v.2l-.8-.4H14l-1.8.2h0m-.7-3.8-1.1-1.1.7.5.4.6h0M9.8,29.1l1.3.5-2-.6H8.7v.4l-.8-.8,1.4.4.6.2h0m.5-2.9-.6-1.7.4,1,.2.7h0m-1,1H9.2l-1.3-.8H7.3l-.4-.6,1.3.7,1.1.7h0m.2-3.5h0l-.2-.8v-.2H9.1l.3-.6v1.5h0M8,25H8l-.9-.8-.5-.4H6.4v.5l-.3-.9.5.3.7.5L8,25H8m1-4.1v.3l.2-.3H9M7.7,22.7l-.5-.5-.6-.7L6.2,21H6l-.2.3v-.9l.4.3.7.9.8,1.1h0M8.2,21v-.9l.2-.7V19H8.2l.2-.2h.1l.2-.2-.3,1-.2.7V21h0m-.9-1.2-.5-1.2-.2-.2H6.4v-.8l.3.4.2.4L7,19v.4l.2.4h0m1.2-1.6v-.6l.2-.7.2-.5H8.8v-.2l.2-.2v.2l-.2.6-.2.7-.2.6h0m1-2.9h0l.4-.9h.2l-.6,1h0m-2,2.1h0v-.7l-.2-.8H6.9v-.5l.4.6.2.9v.7h0m.9-2.6v0h0m1.9-1,.6-.7h.2l-.8.7h0m-.7-.6.2-1.1v.1l-.2,1h0m1.4-2h0l.2-1.2v.2l-.3,1h0M25.5,27h0V27h0m2.1-1h0v-.3l-.2-.6.3.5V26h0m.9-1.7h-.1v.1h0m.6-8.1-.5-.4.3.2.2.2h0M29,17.4h.3l.3.3-.6-.4h0M21.4,29.1l.5-1.2.2.3.6-.7.6-.3-.8,2.5.5-2.2-.2.2-.7.7-.2-.3-.5,1h0m3.5.9-1.7,1.7.9-.7.9-.8,2.2-1.6-.4.5.2.6V28.6l.2-.4H25.9l-.9.9.8-.7.3.2,1,.2L24.9,30h0m-1.7,2.5h0l1.6.2,1.9.9-1.9-.7-1.6-.4h0m.5-4.6.4-.6h.2l.7-1.1v1.1l-.4,1.5.4-2.3-.6.9h-.2l-.4.5h0m2.1-1.2.3-1.4v-.2l-.4,1.6h0m1.6.2.2-.3h.6l1.1-.3-.2.3-.7.5.4-.5H27.6l-.2.2h0m1.2,3.6v.7l.3.2.4.3h-.2l-1.3-.2h.9l-.2-.4v-.5h0m-.1-5.2.2-.5h.6l.7-.6v.4l-.5.9v-.7h-.8l-.3.4h0m1.8,2.4.2.3.2.2.4.2h.3l-1.1.3-1.5.6,1.6-.7.5-.2-.3-.3-.2-.3v-.3h0m1.3-2.1h1.3l-.4.2-1,.6h-.3l1-.7h-.6m.7-2.3h1.3l-.2.2-.4.3-.7.5.7-.7h-.7m-3.4.2v-.4h.5l.3-.3.2-.2.2-.4h0v.6h-.2l-.4.2-.2.2h-.3v.3h0m.7-1.9v-.3h.6l.2-.2v1.6l-.2-.9-.2-.5-.3.3h-.4m3-1.4h1.1L34,20l-.6.6-.3.4-.2.3-.8,1.5.3-.7.7-1.2v-.2H33l-.4-.2h0M29,18.7h.2l.3.3-.5-.4h0m.9.8v-.3h.3l.2-.2v-.2l.2-.5v.3l.2.7.2.8v.2l-.5-1.1v-.4l-.3.4-.2.2H30v.2h0M32.3,18h.6l.4-.3v.3l-.5.7-.2.5.2-.6.2-.3h-.6m-2.6-.8v-.3l.2-.4.2-.2v-.5l.2.4v.2l.4.7.2.6-.5-.9-.3-.4-.3.3-.2.2v.3h0M32,15h.7l-.2.5-.3.5v0l.2-.7H32l-.2.2L32,15h0m-3,.4h0v-1h.3l.6,1.1-.6-.9h-.2v.7H29m1.7-1.8.5-.7v.3l-.4.4h0m-3.2.4h.2l.2.2-.4-.2h0m.8.2V14h.1v-.8h.1l.8.8-.7-.6v.4h-.2v.2h0m-1.2-1.5h-.3V11.6l.3.2.8.5.8.6-1.6-1v.6h.1M29,11.6h.2v-.2h.1l.2-.2v1.5l-.2-.4v-.8H29m-3-.1h-.1V11l-.3-.3H26l.3.3-.3-.2h-.1v.6H26m1.8-1.1.2-.3V9.7l.2.5v.2l.2.8-.3-1.1v.2h-.3m-1.2-.5V9.3l.2.5v.5l-.3-.7h0l-.2.2h0m-1.9,1.2-.2-.2h.2v-.2l-.3-.5.3.2.7.5-.8-.4v.5h0v.2h0M14.1,26.9v-.1h0m-2.2-1v-.4l.3-.6-.3.6v.4h0M11,24.2v-.1H11m-.6-8h0l.2-.3H11l-.6.4h0m.2,1.1-.6.5.2-.3.4-.2h0M18.2,29h0l-.7-1v.3l-.8-.8-.2-.2.5,2.2-.8-2.4.6.3.6.6.2-.2.7,1.2h0m-3.5.9-2.3-1.4,1.1-.3h.2l.8.7-.8-.9H12.1v.3l.2.3v.8l.3-.5-.4-.4,2.2,1.5.9.8.9.8-1.7-1.8h0m1.6,2.5-1.6.4-1.9.7,1.8-.9,1.7-.2h0m-.4-4.7h0l-.4-.4h-.2l-.6-.9.4,2.3-.4-1.6V26l.7,1.1h.2l.4.5h0m-2.2-1.1h0l-.4-1.7v.2l.3,1.5h0m-1.5.3h0l-.3-.3H10.8l.3.4-.7-.5-.2-.3,1.1.3h.6l.3.4h0M11,30.4V31l-.2.4h.9l-1.3.2h-.2l.4-.3.3-.2v-.8h0m.1-5.2h0l-.2-.4H10l.2.7-.5-1v-.3l.7.6H11v.5h0M9.2,27.7v.2l-.2.3-.3.2.5.2,1.7.7-1.5-.5L8,28.5h.4l.4-.2v-.2l.3-.2h0M7.3,23.3H6.6l.7.7-.7-.6-.4-.2L6,23.2H7.3m3.4,0v-.2l-.3-.2H10l-.3-.2-.2-.2v1.3l-.2-1.5v-.4h.1l.2.3.2.3.2.2.2.2h.4v.3h0m-1-3.9h0v-.3H9.3L9,18.6v.3L8.4,20v-.2l.2-.7.2-.7V18l.2.5v.3l.2.2h.4l-.2.3h0M7.3,17.9H6.8v.3l.2.5-.2-.4-.5-.7v-.4l.4.4h.6m2.6-.8h0v-.2l-.2-.2-.3-.4-.3.4-.4.9.2-.6.3-.7v-.2l.2-.5v.6l.2.2.2.4v.3h0M7.6,14.9v0H7.1l.2.6v.1l-.4-.6v-.5h.8m1.2-1.4-.4-.3v-.4l.4.7h0m2.4.6h.1l-.2-.2h0v-.4l-.7.6.7-.8h.3v.8h0m1.2-1.4h0l.2-.2h0v-.7l-1.6,1,.8-.6.7-.6.4-.2v.2l-.2.3v.5h.1l-.2.2h0m-1.9-1.1H10V11l.2.2v.2h.2m1.3-1.3h0l-.3-.2V9.9l-.3,1.2.2-.9V10l.2-.5V10l.2.3h0M13,9.8h0l-.2-.2h0l-.2.7V9.8l.2-.6v.6h0M14.8,11H15v-.8l-.8.4.7-.4.3-.2-.3.5h0v.2h.2l-.3.2h0m1.1,17v-.1l-.2.3h-.3V30l-2-2.1-.3.2H11.9l.3.5.2.5v1.1l2.2,1,.2.2h-.3l-1.2.3.3.2v.6l-.4.4.3-.5v-.2h-.1l-.3-.3,1.2-.4h.1l-.2-.2-2-.9.2-.3v-.8l-.2-.5-.3-.4-.3-.3h1.7l.4-.3,1.7,1.6h.2V28h.4M16,10.5c-.6.2-.7-.8-.3-.8a8.5,8.5,0,0,1,3.1-.6,14.7,14.7,0,0,1,5.1.6c.2.1,0,1-.3.8a11,11,0,0,0-7.6,0h0m3.5-5.8c-.1-.3,0-.4.2-.4s.4.2.3.4-.4-.2-.5,0h0m.2,0A.3.3,0,0,1,20,5a.3.3,0,0,1-.6,0,.3.3,0,0,1,.3-.3h0m-.2-.5c-.1-.2,0-.5.2-.5s.3.3.2.5a.3.3,0,0,0-.4,0h0m0-.5a.3.3,0,0,1,.2-.4c.3,0,.4.3.3.4a.4.4,0,0,0-.5,0h0M17.6,2a.3.3,0,0,1,.3.3.3.3,0,1,1-.6,0,.3.3,0,0,1,.3-.3h0m.7.4a.3.3,0,0,1,.3.3.3.3,0,0,1-.3.3c-.2,0-.4-.1-.4-.3s.2-.3.4-.3h0m2.9-.1a.4.4,0,0,1,.4.3.4.4,0,1,1-.8,0,.4.4,0,0,1,.4-.3h0m.7-.4a.4.4,0,0,1,.4.4c0,.2-.2.3-.4.3a.3.3,0,0,1-.3-.3.4.4,0,0,1,.3-.4h0m1.6-.4a.3.3,0,0,1,.3.3.3.3,0,0,1-.6,0,.3.3,0,0,1,.3-.3h0m.8.1a.4.4,0,0,1,.4.4.4.4,0,0,1-.8,0,.4.4,0,0,1,.4-.4h0m.7.7a.3.3,0,0,1,.3.3.3.3,0,1,1-.6,0,.3.3,0,0,1,.3-.3h0m.3.7c.2,0,.3.2.3.4a.3.3,0,0,1-.6,0c0-.2.1-.4.3-.4h0m.1.9c.2,0,.3.2.3.4a.3.3,0,0,1-.3.3c-.2,0-.4-.1-.4-.3a.4.4,0,0,1,.4-.4h0m-.2.8c.2,0,.4.1.4.3a.4.4,0,0,1-.4.4c-.2,0-.3-.2-.3-.4a.3.3,0,0,1,.3-.3h0M14.2,5c.2,0,.3.2.3.4a.3.3,0,1,1-.6,0c0-.2.1-.4.3-.4h0M14,4.1c.2,0,.3.2.3.4a.3.3,0,1,1-.6,0c0-.2.1-.4.3-.4h0m.1-.9a.4.4,0,0,1,.3.4.5.5,0,0,1-.3.3.4.4,0,0,1-.4-.3.4.4,0,0,1,.4-.4h0m.3-.7c.2,0,.4.1.4.3s-.2.3-.4.3a.3.3,0,0,1-.3-.3.3.3,0,0,1,.3-.3h0m.8-.6a.3.3,0,0,1,.3.3.3.3,0,0,1-.3.3c-.2,0-.4-.1-.4-.3s.2-.3.4-.3h0m.8-.3a.3.3,0,0,1,.3.3c0,.2-.1.4-.3.4s-.3-.2-.3-.4a.3.3,0,0,1,.3-.3h0m.8.1c.2,0,.4.1.4.3s-.2.3-.4.3a.3.3,0,0,1-.3-.3.3.3,0,0,1,.3-.3h0m5.8-.1c.2,0,.4.1.4.3a.4.4,0,0,1-.4.4.4.4,0,0,1-.3-.4q.1-.3.3-.3h0M19.7.7c.1,0,.2.1.2.3s-.2.2-.2.2-.3-.1-.3-.2.1-.3.3-.3h0m.1,5.6a.4.4,0,0,0-.4.4.4.4,0,0,0,.8,0c-.1-.2-.2-.4-.4-.4h0m-4.6.5c-.1.1-.1.2,0,.4s.1.3.2.3.1-.2.1-.3-.2-.4-.3-.4h0m9.3-.1c-.1-.1-.2.1-.3.2s0,.3.1.4.3-.1.4-.3,0-.3-.2-.3h0M19.1,1.8h0c.1.1.1.1,0,.1s-.1,0,0-.1h0m.4,1.4h0M17.2,5l.2,2.2h.2V6.4h0L17.2,5h0m0,2.2V6.8h-.1V6.5H17v.2h.1v.4h0m4.5.3h0m.4-.4h.2V6.4h-.2V4.9l-.3,2.2h0m-.3.7h-.2l-.2.2h.2v0h.2m-2.1.9.5-.2h0l-.3-.2c-.1-.1-.5.1-.5.2h0s.3.3.3.2h0m0,0-.3-.2.4-.2.3.2-.4.2h0M16,9.1l.3-.2h0c0-.1-.2-.1-.3-.1s-.4.2-.5.2H16M15.9,9h-.2l.2-.2.3.2h-.3m7.6.2.4-.2h0l-.5-.3-.3.2h0a.5.5,0,0,0,.4.3h0m.1,0a.5.5,0,0,1-.3-.3h.3l.2.2c-.1,0-.2.2-.2.2h0m-5,21v.6h.9v-1h0v1h.7v0h-.2v-.3h-.1v-.2l-.2-.2H20v1h-.4v-.9h0v1h-.3v-.5h-.1v.6h-.4v-.4h0m-.6.4h-.8v.2h-.2l-.2-.2H17v.2h1.5v-.2h-.2v-.2h.4v-.2H18m.2,3.8.4-.4.2-.3H19v.4h-.2v.2l-.2.2h.1l.2-.2h.1l.2-.2v-.4h0v-.2h.2v.2h0v.6h0l.2-.2v-.6l-.2-.2H19l-.2.2h-.2l.2-.2v-.2h0V33H17.6v.2l.2-.2v-.2l.2-.2h.3v.2H18v0h.3v-.2h.1v.2h-.1V34h-.1v.3h0m3.9-.3v-.4l-.2-.4-.2-.3-.2-.2h-.8v.2h.4l.2.2v.7h0v-.8h.1l.2.2.2.3v.4l.2.2h0M22,30.6h-.8l-.2.2-.2.2h0v.2H21v.2h1.4v-.2h.1l.2-.4-.2.4v.2h-.2v-.2h-1l.3-.2h-.5l.3-.2H22m-2.7,2c-.1,0-.1,0-.1.1h.2c0-.1,0-.1-.1-.1h0M20,32a.1.1,0,0,0-.1.1h.2c0-.1,0-.1-.1-.1h0m.1.2a.3.3,0,0,0-.1.2h.3l-.2-.2h0m-.3.2c-.1,0-.1.1-.1.2a.1.1,0,1,0,.2,0v-.2h0m.3.1h-.2a.2.2,0,0,0,.2.2.3.3,0,0,0,.1-.2h-.1m.2.2h-.1a.3.3,0,0,0,.1.2.2.2,0,0,0,.2-.2h-.2m.2-.3a.2.2,0,0,0-.2.2h.3a.3.3,0,0,0-.1-.2h0m0-.3a.1.1,0,0,0-.1.1h.2c0-.1,0-.1-.1-.1h0m0-.4a.2.2,0,0,0-.2.2h.3v-.2h0m-.4-.2a.1.1,0,0,0-.1.1h.3c0-.1-.1-.1-.2-.1h0m-.6,1.3a.1.1,0,0,0,0,.2c.1,0,.2,0,.2-.1s-.1-.1-.2-.1h0m.4,0a.1.1,0,0,0,0,.2c.1,0,.2,0,.2-.1s-.1-.1-.2-.1h0m.2-1.1h0v.2s.1,0,0-.2h0m.2.2c-.1,0-.1.1,0,0s-.1.2,0,.2v-.2h0m0,.3h0c-.1.1-.1.2,0,.2v-.2h0M19.5,2.3V2a.3.3,0,0,0,0-.4h.4c.1,0,.2.3.2.6l.7.2v.4a2.7,2.7,0,0,0-1.8,0l-.2-.3a.8.8,0,0,1,.7-.2h0m.6-.2V1.6c.3.1.4.3.5.6h-.5m-1.3.1a.7.7,0,0,1,.6-.6v.5h-.6m.4,1.2c-.2,0-.4-.4-.4-.5A2.5,2.5,0,0,1,20,2.7h.5c0,.2-.2.5-.4.5s-.1-.4-.4-.4-.4.2-.5.5h0m.5-1.3c-.1,0-.2.2-.2.3a.2.2,0,0,0,.2.2c.2,0,.2-.1.2-.2s-.1-.3-.2-.3h0m0-2h-.2V.4h.2V.1h0m-.4.7h-.4V1h.3M20.6.7h-.1V.8h0m-.5.9h0v.2h.3V1.7h-.2m-.9.1h-.3v.2h.4V1.9h0m-.3,1.2H19l.2.2V3l.2-.2h-.5m.8-.6c.1,0,.2,0,.2.1s-.1.1-.2.1a.1.1,0,1,1,0-.2h0M14.6,3.7l.2-.4.2-.2h.1l.2-.2.3-.2h1.7l-.4-.2H15.5l-.2.2h-.2V3l-.2.2v.5h0M21.9,3l.2-.2h2v.2h-.1V3l.2.2.2.4V3.2h.1l-.2-.3H22.1l-.2.2h0m0,1.3h0m-2.2-3h0M16.4,8.5V9h.7L17,8.4h-.2l.2.4h-.1V8.5h-.4m1.9-.2v.6H19V8.1h-.5v.6h-.1V8.2h-.3l.2.2h0m2.4,0v.6h.2V8.2h-.1m-6-2.2.3.6-.2-.6h-.1m1,.7H16v0h-.2m4-1.4h-.5v.4h.1V5.5h.3M18.6,6.8v.3h0V6.8h0m1.2.7v.3h.1V7.5h0m4.9-.9h0m-.6.2h-.2v.4h.1V6.8h0M19.4,2.3a.2.2,0,0,0-.2.2h.3a.3.3,0,0,0-.1-.2h0m-.3,0c-.1,0-.1.1-.1.2a.1.1,0,1,0,.2,0c0-.1,0-.2-.1-.2h0m-.3.1h-.1a.1.1,0,0,0,.1.1c.1,0,.2,0,.2-.1h-.2m1.3-.1a.2.2,0,0,0-.2.2h.3c0-.2-.1-.2-.1-.2h0m.2,0a.3.3,0,0,0-.1.2h.3a.2.2,0,0,0-.2-.2h0m.3.1a.1.1,0,0,0-.1.1c0,.1,0,.1.1.1a.1.1,0,0,0,.1-.1.1.1,0,0,1-.1-.1h0m-3,6.1h0m4.3,0h0M15.3,4.3h.2V4.3h-.2M17.5,4h0m3.4.1h0m3,.2h0m-4.2.9h0v.2h0m3.6,4.4a1,1,0,0,0-.9,0h.4l-.3.3h0a3.5,3.5,0,0,1,.8-.5h0m-1.4-.2c-.2-.2-.7-.1-.9,0h.4l-.3.3h.1l.7-.4h0m-1.6-.2a.9.9,0,0,0-.9.1h0l.5-.2-.3.4h.1c.1-.3.3-.3.6-.5h0m-1.7,0c-.2-.2-.7.1-.9.2h.1a.4.4,0,0,1,.5-.1l-.4.4H18c.1-.4.3-.5.6-.7h0m-1.4.3c-.3-.1-.8.1-.8.3h0c.1,0,.2-.2.4-.1a.8.8,0,0,0-.2.4h.1a1,1,0,0,1,.5-.6h0m2.4-8.4h0M18.3,2.9h0m-.8-.3h0m-.7-.3h0v.2h0m-.9-.1h0m-.7.3h0v.2h0m-.8.5h0m-.3.8h0m-.1,1h0m.1.8h0m7.1-2.7h0m.7-.4h0m.7-.4h0m.8,0h0m.9.2h0v.2h0m.7.5h0m.3.9h0m.1.8h0m-.2.8h0M19.8,7h0m-2.7.6h0M15.4,5.8l-.6.2h.4v.2h.2M16,7.2h.3V7.2H16m1.2.7v.2l-.2.2h0l.2-.2V7.9h0M15.4,7h.1v.2h-.1V7h0m.4,2.3h0l.3-.2h-.3m-.3-1h.4V8.3h-.3v0h0m.4,1.5-.2.2h.2m0,.1-.2.2h.2m0,.2v.2h.1m0,.1v0h0m2.7-3.5h0V6.5h.1l-.2-.2v.4h0m1.1-1.3h.5v.4l.2-.5h-.6m.9,1.1h.2V6.3l-.2.2h0m-.5-.1h0m2.5.4h0m-.8-.2h0m-2,1.3v.2h.5V8.1h-.4m4.3-2.4h0l.3.7V5.7h.5l-.7-.3h0m-.7.7-.2.7.2-.4.3.3-.3-.6h0m0,2h-.1l.6-.2h.2l-.5-.2h-.2m1.1-1.4h.1V7h-.1V7h0M23,8.6l-.2.5H23V8.7h.1v.4h.1V8.8L23,8.6h0m-.2-.1-.2.5h0l.2-.5h0m.9,1.1h0v.2h.1l-.2-.3h0m0,.2h0V10h.1V9.8h0m0,.2h0m-.1.1h0v0h0m-4-1.6h0m1.6-.4h1.9l-.5-.2-.7-.2h-.7m-3.3,0h0m1.3,0h0m1.8.8h.9l.9.2L22.5,9H21m-.5,0h0m-4.6,0h0m7.8.1h0M12.4,21.1h0m1,2.7h0m2.5,1.6h0m.2-.3h0m-.1.7h0m-.4-.7h-.1a.1.1,0,0,0,.2,0h-.1m.7.4h0a.1.1,0,0,0,.1-.1h-.1m-.7.2h-.1a.1.1,0,0,0,.2,0h-.1m7.8-.2a.1.1,0,0,0-.1.1h.1m.2-.4h-.1a.1.1,0,0,0,.1.1h0m-.1.8a.1.1,0,0,0-.1.1h.2a.1.1,0,0,0-.1-.1h0m-.5-.6h0m.7.2h.1a.1.1,0,0,0-.1-.1h0m-.7.3h0m2.7-2.1h-.1a.1.1,0,1,0,.2,0h-.1m.1-.4h0m0,.7h.1a.1.1,0,0,0-.1-.1h0m-.4-.6a.1.1,0,0,0-.1.1h.1c.1,0,0-.1,0-.1h0m.7.3h0a.1.1,0,0,0,.1-.1h-.1m-.7.2a.1.1,0,0,0-.1.1h.1c.1-.1,0-.1,0-.1h0m-12.7-5a1.1,1.1,0,0,0,.1-.5.4.4,0,0,0-.4-.4h-.2v.2h0l-.2.3h-.2a.2.2,0,0,1-.2-.2c0-.2.2-.3.4-.4h-.3c0,.1,0,.2-.1.2h0a.4.4,0,0,0,.4.4l.3-.2h0v-.3h.3a.2.2,0,0,1,.2.2c0,.2,0,.2-.1.3h0m.5-2.6.5-1-.2-.3h0a.5.5,0,0,1,0,.5h-.3l-.4-.2v-.2h.3l-.4-.2h0c.1,0,.2.1.1.3h-.5v-.2c.1,0,.1,0,.1-.1s.2-.2.4-.1h0l-.4-.4-.5,1h.3l.7.4h0c.1,0,.1.1.1.2h0M14.8,13l-.2-.3h0c-.1,0-.2-.2,0-.2s.4-.1.4,0,.1.3,0,.4h-.2m.2.8h0l.3-.3h-.2l-.3-.3.2-.2h.6c.2,0,.4,0,.5-.2h-.9c0-.1.1-.1.1-.2v-.2h-.7l-.2.2h-.2c.1-.1.1-.1.2,0h.1l.4.5.2.2h0v.2h0m3-1.7h0l.2-1h0v-.4h0l-.5.2h.3v.8l-.6-.7h-.2l.7.8h0m2.5-.7.2-.4v.5h-.3m-.5.4h.3v-.2h.4v.3h.3v-.2h0l-.4-1.1h0l-.6.9h0a.3.3,0,0,0-.1.2H20m3.1.9.4.2h0c-.1,0-.1-.1-.1-.2v-.2h0l.4-.5v1.1h0l.9-.6-.4.7h-.2l.4.3h0v-.2h0l.3-.8h.3l-.4-.3h0v.2h-.1l-.7.5.2-.9h0l-.4-.2h0c.1,0,.2.1.1.2h0l-.5.5h0c-.1.2-.2.2-.3.2h.1m3.7,1.8c.1,0,0,.2-.1.2h0l-.4.3h0c-.4.2-.4.4-.3.7s.2.3.3.3h.3l.5-.3h.3l-.2-.3h0a.2.2,0,0,1-.2.2h0l-.4.2h-.3c-.1,0-.2,0-.2-.2a.2.2,0,0,1,0-.3s0-.1.2-.2h0l.5-.2H27l-.2-.4h0m-2.3-.7A7.2,7.2,0,0,0,19.8,12a7,7,0,0,0-4.7,1.8h.5a6.5,6.5,0,0,1,8.3,0H24l.5-.2h0M16.1,16h.5v.2h-.7V16h.2V16h0m.2-.7h.6v.2h-.2v.3h-.3m8.2.2h-.1v.2h0v.2H22.8v-.2h0V16h-.2v-.2h.3v-.2h1v.2h.6v.2h.2v.2h-.1m-.8-.7h0V15h.2l-.2-.2h0v-.2h0m-1.1.2h0l.2.2h.1V15h-.2m.8.8H23v.2h.4v.2h0m.6,0h-.3v.2h.8V16H24m.2-.5h0m-8.4,0a.3.3,0,1,1-.3.3.3.3,0,0,1,.3-.3h0m7.9-.2a.3.3,0,0,0-.3.3c0,.2.1.4.3.4s.3-.2.3-.4-.2-.3-.3-.3h0m0,.3h0m0-.1h0m-.1-.1h0c.1.1,0,.1,0,.1h0m0,0h0s-.1,0,0-.1h0m0,.1h0m-.2,0h0c.1.1,0,.1,0,.1h0m.1.1h0c.1.1,0,.1,0,.1s-.1,0,0-.1h0m.1,0h0m-7.8.1h0m0-.1h0m0-.1h0m-.1,0h0c-.1.1,0,.1,0,.1h0m-.1.1h0c-.1.1,0,.1,0,.1h0m0,.2h0m.1-.2h0c-.1.1,0,.1,0,.1h0m2.6,2.8h-.8l-.2-.2H15.9v.2h-.5v-.2H15V18h-.7v-.7h3.9l.2,1.1h0m2,3.7h1.4l.2-.2.4-.2h.5l.2.2h.2l.2.2h.3v.2l-.2.3-.2.4v.2h-.5v-.2h-.4l-.2.2-.4.2H20.2l-.2-.2.3-1.2h0M25.4,17v.6h-1l-.2.2h-.9l-.2-.2h-.3l-.2-.2v.2h-.6v.2h-.5l.3-1.1h3.9m-7.7-3.2h-.3l2.2,9.8L22,13.9h-.3l-.5-.3-.6-.3-.5-.4-.4-.4-.3.3-.5.4-.5.5-.5.2h-.2m-1.2.8h0v.2h0m-1.2.2h0m-.7,1.1h0m1.2.4h.1v.2h0m.8-.5h0m7.8-1.3h0m-1.3.2h0m-.6,1.1h0m1.2.5h0m.8-.6h0m-4.2-.6h.1l.2.2h.5c.1,0,.2,0,.2-.2h0a1.1,1.1,0,0,0-.2-.6h0c0-.2-.1-.3-.2-.5h0c0-.1,0-.2-.1-.2h-.5v.2h-.2V14h-.2l.2-.2.2-.2-.2-.2h-.3a.1.1,0,0,0-.1.1h-.3l-.2.2h0c0,.2.1.4.3.4h-.4v-.2h-.6a.8.8,0,0,0-.1.4h0a.6.6,0,0,0-.2.5h0c0,.1.1.1.2.1h1v.7h.1V16H19v.5h.2v.2h0c0,.1,0,.1.1.2h-.1v1h0v.2h0v.2h0v.6h0v.2h0v.2h1.2c0-.1-.1-.1-.1-.2h0a5.6,5.6,0,0,1,.1-.7h0v-.3h0l-.2-1.3h0c.1-.1.1-.1.1-.3h0a.1.1,0,0,0,.1-.1h0v-.4h0c.2-.1.2-.3.2-.5h-.2v-.5h0v-.3h0m-.7,5.1h0V20h0m.4.1h.1A.1.1,0,0,0,20,20h-.1v.2H20m-.1-6.8h-.5c0,.1.1.3.2.3h.6a.1.1,0,0,0,.1-.1h-.2c0-.2-.2-.2-.2-.1h0m-.4,1.7h.1v-.2h-.2v.2h0a.7.7,0,0,1-.1-.5h.1a.2.2,0,0,0,.2.2h.6c0,.1,0,.2.1.2H21v-.2h.2v-.5h0l-.2-.5h-.4v.2h-.4c0-.1.1-.1.1-.2h-.7v.2h-.7a.5.5,0,0,0-.3.5h.2a.1.1,0,0,1-.1.1h-.2v.2l-.2.4h1.1v1.1h.1c0-.1,0-.2.1-.2v.2h0v.5h.1V16a4.3,4.3,0,0,1,.1-.5h0a2,2,0,0,0-.1.5.1.1,0,0,0,.1.1h.1v-.3h0V16h0l.2-.5h0v-.4h0v-.2h-.6m-.7-.9h0m.3.4H19l-.4-.2h.2a.4.4,0,0,1,.3.2h0m.9-.5h-.1v.4h0v-.2h0v.2h.1c0-.3,0-.3.1-.3h0m.1.7h0v-.3h0m-.6-.2h0c.1-.1,0-.1,0-.2h0m.4.3h0m0,.3h0v-.2h0m-.5.8h.2v-.5h0c0-.2-.1-.2-.1-.2h-.1v.2h0v.5h0m-.6-1.2h0v-.2h0m0-.8h-.1c-.1.2-.1.2.1.1h0M20,15.6v-.2h.1c0,.1,0,.2-.1.2h0m.5-.9h.2v.2h0c0-.1-.1-.1-.1-.2h0c-.1.1-.1.1-.1,0h0m.2-.2h-.2l-.3.2h0l.5-.2h0m0-.2h.1c0,.1,0,.1-.1.1h0m-.9,3H20c0,.1,0,.1.1.1h0a.1.1,0,0,0,.1-.1h0a.6.6,0,0,0,.2-.5h0a.1.1,0,0,0-.1-.1h0v.2h0a.3.3,0,0,0-.1.2v.2h0v-.2h-.3c-.1,0-.2,0-.2.1h.1v-.2h-.3a.1.1,0,0,0,.1-.1h-.2v-.4h0c0-.1-.1-.1-.1-.2h-.1v.5h0l.3.2h0a.1.1,0,0,0-.1-.1h.5v.3h-.3l-.2.2h-.2c0,.1.1.2.4.2h.3c.2,0,.3-.1.3-.2h-.2v-.2h0m-.5-.3a.1.1,0,0,0-.1-.1h.1m.2.1h-.1v.2h0m0-.6h.2a.1.1,0,0,1-.1.1h-.1m.3.7h0m0-.7h0m.5.8h-.1a.1.1,0,0,0,.1-.1h0m-.9.2h0v-.2h0m.3,2.5h.2V20h0l.2-.2h.2l.2-.6h0L20.3,18h-.9v.2a2,2,0,0,0-.1.7h0c0,.2.1.4.2.4h.2c0,.1.1.1.2.2h-.1a.1.1,0,0,1-.1-.1h-.2v.6h.2V20h0a.1.1,0,0,0,.1-.1h.1c-.3.3-.2.3-.2.4h0m-.1-.7v-.2h-.1v-.2h.4c-.1.1-.1.4-.1.7h0V19h0c0-.1,0-.1-.1-.1h0l-.2.2h.1m.4-.2h0c0-.1,0-.2-.1-.2h0v-.2h-.1l-.2.2h0a.5.5,0,0,1,.3-.3c.1,0,.1,0,.1.2H20v.2h-.2a.1.1,0,0,1,.1.1h0m.1.4a.1.1,0,0,1-.1.1h.2s-.1,0-.1.2h0m-.4,1h-.2c-.1,0-.1.1-.1.2h.3m.4.1h.2c0-.1-.1-.1-.2-.1h0m-2.2-6.8-.4.2h.6l.4-.2h.3l.4-.3.3-.2.2-.2.2.2.3.2.4.3.4.2h.7l.4.2h-.4l-.2-.2h-.3l-.5-.3-.4-.3-.3-.3-.2-.2-.3.3-.2.2-.4.3-.5.2-.3.2h-.2m-2.4,1.1h.1V15h0v.2h0v-.2h-.1m-.3.2h-.1v.3h0m.1,1.1V16h-.1m.9-.1h0m.3,0h0m-.1-1h0m7-.3h0m-.3.1h.3l-.3-.4h0m.1,1.2h0m.9-.1h0V16h0m.3,0h-.1V16h0m-.1-1.1h0v.2h0m-8.6.7h0m.2-.2h0m0,.1h0m-.1.1h0m.1,0h0c-.1.1,0,.1,0,.1h0m0,.1h0s.1,0,0-.1h0m.1-.1h0m.1-.1h0c-.1.1,0,.1,0,.1h0m-.1-.1h0m-.1-.1h0c-.1.1,0,.1,0,.1h0m-.2.4h0m.2,0h0c-.1.1,0,.1,0,.1h0m7.7-.2h0c-.1,0-.1,0,0-.1h0m.1-.1h0m0,0h0c.1.1,0,.1,0,.1h0m-.1,0h0c.1.1,0,.1,0,.1h0m.1.1h0c.1.1,0,.1,0,.1h0m.1.1h0m.1-.1h0s-.1,0,0-.1h0m0-.1h0m0-.1h0m-.2-.1h0c.1.1,0,.1,0,.1h0m-.1.4h0m.1,0h0c.1.1,0,.1,0,.1h0m-9.5-1.9v.5l-.2.5v2.2h4L17.4,14H15.2l-.4-.2-.5-.3v.3h0m7.9.2h.2l-.8,2.8h4V13.4l-.6.3h-.3L24,14H22.1m-7.7-.2h0l.4.2.2.2h.1l-.3-.2-.3-.2h-.1m8.1.4h2.6l.2-.2v.2H22.5m-8.4,3v.7l.2,1.2.3,1,.5,1.1.8,1.5.4.8.9,1.2.9.9.6.5.7.5.3.2.5-.3.4-.3.5-.3.5-.4.5-.7.5-.5.5-.5.4-.6.4-.9.4-.6.4-.7v-.7l.2-.6.2-.7.2-.7V16.9h-4l-1.8,7.2-1.6-7.2h-4v.3h0m2.8,6.8.3.2h.2l.3.2.2.2h.9l.2-.2h1.2v.2h1l.3-.2h.8l-.3.5-.3.4-.4.4-.4.4h-.7l-.2-.2h-.6l-.2.2h-.6l-.3-.3-.2-.2-.4-.4-.4-.5-.5-.7h0m4.3,10.2v-.6H20v.7l.2.2h0v-.9h.2v.6l.2.2.3.2h0v-.2l-.2-.2V34h.7m-6.7-15,.2.2.2.2h1l.2-.2h1l.3.2.2.2h.9l.3,1.2H17.7l-.2-.2h-.4v-.2h-.7l-.2.2H16l-.2.2H15l-.2-.7-.3-.8h0m1.3,3h.7l.2-.2h.8l.3.2.2.2h1.2l.3,1.2-.3.2-.3.2h-.8l-.4-.2-.3-.3h-.8l-.2.2h-.1l-.2-.5-.3-.6h0m5.1-2.5h.5l.2-.2h1.3l.3.2h1.3l.2-.2h.4l-.4,1.5h-.3v.2H23.2l-.3-.3h-.8l-.2.2H20.6l.2-1.1h.1m1.3,5.1a6.3,6.3,0,0,0,3.9-5.9,6.7,6.7,0,0,0-.6-2.8h0v-.9h0a6.9,6.9,0,0,1,1.2,3.8,7,7,0,0,1-5.1,6.6h0l.3-.4.2-.2v-.2h0m-4.9,0a6.2,6.2,0,0,1-3.9-5.8,6,6,0,0,1,.6-2.7h0v-.8h0a6.1,6.1,0,0,0-1,3.6,6.9,6.9,0,0,0,5,6.6h0l-.3-.4-.4-.4h0m-.7-9.1h-.1v.2H15v-.2h0V16h-.3v-.2h1v.2h.9m-.8-.7v.2h-.4v-.2h.2v-.2H16v.2h-.4v-.2h0m-1.1.2h.7v-.2h-.7v-.2h0m.8.9h-.4v-.2h.4V16h0m-2.9,4.7h0m0,.8h-.1a.1.1,0,0,0,.1.1h0m-.5-.7h0m.7.3h0m-.7.2h0a.1.1,0,0,0,.1-.1h-.1m15-.2h0m.1-.4h0a.1.1,0,0,0,.1-.1h-.1m0,.8h0a.1.1,0,0,0,.1-.1h-.1m-.4-.7h0m.7.3h0m-.7.2h-.1a.1.1,0,0,0,.1.1h0M13.7,23.6h.1c.1-.1,0-.1-.1-.1h0m.2-.4a.1.1,0,0,0-.1.1h.1m0,.8h-.1a.1.1,0,0,0,.1.1h0m-.5-.7h-.1a.1.1,0,1,0,.2,0h-.1m.8.3h0M26.8,18v.4a.5.5,0,0,0,.4.5s.1,0,.2-.2l.2-.2h0v-.3h.2a.2.2,0,0,1,.2.2.5.5,0,0,1-.3.4h.3v-.2a.3.3,0,0,0-.3-.3c-.2,0-.3.1-.4.3h0v.2h0a.1.1,0,0,1-.1.1H27a.2.2,0,0,1-.2-.2c0-.2,0-.2.1-.3l.3-.2h-.4M19.7,8.9a13,13,0,0,0-4,.6l-.2-.6a15.9,15.9,0,0,0-.9-3c.1,0,.8-.2.9-.1a1,1,0,0,0-.2.7c0,.3.4.4.7.1h.1c0,.1.3.8.3,1s-.5-.3-.7-.1a.9.9,0,0,0,.6.9.8.8,0,0,0,.9-.1V7.9H18c-.1.2.4.5.6.4s.8-.4.9-.6-.5-.5-.9-.1a5.6,5.6,0,0,0,0-1.3c.2.3.4.6.8.4s0-.8-.3-1.1h1.4c-.1.1-.4.6-.2.9s.6.1.8-.1a1.6,1.6,0,0,0,.1,1c-.6-.5-1.3-.4-1,.3s1,.9,1.5.2h.8c0,.5.6.6.9.4s.5-.6.5-1-.6.1-.7.2a4.2,4.2,0,0,1,.3-1.3c.1.4.4.7.8.6s-.1-.8-.2-1.2a2.6,2.6,0,0,0,.9.4,8.8,8.8,0,0,1-.8,2.6h0l-.4,1.1h0a9.9,9.9,0,0,0-4.1-.7h0M10,21.5v-.2H9.5l-.4-.3v.7l-.2.9v-2h0l.2.2v.4H10v.2h0M6.9,20.2H6.4v.3l1.2,1.9L6.2,20.7l-.4-.4-.2-.4.2.2H6.9m3.6-4.8h-.2v-.7H10l-.6.9.6-1.1h.3v1h.1M12.1,14h-.5l.3-.2h.2m-1.5,4.6-.6.5.2-.3.4-.2h0M8,25.5v.2H7.4l1,.6H8l-1-.6-.3-.2H7.8l.2-.2H8m5.6-14.1h.1v-.7h-.1l-.4.3.3-.3h.4l-.2.3v.5h-.1M5.8,29.5H5.1l-.2.2h0V31h.1l.2.3h.3l.3.4h.2l.4.4,1.2.8.3.2.4.3.6.3.7.4.9.4.6.3.6.2.9.4.5.2,1,.2.6.2h.5l.6.2h6l1.3-.2h1.5l.7-.2.9-.2h.4l.4-.2.7-.2,1-.4.5-.3.6-.3,1.1-.6.3-.4.8-.5.5-.4.2-.2.8-.8.6-.5v-.6l.2-.2h0v-.2h0V30h0v-.2h-.9l.3.2h.2v.2l-.2.2V31l-.4.3-.4.5-.4.4-.5.4-.5.3-.7.4-.6.4-.5.3-.6.3-.8.3-.8.4-.8.3-.9.3-1,.3-.9.2H16.1l-1-.2-.5-.2-.7-.2h-.6l-.5-.2-.5-.2-.6-.2-.6-.2-.5-.3-.6-.2-.7-.3-.8-.5-.9-.6-.8-.6-.6-.6-.3-.3-.3-.3H5.5v-.2H5.3v-.2h0v-.2h.5M5,34.6H5v.2h.6l.6.4.7.5.8.4.8.5.8.4.9.4.6.2.5.2.7.3.7.2.4.2h2l.8.2h.6l.6.2h7.5l.5-.2h1.1l.6-.2.5-.2.6-.2.7-.2.7-.2.8-.4.5-.2.6-.3.3-.2.5-.2.8-.5.7-.4.4-.4.5-.3.3-.2.3-.3h.2v-.2l-.3-.3-.2.2h-.1l-.6.4-.4.3-.3.2-.4.2-.8.5-.8.4-.4.2-.3.2-.5.2-.4.2-.8.3-.7.3-.4.2H27l-.4.2-.8.2h-.4L25,39l-.8.2-1,.2H15.8l-1-.2H14l-1.1-.3-1-.3-1.2-.5-.9-.4-1.1-.6-.8-.5-1-.6-.7-.4-.7-.5-.3-.2H5m26.4-6.3h1.5l1-.3h1.6v-.4h.2v.4H36V30l-.2.2v.2l-.4.4-.3.2-.6.3v.6l.4-.2.3-.2.2-.2.4-.2H36l.2-.3V26.8l-.2-.4v-.9h-.1v-.2h0v1.3h-.2v.2H35l-.2.2-.3.2H34l-.3.2-.5.2-1.2.2-.9.2h.3M8.2,29.9l.3-.4H5.4v.2h0v.2h0v.2H6l.4.4.4.4.5.3.4.3H9.1V30H8.2m-.2-1H7.4l-1.2-.2-.5-.2-.4-.2L4.9,28H4.7l-.3-.2-.2-.3L4,27.1H3.9v3.2l.2.2.2.4h.2v.2l.2.2V30.3h0V30H8.5L8,28.9H8m23.2,1h-.9l.2,1.7v.7l.2.2h1.2l.5-.4.8-.7.5-.5.2-.3h.1v-.2H30.9l.3.2h0m.6-1.3-.6.6-.2.3h1.9l.5-.2h1.4v.2h0v1h.5l.3-.4.3-.4V30l.2-.4V26.8h-.2l-.2.2h-.3l-.2.2h-.2l-.4.2h-.2l-1.1.3H32.1l-.3.3h0m2.9,2-.2.3h0l-.2.2v.2l-.2.3-.8.7-.5.4-.9.7-.6.4-.7.5-.6.4-.6.2-.6.3-.9.4-.8.4-.9.2h-.4l-1,.3H24l-.8.2H15.7l-.8-.2-1-.2-.6-.2-1.1-.4-.5-.2L10.5,35l-.9-.4-.7-.4-.6-.4-.4-.2-.3-.3-.7-.4-.8-.7H5.9l-.2-.2v-.2l-.3-.2v-.2H5.1v.3l.2,2.8h.1l.6.4,1.2.8.9.5.9.5.7.4,1.3.5.5.2,2.2.7,1.8.4.9.2.9.2H23l.7-.2,1-.2.6-.2.8-.2.9-.2.8-.3.9-.4.7-.2L30,37l.7-.4h.4L32,36l1.2-.7.5-.3.3-.2h.2l.4-.5V30.6h0m-28,4.5.2-1.4h0v-.2h0l.6.4H7.2a.1.1,0,0,1-.1.1h0l-.2,1,.8-.5h.1c0-.1.1-.1,0-.1s-.1-.1-.1-.2h0l.4.3H7.7l-1,.7h0M19.8,10.3a8.6,8.6,0,0,1,8.5,8.6,8.5,8.5,0,0,1-17,0,8.6,8.6,0,0,1,8.5-8.6h0m0-.4a9,9,0,1,0,9,9,9.1,9.1,0,0,0-9-9h0M7.7,28.6l-.3-.2-.7-.2L6.2,28H5.1l-.2-.2-.3-.3L4.4,27v-.5H4.1v-.1l-.2.3v3.8h.1v.6l.2.2.2.3.3.3.4.3v-.5H4.7v-.2l-.2-.2L4.2,31V26.8l.3.5.2.2.2.3.3.2.4.2h.9l.6.2.7.2h.2" style="fill:#fff"/><circle cx="19.7" cy="18.9" r="8.7" style="fill:none;stroke:#fff;stroke-miterlimit:10;stroke-width:1.3655999898910522px"/></svg>