<svg xmlns="http://www.w3.org/2000/svg" width="40" height="40" viewBox="0 0 40 40"><defs><style>.a{fill:#4b6584;}.b{fill:#fff;stroke:#fff;stroke-width:0.5px;}</style></defs><circle class="a" cx="20" cy="20" r="20"/><g transform="translate(8.112 2.197)"><path class="b" d="M4.968,19.948A6.073,6.073,0,0,1,3.631,23.83a.371.371,0,0,0,.043.473c.55.549.89.9,1.129,1.139.314.32.457.466.667.656a.372.372,0,0,0,.493,0,14.237,14.237,0,0,0,4.582-11.446A5.359,5.359,0,0,0,5.274,9.412a5.273,5.273,0,0,0-.306,10.536Zm.306-9.793A4.632,4.632,0,0,1,9.8,14.711h0a13.578,13.578,0,0,1-4.081,10.6c-.1-.1-.218-.219-.39-.394-.207-.21-.49-.5-.918-.928,1.637-2.521,1.328-4.318,1.192-4.575a.384.384,0,0,0-.334-.2,4.53,4.53,0,1,1,0-9.059Z"/><path class="b" d="M40.482,19.948a6.065,6.065,0,0,1-1.337,3.882.371.371,0,0,0,.043.473c.549.549.889.895,1.127,1.137.315.321.459.467.668.658a.373.373,0,0,0,.493.005A14.24,14.24,0,0,0,46.06,14.657h0a5.36,5.36,0,0,0-5.272-5.245,5.272,5.272,0,0,0-.306,10.536Zm.306-9.793a4.634,4.634,0,0,1,4.531,4.557h0a13.581,13.581,0,0,1-4.082,10.6c-.1-.1-.219-.22-.391-.395-.207-.21-.489-.5-.916-.927,1.636-2.522,1.328-4.318,1.192-4.575a.385.385,0,0,0-.334-.205,4.53,4.53,0,1,1,0-9.059Z" transform="translate(-22.321)"/></g></svg>