<?xml version="1.0" encoding="UTF-8"?>
<svg width="14px" height="14px" viewBox="0 0 14 14" version="1.1" xmlns="http://www.w3.org/2000/svg" xmlns:xlink="http://www.w3.org/1999/xlink">
    <!-- Generator: sketchtool 59.1 (101010) - https://sketch.com -->
    <title>A96F2233-5310-495A-9559-D80C35C479E2</title>
    <desc>Created with sketchtool.</desc>
    <g id="Asset-Artboard-Page" stroke="none" stroke-width="1" fill="none" fill-rule="evenodd">
        <g id="expand" fill="#D23F4D">
            <path d="M7.16666667,0 C7.71895142,-1.01453063e-16 8.16666667,0.44771525 8.16666667,1 L8.166,5.833 L13,5.83333333 C13.5522847,5.83333333 14,6.28104858 14,6.83333333 L14,7.16666667 C14,7.71895142 13.5522847,8.16666667 13,8.16666667 L8.166,8.166 L8.16666667,13 C8.16666667,13.5522847 7.71895142,14 7.16666667,14 L6.83333333,14 C6.28104858,14 5.83333333,13.5522847 5.83333333,13 L5.833,8.166 L1,8.16666667 C0.44771525,8.16666667 -1.77635684e-15,7.71895142 -1.77635684e-15,7.16666667 L-1.77635684e-15,6.83333333 C-1.77635684e-15,6.28104858 0.44771525,5.83333333 1,5.83333333 L5.833,5.833 L5.83333333,1 C5.83333333,0.44771525 6.28104858,1.01453063e-16 6.83333333,0 L7.16666667,0 Z"></path>
        </g>
    </g>
</svg>